{"glyphs":{"0":{"ha":644,"x_min":71,"x_max":572,"o":"m 71 278 l 71 706 q 138 910 71 835 q 322 985 206 985 q 506 910 439 985 q 572 706 572 835 l 572 278 q 506 64 572 142 q 322 -14 439 -14 q 138 65 204 -14 q 71 278 71 143 m 233 788 l 233 183 q 255 62 233 100 q 322 24 276 24 q 388 61 367 24 q 408 183 408 99 l 408 788 q 388 909 408 871 q 322 947 367 947 q 255 909 276 947 q 233 788 233 871 z "},"1":{"ha":381,"x_min":43,"x_max":292,"o":"m 142 0 l 142 888 l 58 843 l 43 875 l 217 971 l 292 971 l 292 0 l 142 0 z "},"2":{"ha":571,"x_min":42,"x_max":500,"o":"m 61 899 q 154 962 100 939 q 271 985 208 985 q 365 968 322 985 q 437 922 407 951 q 483 849 467 892 q 500 756 500 807 q 367 492 500 619 l 254 392 q 149 271 186 326 q 96 154 111 215 l 500 154 l 500 0 l 42 0 q 81 250 42 133 q 204 492 119 367 l 233 535 q 288 618 265 581 q 324 687 310 656 q 344 746 338 718 q 350 800 350 774 q 319 904 350 867 q 235 942 288 942 q 157 923 197 942 q 86 872 117 904 l 61 899 z "},"3":{"ha":518,"x_min":-17,"x_max":447,"o":"m 185 -12 q 76 3 128 -12 q -17 50 24 19 l 3 81 q 150 31 81 31 q 290 251 290 31 l 290 285 q 255 440 290 393 q 135 486 219 486 l 135 522 q 244 565 213 522 q 276 710 276 607 l 276 750 q 248 890 276 842 q 163 938 219 938 q 96 921 131 938 q 29 872 61 904 l 3 897 q 89 962 38 939 q 201 985 140 985 q 296 968 253 985 q 369 920 339 951 q 417 846 400 889 q 433 750 433 803 l 433 717 q 268 513 433 532 l 244 510 l 244 499 l 268 496 q 447 272 447 472 l 447 258 q 377 60 447 132 q 185 -12 307 -12 z "},"4":{"ha":633,"x_min":40,"x_max":564,"o":"m 40 175 l 40 236 l 410 971 l 485 971 l 485 300 l 564 300 l 564 175 l 485 175 l 485 0 l 335 0 l 335 175 l 40 175 m 338 732 l 326 732 l 311 693 l 119 303 l 119 300 l 335 300 l 335 690 l 338 732 z "},"5":{"ha":575,"x_min":31,"x_max":504,"o":"m 64 146 q 123 62 79 94 q 219 29 167 29 q 313 72 278 29 q 347 188 347 115 l 347 307 q 308 447 347 393 q 207 500 269 500 q 149 486 175 500 q 107 447 122 472 l 74 447 l 74 971 l 483 971 l 458 832 l 111 832 l 111 497 l 115 497 q 250 553 160 553 q 350 533 304 553 q 431 481 396 514 q 485 401 465 447 q 504 301 504 356 l 504 224 q 485 131 504 174 q 431 56 465 88 q 351 6 397 24 q 253 -12 306 -12 q 113 27 174 -12 q 31 131 51 67 l 64 146 z "},"6":{"ha":650,"x_min":71,"x_max":578,"o":"m 71 253 l 71 717 q 90 826 71 776 q 142 910 108 875 q 224 965 176 946 q 328 985 271 985 q 449 960 394 985 q 535 896 504 936 l 507 874 q 439 925 479 906 q 356 944 399 944 q 262 908 296 944 q 228 807 228 871 l 228 550 q 293 597 251 579 q 382 614 335 614 q 524 556 471 614 q 578 399 578 497 l 578 253 q 559 146 578 194 q 507 62 540 97 q 427 6 474 26 q 325 -14 381 -14 q 223 6 269 -14 q 142 62 176 26 q 90 146 108 97 q 71 253 71 194 m 228 514 l 228 156 q 255 60 228 97 q 324 22 282 22 q 394 60 367 22 q 421 156 421 97 l 421 436 q 396 532 421 497 q 328 567 371 567 q 274 552 300 567 q 228 514 247 538 z "},"7":{"ha":524,"x_min":15,"x_max":507,"o":"m 133 36 q 145 217 133 144 q 177 342 157 289 q 224 440 197 396 q 283 537 251 485 q 348 658 314 589 q 414 832 382 728 l 15 832 l 15 971 l 507 971 l 469 871 q 392 636 424 742 q 342 433 361 531 q 316 241 324 336 q 308 36 308 146 l 308 0 l 133 0 l 133 36 z "},"8":{"ha":710,"x_min":71,"x_max":639,"o":"m 272 490 l 297 493 l 297 504 l 272 507 q 199 528 233 511 q 140 573 165 546 q 99 635 114 600 q 85 708 85 669 l 85 768 q 107 851 85 811 q 167 920 129 890 q 256 967 206 950 q 361 985 306 985 q 464 967 415 985 q 549 921 513 950 q 606 852 585 892 q 626 768 626 813 l 626 708 q 611 636 626 671 q 569 574 596 601 q 508 529 543 547 q 433 507 474 511 l 408 503 l 408 493 l 433 490 q 514 467 476 486 q 579 419 551 449 q 623 353 607 390 q 639 275 639 315 l 639 217 q 617 128 639 169 q 557 55 594 86 q 469 6 519 24 q 361 -12 418 -12 q 250 6 303 -12 q 158 56 197 25 q 94 129 118 88 q 71 217 71 171 l 71 275 q 86 353 71 317 q 128 419 101 390 q 192 467 156 449 q 272 490 229 486 m 363 517 q 438 549 415 517 q 461 660 461 581 l 461 808 q 438 916 461 883 q 363 949 414 949 q 250 808 250 949 l 250 660 q 277 551 250 585 q 363 517 304 517 m 363 24 q 440 55 417 24 q 463 164 463 86 l 463 338 q 438 447 463 413 q 363 481 414 481 q 277 444 307 481 q 247 338 247 408 l 247 164 q 276 57 247 90 q 363 24 304 24 z "},"9":{"ha":650,"x_min":71,"x_max":578,"o":"m 578 719 l 578 254 q 559 146 578 194 q 506 62 540 97 q 425 7 472 26 q 321 -12 378 -12 q 173 26 238 -12 q 82 132 108 65 l 115 149 q 188 61 138 94 q 296 28 238 28 q 388 61 354 28 q 421 153 421 94 l 421 422 q 356 376 397 393 q 265 358 314 358 q 124 417 178 358 q 71 574 71 475 l 71 719 q 90 827 71 778 q 142 912 108 876 q 222 967 175 947 q 324 986 268 986 q 426 967 379 986 q 506 912 472 947 q 559 827 540 876 q 578 719 578 778 m 421 457 l 421 817 q 394 913 421 875 q 325 950 367 950 q 255 913 282 950 q 228 817 228 875 l 228 542 q 252 442 228 478 q 319 406 276 406 q 374 419 347 406 q 421 457 401 433 z "},"\u0000":{"ha":0,"x_min":0,"x_max":0,"o":""},"\r":{"ha":347,"x_min":0,"x_max":0,"o":""}," ":{"ha":268,"x_min":0,"x_max":0,"o":""},"H":{"ha":644,"x_min":65,"x_max":581,"o":"m 228 971 l 228 503 l 418 503 l 418 971 l 581 971 l 581 0 l 418 0 l 418 467 l 228 467 l 228 0 l 65 0 l 65 971 l 228 971 z "},"I":{"ha":293,"x_min":65,"x_max":228,"o":"m 228 971 l 228 0 l 65 0 l 65 971 l 228 971 z "},"J":{"ha":424,"x_min":-11,"x_max":358,"o":"m -11 50 l 11 79 q 121 32 71 32 q 196 149 196 32 l 196 971 l 358 971 l 358 236 q 342 136 358 182 q 298 57 326 90 q 231 5 269 24 q 147 -14 193 -14 q -11 50 61 -14 z "},"K":{"ha":607,"x_min":67,"x_max":618,"o":"m 229 0 l 67 0 l 67 971 l 229 971 l 229 0 m 272 496 l 272 525 l 510 971 l 551 971 l 375 636 l 618 0 l 450 0 l 272 496 z "},"L":{"ha":414,"x_min":65,"x_max":425,"o":"m 228 971 l 228 36 l 425 36 l 425 0 l 65 0 l 65 971 l 228 971 z "},"M":{"ha":744,"x_min":57,"x_max":679,"o":"m 679 0 l 517 0 l 517 758 l 519 814 l 510 814 l 503 758 l 364 0 l 294 0 l 110 758 l 100 814 l 90 814 l 94 758 l 94 0 l 57 0 l 57 972 l 229 972 l 369 381 l 379 325 l 389 325 l 396 381 l 504 972 l 679 972 l 679 0 z "},"N":{"ha":557,"x_min":58,"x_max":500,"o":"m 439 411 l 457 356 l 467 356 l 464 411 l 464 971 l 500 971 l 500 0 l 431 0 l 121 792 l 101 847 l 92 847 l 96 792 l 96 0 l 58 0 l 58 971 l 224 971 l 439 411 z "},"Q":{"ha":638,"x_min":58,"x_max":581,"o":"m 275 -8 l 275 -6 l 257 -6 q 112 88 165 13 q 58 278 58 164 l 58 706 q 77 820 58 768 q 130 908 96 872 q 213 965 164 944 q 319 985 261 985 q 426 965 378 985 q 509 908 475 944 q 562 820 543 872 q 581 706 581 768 l 581 278 q 563 158 581 211 q 510 66 544 104 q 428 8 476 28 q 321 -12 381 -12 q 263 -26 294 -12 q 208 -64 232 -40 q 260 -50 228 -50 q 390 -89 314 -50 l 401 -94 q 448 -114 429 -108 q 482 -119 467 -119 q 563 -57 531 -119 l 579 -68 q 510 -150 553 -121 q 417 -179 468 -179 q 369 -174 394 -179 q 319 -158 344 -168 l 313 -156 q 221 -135 258 -135 q 132 -169 165 -135 l 114 -160 q 181 -66 147 -101 q 258 -12 215 -31 l 275 -8 m 221 185 q 318 24 221 24 q 392 66 367 24 q 418 190 418 108 l 418 789 q 393 908 418 867 q 321 949 368 949 q 247 907 272 949 q 221 789 221 865 l 221 185 z "},"S":{"ha":521,"x_min":58,"x_max":492,"o":"m 332 128 q 319 202 332 163 q 279 296 307 242 l 106 642 q 69 779 69 714 q 85 863 69 825 q 127 927 100 900 q 192 969 154 954 q 274 985 229 985 q 383 961 331 985 q 471 897 435 938 l 446 872 q 381 920 419 901 q 310 939 343 939 q 247 911 269 939 q 225 835 225 883 q 260 703 225 776 l 463 290 q 492 176 492 231 q 474 100 492 135 q 426 40 457 65 q 351 1 394 15 q 258 -14 308 -14 q 58 49 153 -14 l 78 79 q 160 42 117 56 q 238 29 203 29 q 332 128 332 29 z "},"T":{"ha":494,"x_min":-10,"x_max":507,"o":"m 507 935 l 329 935 l 329 0 l 168 0 l 168 935 l -10 935 l -10 971 l 507 971 l 507 935 z "},"U":{"ha":583,"x_min":65,"x_max":526,"o":"m 228 971 l 228 190 q 258 73 228 115 q 346 31 289 31 q 451 88 411 31 q 490 240 490 144 l 490 971 l 526 971 l 526 242 q 471 53 526 119 q 313 -14 415 -14 q 211 7 257 -14 q 133 65 165 28 q 83 156 100 103 q 65 276 65 210 l 65 971 l 228 971 z "},"X":{"ha":499,"x_min":-11,"x_max":508,"o":"m 276 667 l 292 613 l 300 613 l 318 667 l 440 971 l 482 971 l 315 556 l 508 0 l 339 0 l 215 356 l 200 408 l 190 408 l 172 356 l 31 0 l -11 0 l 175 467 l -1 971 l 171 971 l 276 667 z "},"Y":{"ha":486,"x_min":-11,"x_max":496,"o":"m 299 578 l 315 522 l 325 522 l 338 578 l 456 969 l 496 969 l 340 456 l 340 0 l 178 0 l 178 440 l -11 969 l 160 969 l 299 578 z "},"Z":{"ha":583,"x_min":32,"x_max":551,"o":"m 82 935 l 82 971 l 532 971 l 532 935 l 203 36 l 551 36 l 551 0 l 32 0 l 32 36 l 363 935 l 82 935 z "},"i":{"ha":281,"x_min":54,"x_max":231,"o":"m 54 860 q 79 922 54 897 q 142 946 104 946 q 206 922 181 946 q 231 860 231 897 q 206 798 231 824 q 142 772 181 772 q 79 798 104 772 q 54 860 54 824 m 217 688 l 217 0 l 64 0 l 64 688 l 217 688 z "},"j":{"ha":325,"x_min":38,"x_max":275,"o":"m 101 860 q 126 922 101 897 q 188 946 150 946 q 250 922 225 946 q 275 860 275 897 q 250 798 275 824 q 188 772 225 772 q 126 797 150 772 q 101 860 101 822 m 264 51 q 253 -33 264 6 q 217 -108 242 -72 q 152 -176 192 -143 q 56 -243 113 -208 l 38 -221 q 67 -194 53 -207 q 90 -162 81 -181 q 106 -121 100 -144 q 111 -64 111 -97 l 111 688 l 264 688 l 264 51 z "},"k":{"ha":551,"x_min":56,"x_max":557,"o":"m 208 0 l 56 0 l 56 971 l 208 971 l 208 0 m 336 504 l 557 0 l 400 0 l 238 410 l 238 432 l 433 688 l 476 688 l 336 504 z "},"l":{"ha":253,"x_min":56,"x_max":208,"o":"m 56 971 l 208 971 l 208 0 l 56 0 l 56 971 z "},"m":{"ha":790,"x_min":51,"x_max":747,"o":"m 468 581 q 514 667 479 633 q 601 700 549 700 q 658 689 632 700 q 705 658 685 678 q 736 613 725 639 q 747 556 747 586 l 747 0 l 594 0 l 594 578 q 561 656 594 656 q 530 644 546 656 q 501 613 514 632 q 481 571 489 594 q 472 522 472 547 l 472 0 l 319 0 l 319 600 q 310 640 319 624 q 286 656 301 656 q 259 641 274 656 q 232 604 244 626 q 212 555 219 582 q 204 503 204 528 l 204 0 l 51 0 l 51 688 l 204 688 l 204 632 l 197 592 l 207 590 q 253 671 225 642 q 328 700 282 700 q 415 667 379 700 q 458 581 451 635 l 468 581 z "},"p":{"ha":535,"x_min":56,"x_max":490,"o":"m 203 613 l 211 610 q 255 679 229 658 q 318 700 281 700 q 384 685 353 700 q 439 642 415 669 q 476 581 463 615 q 490 506 490 546 l 490 194 q 476 115 490 153 q 436 48 461 76 q 378 3 411 19 q 308 -14 346 -14 q 211 64 238 -14 l 203 61 l 208 21 l 208 -233 l 56 -233 l 56 688 l 208 688 l 208 653 l 203 613 m 208 142 q 215 99 208 119 q 231 61 221 78 q 256 35 242 44 q 283 25 269 25 q 319 46 306 25 q 333 99 333 67 l 333 574 q 319 627 333 606 q 282 649 304 649 q 255 639 268 649 q 231 613 242 629 q 215 577 221 597 q 208 536 208 557 l 208 142 z "},"q":{"ha":531,"x_min":44,"x_max":479,"o":"m 326 688 l 479 688 l 479 -233 l 326 -233 l 326 21 l 333 61 l 324 64 q 225 -14 297 -14 q 156 3 189 -14 q 99 48 124 19 q 59 115 74 76 q 44 194 44 153 l 44 506 q 58 581 44 546 q 96 642 72 615 q 151 685 119 669 q 217 700 182 700 q 280 679 254 700 q 324 610 306 658 l 332 613 l 326 653 l 326 688 m 326 536 q 320 577 326 557 q 303 613 314 597 q 280 639 293 629 q 253 649 267 649 q 216 627 231 649 q 201 574 201 606 l 201 99 q 215 46 201 67 q 251 25 229 25 q 280 35 267 25 q 303 61 293 44 q 320 99 314 78 q 326 142 326 119 l 326 536 z "},"r":{"ha":372,"x_min":53,"x_max":363,"o":"m 203 689 l 203 590 l 196 550 l 207 547 q 263 658 219 615 q 363 701 306 701 l 363 572 q 317 574 340 576 q 272 565 293 572 q 232 544 250 557 q 203 515 214 532 l 203 0 l 53 0 l 53 689 l 203 689 z "},"s":{"ha":411,"x_min":28,"x_max":397,"o":"m 351 619 q 256 661 303 661 q 203 642 224 661 q 183 590 183 622 q 208 510 183 554 l 369 232 q 397 146 397 188 q 381 84 397 113 q 338 33 365 56 q 275 -1 311 11 q 197 -14 239 -14 q 106 5 149 -14 q 28 58 63 24 l 50 83 q 115 40 82 56 q 175 25 147 25 q 222 42 204 25 q 239 90 239 60 q 194 214 239 138 l 64 435 q 29 542 29 493 q 44 604 29 575 q 85 655 58 633 q 146 689 111 676 q 219 701 181 701 q 375 643 308 701 l 351 619 z "},"t":{"ha":325,"x_min":1,"x_max":353,"o":"m 193 -12 q 103 30 136 -12 q 71 147 71 72 l 71 654 l 1 654 l 1 688 l 71 688 l 71 846 l 224 896 l 224 688 l 353 688 l 353 654 l 224 654 l 224 119 q 233 64 224 83 q 263 44 243 44 q 326 83 290 44 l 349 60 q 276 8 318 28 q 193 -12 233 -12 z "},"v":{"ha":463,"x_min":18,"x_max":446,"o":"m 261 0 l 214 0 l 18 688 l 178 688 l 285 307 l 292 267 l 301 267 l 308 307 l 410 688 l 446 688 l 261 0 z "},"x":{"ha":517,"x_min":17,"x_max":499,"o":"m 179 688 l 269 492 l 283 454 l 293 454 l 307 492 l 394 688 l 433 688 l 308 410 l 499 0 l 340 0 l 214 271 l 200 308 l 190 308 l 178 271 l 57 0 l 17 0 l 176 353 l 21 688 l 179 688 z "},"z":{"ha":499,"x_min":43,"x_max":469,"o":"m 43 0 l 43 33 l 296 654 l 93 654 l 93 688 l 469 688 l 469 654 l 217 33 l 469 33 l 469 0 l 43 0 z "},"$":{"ha":521,"x_min":58,"x_max":492,"o":"m 181 -4 q 58 49 115 11 l 78 79 q 186 36 129 47 l 240 372 l 106 642 q 69 779 69 714 q 85 863 69 825 q 127 927 100 900 q 192 969 154 954 q 274 985 229 985 q 338 976 307 985 l 354 1076 l 386 1076 l 368 967 q 471 897 432 943 l 446 872 q 408 906 429 892 q 363 928 386 919 l 310 601 l 463 290 q 492 176 492 231 q 474 100 492 135 q 426 40 457 65 q 351 1 394 15 q 258 -14 308 -14 q 211 -10 236 -14 l 194 -119 l 161 -119 l 181 -4 m 331 938 q 310 939 324 939 q 247 911 269 939 q 225 835 225 883 q 260 703 225 776 l 285 651 l 331 938 m 332 128 q 319 202 332 163 q 279 296 307 242 l 265 324 l 218 31 q 238 29 225 29 q 332 128 332 29 z "},"D":{"ha":604,"x_min":69,"x_max":549,"o":"m 69 971 l 319 971 q 413 951 371 971 q 485 896 456 932 q 532 810 515 860 q 549 700 549 761 l 549 268 q 532 162 549 211 q 485 76 515 113 q 415 20 456 40 q 326 0 375 0 l 69 0 l 69 971 m 228 36 l 303 36 q 368 77 346 36 q 390 196 390 118 l 390 778 q 365 894 390 853 q 290 935 339 935 l 228 935 l 228 36 z "},"…":{"ha":803,"x_min":38,"x_max":767,"o":"m 38 79 q 62 141 38 117 q 124 165 86 165 q 185 140 160 165 q 210 79 210 115 q 185 17 210 42 q 124 -8 160 -8 q 62 17 86 -8 q 38 79 38 42 m 315 79 q 340 141 315 117 q 401 165 364 165 q 464 140 439 165 q 489 79 489 115 q 463 17 489 42 q 401 -8 438 -8 q 340 17 364 -8 q 315 79 315 42 m 593 79 q 617 141 593 117 q 679 165 642 165 q 742 140 717 165 q 767 79 767 115 q 742 17 767 42 q 679 -8 717 -8 q 618 17 643 -8 q 593 79 593 42 z "},"!":{"ha":457,"x_min":135,"x_max":325,"o":"m 247 193 l 211 193 l 135 971 l 325 971 l 247 193 m 144 74 q 169 135 144 111 q 231 160 194 160 q 293 135 268 160 q 318 74 318 111 q 293 12 318 38 q 231 -14 268 -14 q 169 11 194 -14 q 144 74 144 36 z "},".":{"ha":247,"x_min":36,"x_max":210,"o":"m 36 74 q 60 135 36 111 q 122 160 85 160 q 185 135 160 160 q 210 74 210 111 q 185 12 210 38 q 122 -14 160 -14 q 61 12 86 -14 q 36 74 36 38 z "},",":{"ha":254,"x_min":36,"x_max":217,"o":"m 163 -3 q 118 -14 136 -14 q 59 10 82 -14 q 36 72 36 35 q 61 135 36 110 q 124 160 86 160 q 192 126 167 160 q 217 35 217 93 q 178 -85 217 -37 q 72 -142 140 -132 l 67 -115 q 144 -74 118 -104 q 163 -3 169 -43 z "},":":{"ha":247,"x_min":36,"x_max":210,"o":"m 36 507 q 60 568 36 543 q 122 593 85 593 q 185 568 160 593 q 210 507 210 543 q 184 444 210 469 q 122 419 158 419 q 60 444 85 419 q 36 507 36 469 m 36 81 q 60 142 36 117 q 122 167 85 167 q 185 142 160 167 q 210 81 210 117 q 184 18 210 43 q 122 -7 158 -7 q 60 18 85 -7 q 36 81 36 43 z "},";":{"ha":254,"x_min":36,"x_max":217,"o":"m 39 507 q 63 568 39 543 q 124 593 88 593 q 186 568 161 593 q 211 507 211 543 q 186 444 211 469 q 124 419 161 419 q 63 444 88 419 q 39 507 39 469 m 163 -3 q 119 -14 138 -14 q 60 10 83 -14 q 36 72 36 35 q 61 135 36 110 q 124 160 86 160 q 192 126 167 160 q 217 35 217 93 q 178 -85 217 -37 q 74 -142 140 -132 l 68 -115 q 144 -74 118 -104 q 163 -3 169 -43 z "},"”":{"ha":496,"x_min":36,"x_max":458,"o":"m 163 821 q 118 810 136 810 q 59 834 82 810 q 36 896 36 858 q 61 958 36 933 q 124 983 86 983 q 192 950 167 983 q 217 858 217 917 q 178 739 217 786 q 72 682 140 692 l 67 708 q 144 750 118 719 q 163 821 169 781 m 404 821 q 360 810 378 810 q 301 834 324 810 q 278 896 278 858 q 303 958 278 933 q 365 983 328 983 q 433 950 408 983 q 458 858 458 917 q 420 739 458 786 q 314 682 382 692 l 308 708 q 385 750 360 719 q 404 821 411 781 z "},"“":{"ha":496,"x_min":36,"x_max":460,"o":"m 92 832 q 135 842 113 842 q 194 818 171 842 q 218 757 218 794 q 193 694 218 718 q 131 669 168 669 q 62 703 88 669 q 36 794 36 736 q 75 913 36 867 q 181 971 114 960 l 186 944 q 110 902 135 932 q 92 832 85 872 m 333 832 q 376 842 354 842 q 436 818 413 842 q 460 757 460 794 q 435 694 460 718 q 372 669 410 669 q 303 703 329 669 q 278 794 278 736 q 317 913 278 867 q 422 971 356 960 l 428 944 q 351 902 376 932 q 333 832 326 872 z "},"’":{"ha":254,"x_min":36,"x_max":218,"o":"m 163 821 q 119 811 142 811 q 60 835 83 811 q 36 896 36 858 q 61 959 36 935 q 124 983 86 983 q 192 950 167 983 q 218 858 218 917 q 179 740 218 786 q 74 682 140 693 l 68 708 q 144 750 118 719 q 163 821 169 781 z "},"‘":{"ha":254,"x_min":36,"x_max":218,"o":"m 92 832 q 135 842 113 842 q 194 818 171 842 q 218 757 218 794 q 193 694 218 718 q 131 669 168 669 q 62 703 88 669 q 36 794 36 736 q 75 913 36 867 q 181 971 114 960 l 186 944 q 110 902 135 932 q 92 832 85 872 z "},"?":{"ha":575,"x_min":76,"x_max":501,"o":"m 76 900 q 162 963 108 940 q 278 985 215 985 q 440 924 379 985 q 501 764 501 864 q 485 670 501 717 q 435 575 469 624 q 347 474 401 526 q 215 360 293 421 l 215 193 l 179 193 l 179 472 q 259 553 228 517 q 310 624 290 590 q 337 694 329 658 q 344 772 344 731 q 239 940 344 940 q 167 923 203 940 q 103 876 131 906 l 76 900 m 111 74 q 135 135 111 111 q 197 160 160 160 q 260 135 235 160 q 285 74 285 111 q 260 12 285 38 q 197 -14 235 -14 q 136 11 161 -14 q 111 74 111 36 z "},"|":{"ha":111,"x_min":38,"x_max":74,"o":"m 38 1042 l 74 1042 l 74 -124 l 38 -124 l 38 1042 z "},"/":{"ha":371,"x_min":38,"x_max":332,"o":"m 294 1042 l 332 1042 l 75 -124 l 38 -124 l 294 1042 z "},"\\":{"ha":371,"x_min":38,"x_max":333,"o":"m 294 -124 l 38 1042 l 76 1042 l 333 -124 l 294 -124 z "},"⁄":{"ha":371,"x_min":38,"x_max":332,"o":"m 294 1042 l 332 1042 l 75 -124 l 38 -124 l 294 1042 z "},"<":{"ha":464,"x_min":38,"x_max":425,"o":"m 425 263 l 38 417 l 38 453 l 425 607 l 425 565 l 107 438 l 107 435 l 425 303 l 425 263 z "},">":{"ha":464,"x_min":38,"x_max":425,"o":"m 38 607 l 425 453 l 425 417 l 38 263 l 38 304 l 356 432 l 356 435 l 38 567 l 38 607 z "},"%":{"ha":999,"x_min":38,"x_max":961,"o":"m 38 694 l 38 765 q 55 848 38 810 q 103 915 72 886 q 174 961 133 944 q 261 978 215 978 q 348 961 307 978 q 419 916 389 944 q 466 849 449 888 q 483 765 483 810 l 483 694 q 466 613 483 651 q 419 545 449 574 q 349 500 389 517 q 264 483 310 483 q 177 500 218 483 q 105 546 136 517 q 56 613 74 575 q 38 694 38 651 m 300 0 l 654 969 l 697 969 l 343 0 l 300 0 m 194 860 l 194 600 q 214 540 194 564 q 263 517 233 517 q 309 540 292 517 q 326 600 326 563 l 326 860 q 308 920 326 896 q 261 944 289 944 q 213 920 232 944 q 194 860 194 896 m 515 204 l 515 276 q 533 358 515 319 q 580 426 550 397 q 650 472 610 456 q 735 489 690 489 q 822 472 781 489 q 894 425 863 454 q 943 358 925 396 q 961 276 961 319 l 961 204 q 944 123 961 161 q 897 56 926 85 q 827 10 867 26 q 742 -7 788 -7 q 655 10 696 -7 q 583 56 614 26 q 533 123 551 85 q 515 204 515 161 m 672 369 l 672 111 q 692 51 672 75 q 740 28 711 28 q 787 51 769 28 q 804 111 804 74 l 804 369 q 785 430 804 406 q 739 454 767 454 q 691 430 710 454 q 672 369 672 406 z "},"‰":{"ha":1506,"x_min":38,"x_max":1468,"o":"m 38 694 l 38 765 q 55 848 38 810 q 102 915 72 886 q 172 961 132 944 q 257 978 213 978 q 344 960 303 978 q 416 914 385 943 q 465 847 447 885 q 483 765 483 808 l 483 694 q 466 613 483 651 q 419 545 449 574 q 349 500 389 517 q 264 483 310 483 q 177 500 218 483 q 105 546 136 517 q 56 613 74 575 q 38 694 38 651 m 301 0 l 656 969 l 694 969 l 340 0 l 301 0 m 194 860 l 194 600 q 214 540 194 564 q 263 517 233 517 q 309 540 292 517 q 326 600 326 563 l 326 860 q 308 920 326 896 q 261 944 289 944 q 213 920 232 944 q 194 860 194 896 m 521 204 l 521 276 q 538 358 521 319 q 585 425 556 396 q 656 471 615 454 q 740 488 696 488 q 827 471 786 488 q 899 425 868 454 q 949 358 931 396 q 967 276 967 319 l 967 204 q 949 122 967 161 q 902 55 932 83 q 833 10 872 26 q 747 -7 793 -7 q 660 10 701 -7 q 588 56 619 26 q 539 123 557 85 q 521 204 521 161 m 1022 204 l 1022 276 q 1040 358 1022 319 q 1087 425 1057 396 q 1157 471 1117 454 q 1242 488 1197 488 q 1328 471 1288 488 q 1401 425 1369 454 q 1450 358 1432 396 q 1468 276 1468 319 l 1468 204 q 1451 122 1468 161 q 1403 55 1433 83 q 1334 10 1374 26 q 1249 -7 1294 -7 q 1162 10 1203 -7 q 1090 56 1121 26 q 1040 123 1058 85 q 1022 204 1022 161 m 678 369 l 678 111 q 697 51 678 75 q 746 26 717 26 q 792 49 775 26 q 810 111 810 72 l 810 369 q 791 429 810 404 q 744 454 772 454 q 697 429 717 454 q 678 369 678 404 m 1179 369 l 1179 111 q 1199 51 1179 75 q 1247 26 1218 26 q 1294 49 1276 26 q 1311 111 1311 72 l 1311 369 q 1292 429 1311 404 q 1246 454 1274 454 q 1199 429 1218 454 q 1179 369 1179 404 z "},"^":{"ha":414,"x_min":38,"x_max":376,"o":"m 356 515 l 211 925 l 206 925 l 58 515 l 38 515 l 201 971 l 215 971 l 376 515 l 356 515 z "},"*":{"ha":350,"x_min":38,"x_max":313,"o":"m 38 879 l 78 938 l 168 846 l 140 971 l 211 971 l 183 846 l 272 939 l 313 879 l 192 832 l 313 783 l 274 724 l 182 817 l 211 690 l 140 690 l 168 817 l 78 724 l 38 783 l 160 832 l 38 879 z "},"#":{"ha":471,"x_min":38,"x_max":433,"o":"m 40 371 l 117 371 l 140 633 l 61 633 l 65 664 l 143 664 l 169 971 l 203 971 l 175 664 l 321 664 l 347 971 l 381 971 l 353 664 l 433 664 l 429 633 l 350 633 l 326 371 l 410 371 l 406 340 l 325 340 l 293 0 l 261 0 l 292 340 l 147 340 l 115 0 l 83 0 l 114 340 l 38 340 l 40 371 m 294 371 l 318 633 l 172 633 l 149 371 l 294 371 z "},"[":{"ha":308,"x_min":38,"x_max":271,"o":"m 38 -71 l 38 1063 l 271 1063 l 271 1026 l 200 1026 l 200 -35 l 271 -35 l 271 -71 l 38 -71 z "},"]":{"ha":308,"x_min":38,"x_max":271,"o":"m 271 1062 l 271 -71 l 38 -71 l 38 -35 l 108 -35 l 108 1026 l 38 1026 l 38 1062 l 271 1062 z "},"(":{"ha":375,"x_min":38,"x_max":338,"o":"m 324 1063 l 338 1063 q 201 496 201 819 q 338 -71 201 172 l 324 -71 q 204 37 257 -25 q 114 172 151 99 q 57 326 76 244 q 38 492 38 407 q 57 658 38 576 q 114 813 76 739 q 204 951 151 888 q 324 1063 257 1014 z "},")":{"ha":375,"x_min":38,"x_max":338,"o":"m 51 -71 l 38 -71 q 174 496 174 172 q 38 1062 174 819 l 51 1062 q 171 955 118 1017 q 261 820 224 893 q 318 666 299 747 q 338 500 338 585 q 318 334 338 415 q 261 179 299 253 q 171 41 224 104 q 51 -71 118 -22 z "},"{":{"ha":458,"x_min":38,"x_max":419,"o":"m 60 514 q 146 596 146 514 l 146 869 q 182 1019 146 975 q 306 1063 218 1063 l 419 1063 l 419 1026 l 415 1026 q 308 922 308 1026 l 308 679 q 86 497 308 497 l 86 494 q 308 313 308 494 l 308 69 q 415 -35 308 -35 l 419 -35 l 419 -71 l 306 -71 q 182 -27 218 -71 q 146 122 146 17 l 146 396 q 125 459 146 440 q 60 478 104 478 l 38 478 l 38 514 l 60 514 z "},"}":{"ha":458,"x_min":39,"x_max":421,"o":"m 399 478 q 313 396 313 478 l 313 122 q 276 -27 313 17 q 153 -71 240 -71 l 39 -71 l 39 -35 l 43 -35 q 150 70 150 -35 l 150 313 q 372 494 150 494 l 372 497 q 150 679 150 497 l 150 922 q 43 1026 150 1026 l 39 1026 l 39 1062 l 153 1062 q 276 1019 240 1062 q 313 869 313 975 l 313 596 q 333 533 313 551 q 399 514 354 514 l 421 514 l 421 478 l 399 478 z "},"&":{"ha":603,"x_min":38,"x_max":635,"o":"m 38 231 l 38 244 q 84 408 38 344 q 214 485 131 472 l 247 490 l 247 499 l 214 503 q 101 563 140 511 q 63 706 63 615 l 63 732 q 81 828 63 783 q 133 907 100 874 q 213 960 167 940 q 313 979 258 979 q 428 942 381 979 q 514 815 475 904 l 371 793 q 296 943 364 943 q 244 910 264 943 q 225 824 225 878 l 225 672 q 227 602 225 632 q 239 552 229 572 q 267 522 249 532 q 315 513 285 513 l 407 513 l 407 646 l 557 646 l 557 513 l 635 513 l 635 476 l 557 476 l 557 74 q 444 14 513 36 q 303 -8 376 -8 q 109 56 181 -8 q 38 231 38 119 m 213 158 q 308 28 213 28 q 377 47 347 28 q 407 94 407 67 l 407 476 l 315 476 q 265 468 285 476 q 234 438 246 460 q 217 381 222 417 q 213 290 213 344 l 213 158 z "},"˜":{"ha":353,"x_min":38,"x_max":315,"o":"m 56 822 l 38 833 q 139 919 79 919 q 179 910 161 919 l 218 893 q 253 883 239 883 q 296 919 279 883 l 315 910 q 215 821 276 821 q 192 824 204 821 q 169 832 181 828 l 142 844 q 104 856 118 856 q 56 822 75 856 z "},"+":{"ha":515,"x_min":38,"x_max":478,"o":"m 38 415 l 38 451 l 239 451 l 239 664 l 276 664 l 276 451 l 478 451 l 478 415 l 276 415 l 276 203 l 239 203 l 239 415 l 38 415 z "},"-":{"ha":393,"x_min":38,"x_max":356,"o":"m 356 451 l 356 415 l 38 415 l 38 451 l 356 451 z "},"–":{"ha":638,"x_min":38,"x_max":606,"o":"m 606 451 l 606 415 l 38 415 l 38 451 l 606 451 z "},"—":{"ha":900,"x_min":39,"x_max":872,"o":"m 872 451 l 872 415 l 39 415 l 39 451 l 872 451 z "},"_":{"ha":488,"x_min":39,"x_max":450,"o":"m 450 38 l 450 0 l 39 0 l 39 38 l 450 38 z "},"=":{"ha":513,"x_min":38,"x_max":475,"o":"m 475 538 l 475 501 l 38 501 l 38 538 l 475 538 m 475 361 l 475 325 l 38 325 l 38 361 l 475 361 z "},"•":{"ha":382,"x_min":38,"x_max":343,"o":"m 192 278 q 132 290 160 278 q 83 324 104 303 q 50 374 63 346 q 38 435 38 403 q 49 494 38 467 q 82 540 61 521 q 131 572 103 560 q 189 583 158 583 q 249 571 221 583 q 297 538 276 558 q 331 489 318 517 q 343 429 343 461 q 331 371 343 399 q 299 322 319 343 q 250 290 278 301 q 192 278 222 278 z "},"¡":{"ha":376,"x_min":75,"x_max":264,"o":"m 85 614 q 109 676 85 651 q 169 701 133 701 q 232 676 207 701 q 257 614 257 650 q 232 552 257 576 q 171 528 207 528 q 109 552 133 528 q 85 614 85 576 m 185 496 l 264 -237 l 75 -237 l 153 496 l 185 496 z "},"†":{"ha":538,"x_min":38,"x_max":501,"o":"m 293 747 l 501 747 l 501 711 l 293 711 l 285 -229 l 256 -229 l 246 711 l 38 711 l 38 747 l 246 747 l 243 971 l 296 971 l 293 747 z "},"‡":{"ha":538,"x_min":38,"x_max":500,"o":"m 290 747 l 500 747 l 500 711 l 290 711 l 285 369 l 290 32 l 500 32 l 500 -4 l 290 -4 l 294 -229 l 243 -229 l 247 -4 l 38 -4 l 38 32 l 247 32 l 254 369 l 247 711 l 38 711 l 38 747 l 247 747 l 243 971 l 294 971 l 290 747 z "},"ˆ":{"ha":357,"x_min":38,"x_max":319,"o":"m 169 947 l 189 947 l 319 790 l 289 790 l 178 858 l 68 790 l 38 790 l 169 947 z "},"°":{"ha":325,"x_min":38,"x_max":288,"o":"m 163 597 q 74 634 111 597 q 38 722 38 671 q 74 810 38 774 q 163 847 111 847 q 251 810 214 847 q 288 722 288 774 q 251 634 288 671 q 163 597 215 597 m 163 817 q 95 789 122 817 q 68 722 68 761 q 95 655 68 682 q 163 628 122 628 q 230 655 203 628 q 257 722 257 682 q 230 789 257 761 q 163 817 203 817 z "},"'":{"ha":194,"x_min":38,"x_max":156,"o":"m 38 971 l 156 971 l 111 694 l 83 694 l 38 971 z "},"\"":{"ha":365,"x_min":38,"x_max":326,"o":"m 38 971 l 156 971 l 111 694 l 83 694 l 38 971 m 208 971 l 326 971 l 282 694 l 254 694 l 208 971 z "},"‚":{"ha":254,"x_min":36,"x_max":217,"o":"m 163 -3 q 118 -14 136 -14 q 59 10 82 -14 q 36 72 36 35 q 61 135 36 110 q 124 160 86 160 q 192 126 167 160 q 217 35 217 93 q 178 -85 217 -37 q 72 -142 140 -132 l 67 -115 q 144 -74 118 -104 q 163 -3 169 -43 z "},"„":{"ha":496,"x_min":36,"x_max":458,"o":"m 163 -3 q 118 -14 136 -14 q 59 10 82 -14 q 36 72 36 35 q 61 135 36 110 q 124 160 86 160 q 192 126 167 160 q 217 35 217 93 q 178 -85 217 -37 q 72 -142 140 -132 l 67 -115 q 144 -74 118 -104 q 163 -3 169 -43 m 404 -3 q 360 -14 378 -14 q 301 10 324 -14 q 278 72 278 35 q 303 135 278 110 q 365 160 328 160 q 433 126 408 160 q 458 35 458 93 q 420 -85 458 -37 q 314 -142 382 -132 l 308 -115 q 385 -74 360 -104 q 404 -3 411 -43 z "},"~":{"ha":529,"x_min":38,"x_max":493,"o":"m 38 306 q 182 446 85 446 q 282 424 219 446 l 296 418 q 353 399 332 404 q 392 394 375 394 q 469 453 447 394 l 493 446 q 363 299 458 299 q 319 304 343 299 q 257 324 294 310 q 191 345 217 339 q 146 351 165 351 q 58 297 88 351 l 38 306 z "},"´":{"ha":232,"x_min":39,"x_max":194,"o":"m 39 790 l 81 949 l 194 949 l 65 790 l 39 790 z "},"`":{"ha":232,"x_min":38,"x_max":193,"o":"m 167 790 l 38 949 l 151 949 l 193 790 l 167 790 z "},"ˇ":{"ha":357,"x_min":38,"x_max":319,"o":"m 68 947 l 178 879 l 289 947 l 319 947 l 189 790 l 169 790 l 38 947 l 68 947 z "},"˘":{"ha":318,"x_min":38,"x_max":279,"o":"m 258 929 l 279 929 q 245 833 279 871 q 158 794 211 794 q 72 833 106 794 q 38 929 38 871 l 58 929 q 87 878 58 897 q 160 860 115 860 q 231 878 203 860 q 258 929 258 897 z "},"˝":{"ha":378,"x_min":40,"x_max":340,"o":"m 196 790 l 238 949 l 340 949 l 222 790 l 196 790 m 40 790 l 83 949 l 186 949 l 68 790 l 40 790 z "},"˙":{"ha":196,"x_min":36,"x_max":160,"o":"m 36 865 q 53 908 36 892 q 97 925 71 925 q 142 908 125 925 q 160 865 160 890 q 142 822 160 839 q 97 804 125 804 q 53 822 71 804 q 36 865 36 839 z "},"˛":{"ha":261,"x_min":36,"x_max":225,"o":"m 225 -112 q 181 -175 208 -153 q 119 -197 153 -197 q 60 -175 85 -197 q 36 -121 36 -153 q 63 -58 36 -89 q 139 1 90 -26 l 161 1 q 116 -42 132 -17 q 100 -92 100 -67 q 114 -135 100 -118 q 147 -153 128 -153 q 206 -103 183 -153 l 225 -112 z "},"¸":{"ha":285,"x_min":38,"x_max":247,"o":"m 53 -126 q 88 -150 65 -140 q 131 -160 110 -160 q 171 -124 171 -160 q 90 -69 171 -78 l 119 0 l 140 0 l 124 -46 q 212 -70 176 -49 q 247 -126 247 -92 q 222 -173 247 -156 q 156 -190 197 -190 q 88 -178 119 -190 q 38 -142 57 -165 l 53 -126 z "},"B":{"ha":583,"x_min":65,"x_max":551,"o":"m 531 719 q 485 570 531 625 q 374 507 439 515 l 353 504 l 353 496 l 374 492 q 442 467 410 486 q 499 417 475 447 q 538 348 524 386 q 551 268 551 310 l 551 231 q 537 148 551 189 q 494 74 522 107 q 426 20 467 40 q 336 0 386 0 l 65 0 l 65 971 l 315 971 q 399 954 360 971 q 468 908 439 938 q 514 839 497 879 q 531 751 531 799 l 531 719 m 294 518 q 353 556 339 518 q 368 689 368 594 l 368 768 q 354 898 368 861 q 293 935 340 935 l 228 935 l 228 518 l 294 518 m 389 307 q 364 441 389 400 q 294 482 339 482 l 228 482 l 228 36 l 307 36 q 372 74 354 36 q 389 204 389 113 l 389 307 z "},"C":{"ha":554,"x_min":58,"x_max":553,"o":"m 58 701 q 76 819 58 767 q 128 908 94 871 q 210 965 163 944 q 317 985 258 985 q 521 899 443 985 l 494 874 q 343 942 426 942 q 253 906 283 942 q 222 800 222 869 l 222 178 q 342 29 222 29 q 448 60 400 29 q 519 144 496 92 l 553 129 q 465 24 525 61 q 321 -14 404 -14 q 128 65 199 -14 q 58 281 58 144 l 58 701 z "},"A":{"ha":476,"x_min":-11,"x_max":486,"o":"m 174 971 l 244 971 l 486 0 l 319 0 l 247 289 l 83 289 l 28 0 l -11 0 l 174 971 m 143 606 l 89 325 l 239 325 l 169 606 l 160 661 l 150 661 l 143 606 z "},"±":{"ha":515,"x_min":38,"x_max":478,"o":"m 38 513 l 239 513 l 239 725 l 276 725 l 276 513 l 478 513 l 478 476 l 276 476 l 276 264 l 239 264 l 239 476 l 38 476 l 38 513 m 478 203 l 478 167 l 38 167 l 38 203 l 478 203 z "},"·":{"ha":206,"x_min":35,"x_max":175,"o":"m 35 453 q 54 503 35 483 q 104 522 74 522 q 155 503 135 522 q 175 453 175 483 q 155 402 175 422 q 104 382 135 382 q 54 402 74 382 q 35 453 35 422 z "},"¯":{"ha":332,"x_min":36,"x_max":294,"o":"m 294 847 l 36 847 l 36 883 l 294 883 l 294 847 z "},"F":{"ha":468,"x_min":65,"x_max":436,"o":"m 228 935 l 228 500 l 407 500 l 407 464 l 228 464 l 228 0 l 65 0 l 65 971 l 436 971 l 436 935 l 228 935 z "},"G":{"ha":619,"x_min":60,"x_max":565,"o":"m 60 703 q 130 908 60 833 q 325 983 200 983 q 443 962 389 983 q 535 899 497 940 l 510 874 q 440 922 481 904 q 356 939 399 939 q 253 902 290 939 q 217 800 217 865 l 217 168 q 346 25 217 25 q 419 36 382 25 l 419 454 l 308 454 l 308 490 l 565 490 l 565 46 q 515 22 544 33 q 455 3 486 11 q 391 -8 424 -4 q 329 -12 358 -12 q 131 66 201 -12 q 60 279 60 144 l 60 703 z "},"¿":{"ha":575,"x_min":74,"x_max":500,"o":"m 465 613 q 441 551 465 576 q 379 526 417 526 q 317 551 342 526 q 292 613 292 576 q 317 675 292 650 q 379 700 342 700 q 440 675 415 700 q 465 613 465 650 m 500 -151 q 415 -212 468 -190 q 299 -235 361 -235 q 135 -175 196 -235 q 74 -15 74 -115 q 90 79 74 33 q 140 174 106 125 q 228 276 174 222 q 361 390 283 329 l 361 494 l 397 494 l 397 278 q 317 197 349 233 q 265 126 285 160 q 238 56 246 92 q 231 -22 231 19 q 338 -190 231 -190 q 410 -173 374 -190 q 474 -126 446 -156 l 500 -151 z "},"¶":{"ha":524,"x_min":38,"x_max":486,"o":"m 232 971 l 268 971 l 268 -42 l 232 -42 l 232 558 q 92 615 147 558 q 38 765 38 671 q 52 849 38 811 q 92 915 67 888 q 154 956 118 942 q 232 971 190 971 m 450 971 l 486 971 l 486 -42 l 450 -42 l 450 971 z "},"¬":{"ha":699,"x_min":38,"x_max":661,"o":"m 661 303 l 596 303 l 596 468 l 38 468 l 38 532 l 661 532 l 661 303 z "},"©":{"ha":956,"x_min":38,"x_max":918,"o":"m 38 478 q 72 672 38 582 q 165 828 106 761 q 306 933 225 894 q 478 971 386 971 q 650 933 569 971 q 790 828 731 894 q 884 672 850 761 q 918 478 918 582 q 884 284 918 374 q 790 128 850 194 q 650 23 731 61 q 478 -15 569 -15 q 306 23 386 -15 q 165 128 225 61 q 72 284 106 194 q 38 478 38 374 m 71 478 q 102 297 71 381 q 189 150 133 213 q 319 52 244 88 q 478 17 393 17 q 638 52 564 17 q 767 150 713 88 q 853 297 822 213 q 885 478 885 381 q 853 660 885 575 q 767 807 822 744 q 638 905 713 869 q 478 940 564 940 q 319 905 393 940 q 189 807 244 869 q 102 660 133 744 q 71 478 71 575 m 264 550 q 281 640 264 599 q 327 711 297 681 q 397 758 357 742 q 485 775 438 775 q 583 756 536 775 q 661 703 629 738 l 638 679 q 578 722 614 706 q 508 738 542 738 q 444 713 468 738 q 421 643 421 688 l 421 322 q 448 247 421 275 q 521 218 475 218 q 606 245 565 218 q 665 313 647 272 l 696 297 q 616 212 669 243 q 493 181 563 181 q 401 197 443 181 q 328 244 358 214 q 281 315 299 274 q 264 406 264 357 l 264 550 z "},"®":{"ha":460,"x_min":38,"x_max":422,"o":"m 231 607 q 155 623 190 607 q 94 666 119 639 q 53 731 68 693 q 38 810 38 768 q 53 888 38 851 q 94 953 68 925 q 155 997 119 981 q 231 1013 190 1013 q 304 997 269 1013 q 365 953 339 981 q 407 888 392 925 q 422 810 422 851 q 407 731 422 768 q 366 667 392 694 q 306 623 340 639 q 231 607 271 607 m 231 632 q 296 646 265 632 q 349 684 326 660 q 385 740 372 708 q 399 810 399 772 q 385 878 399 846 q 348 935 371 911 q 294 974 325 960 q 231 988 264 988 q 165 974 196 988 q 110 935 133 960 q 74 879 88 911 q 61 810 61 847 q 74 740 61 772 q 110 684 88 708 q 165 646 133 660 q 231 632 196 632 m 240 921 q 283 906 265 921 q 300 869 300 892 l 300 858 q 283 824 300 839 q 243 810 267 810 l 243 807 q 263 802 246 807 q 288 774 281 797 l 308 697 l 261 697 l 240 778 q 218 799 235 799 l 213 799 l 213 697 l 165 697 l 165 921 l 240 921 m 213 821 l 236 821 q 254 851 254 821 l 254 872 q 233 900 254 900 l 213 900 l 213 821 z "},"¢":{"ha":458,"x_min":44,"x_max":475,"o":"m 338 746 l 369 746 l 360 682 q 442 629 408 664 l 417 606 q 390 630 406 619 q 356 649 374 640 l 268 29 q 300 25 283 25 q 385 51 344 25 q 446 117 426 76 l 475 103 q 397 17 450 49 q 274 -14 343 -14 q 267 -13 271 -14 q 261 -12 264 -12 l 254 -67 l 222 -67 l 231 -10 q 96 64 147 4 q 44 211 44 124 l 44 476 q 61 566 44 525 q 107 637 78 607 q 176 683 136 667 q 264 700 217 700 q 329 692 299 700 l 338 746 m 325 658 q 306 663 315 661 q 289 664 297 664 q 224 639 247 664 q 201 569 201 614 l 201 129 q 239 44 201 74 l 325 658 z "},"÷":{"ha":582,"x_min":38,"x_max":544,"o":"m 206 613 q 230 674 206 650 q 292 699 254 699 q 354 674 329 699 q 379 613 379 649 q 354 550 379 575 q 292 525 329 525 q 231 550 256 525 q 206 613 206 575 m 544 415 l 38 415 l 38 451 l 544 451 l 544 415 m 206 254 q 230 316 206 292 q 292 340 254 340 q 354 316 329 340 q 379 254 379 292 q 354 193 379 218 q 292 168 329 168 q 231 193 256 168 q 206 254 206 218 z "},"¤":{"ha":503,"x_min":38,"x_max":465,"o":"m 465 300 l 446 279 l 386 339 q 251 289 328 289 q 117 339 175 289 l 57 279 l 38 300 l 97 358 q 46 494 46 417 q 96 629 46 571 l 38 688 l 57 707 l 117 649 q 251 699 175 699 q 386 647 328 699 l 446 707 l 465 688 l 406 628 q 456 494 456 569 q 406 360 456 418 l 465 300 m 74 494 q 88 425 74 457 q 126 369 101 393 q 182 331 150 344 q 251 317 214 317 q 320 331 288 317 q 376 369 353 344 q 414 425 400 393 q 428 494 428 457 q 414 563 428 531 q 376 619 400 596 q 320 657 353 643 q 251 671 288 671 q 182 657 214 671 q 126 619 150 643 q 88 563 101 596 q 74 494 74 531 z "},"£":{"ha":604,"x_min":38,"x_max":567,"o":"m 149 544 l 149 750 q 206 922 149 860 q 367 983 264 983 q 478 965 424 983 q 567 917 532 947 l 546 886 q 480 923 515 910 q 413 936 444 936 q 338 905 364 936 q 311 815 311 874 l 311 544 l 476 544 l 476 508 l 311 508 l 311 435 q 268 228 311 322 q 133 40 225 135 l 133 36 l 540 36 l 540 0 l 86 0 l 86 15 q 119 74 107 44 q 138 145 131 104 q 147 244 144 186 q 149 386 149 301 l 149 508 l 38 508 l 38 544 l 149 544 z "},"×":{"ha":447,"x_min":38,"x_max":410,"o":"m 382 618 l 408 592 l 250 433 l 410 274 l 383 247 l 224 407 l 64 247 l 38 274 l 197 433 l 38 592 l 64 618 l 224 460 l 382 618 z "},"¦":{"ha":111,"x_min":38,"x_max":74,"o":"m 74 1013 l 74 567 l 38 567 l 38 1013 l 74 1013 m 38 -42 l 38 407 l 74 407 l 74 -42 l 38 -42 z "},"ª":{"ha":339,"x_min":42,"x_max":304,"o":"m 42 633 l 42 675 q 83 756 42 726 q 211 799 124 786 l 211 897 q 197 940 211 925 q 158 956 183 956 q 114 945 136 956 q 78 919 92 935 l 61 933 q 109 965 76 953 q 175 978 142 978 q 267 944 231 978 q 304 861 304 911 l 304 550 l 211 550 l 211 575 l 215 596 l 210 597 q 170 558 194 572 q 121 543 146 543 q 65 569 88 543 q 42 633 42 594 m 211 621 l 211 786 q 151 757 168 775 q 135 697 135 739 l 135 632 q 142 599 135 611 q 164 586 150 586 q 189 596 176 586 q 211 621 201 606 z "},"º":{"ha":342,"x_min":38,"x_max":304,"o":"m 169 979 q 222 969 197 979 q 264 941 246 958 q 293 901 282 924 q 304 853 304 878 l 304 678 q 294 630 304 653 q 266 590 283 607 q 225 562 249 572 q 174 551 201 551 q 122 562 147 551 q 78 590 97 572 q 49 630 60 607 q 38 678 38 653 l 38 853 q 48 901 38 878 q 76 941 58 924 q 119 969 94 958 q 169 979 143 979 m 172 957 q 144 942 156 957 q 132 907 132 928 l 132 624 q 143 588 132 603 q 172 574 154 574 q 200 588 189 574 q 211 624 211 601 l 211 907 q 200 943 211 929 q 172 957 189 957 z "},"ß":{"ha":582,"x_min":65,"x_max":550,"o":"m 228 0 l 65 0 l 65 786 q 83 865 65 829 q 131 928 100 901 q 206 969 163 954 q 299 983 249 983 q 391 969 349 983 q 465 928 433 954 q 513 865 496 901 q 531 786 531 829 l 531 772 q 519 701 531 735 q 485 640 507 667 q 435 597 464 614 q 374 575 407 579 l 351 572 l 353 564 l 374 561 q 444 534 413 556 q 500 480 476 513 q 537 405 524 447 q 550 314 550 363 l 550 293 q 490 78 550 157 q 325 0 429 0 l 272 0 l 272 36 l 310 36 q 388 210 388 36 l 388 397 q 364 509 388 468 q 300 550 340 550 l 272 550 l 272 586 l 294 586 q 368 743 368 586 l 368 790 q 351 908 368 871 q 299 946 335 946 q 245 908 263 946 q 228 790 228 871 l 228 0 z "},"−":{"ha":514,"x_min":38,"x_max":476,"o":"m 476 451 l 476 415 l 38 415 l 38 451 l 476 451 z "},"V":{"ha":464,"x_min":-11,"x_max":475,"o":"m 290 372 l 299 317 l 308 317 l 317 372 l 436 969 l 475 969 l 279 -1 l 208 -1 l -11 969 l 156 969 l 290 372 z "},"P":{"ha":578,"x_min":65,"x_max":546,"o":"m 313 971 q 406 952 363 971 q 480 901 449 933 q 528 827 511 869 q 546 738 546 785 l 546 686 q 528 597 546 639 q 481 522 511 554 q 408 472 450 490 q 315 453 365 453 l 228 453 l 228 0 l 65 0 l 65 971 l 313 971 m 383 756 q 363 892 383 850 q 296 935 342 935 l 228 935 l 228 489 l 303 489 q 365 532 347 489 q 383 668 383 575 l 383 756 z "},"b":{"ha":531,"x_min":51,"x_max":485,"o":"m 204 1 l 51 1 l 51 971 l 204 971 l 204 667 l 197 626 l 207 624 q 244 683 221 665 q 303 701 267 701 q 372 685 339 701 q 431 640 406 668 q 470 573 456 611 q 485 493 485 535 l 485 182 q 471 108 485 143 q 433 45 457 72 q 379 3 410 18 q 314 -12 349 -12 q 251 8 276 -12 q 207 78 225 29 l 197 75 l 204 35 l 204 1 m 204 151 q 210 110 204 131 q 227 74 217 90 q 250 49 238 58 q 276 39 263 39 q 313 61 299 39 q 328 115 328 83 l 328 589 q 314 642 328 621 q 278 663 300 663 q 251 653 264 663 q 227 626 238 643 q 210 589 217 610 q 204 546 204 568 l 204 151 z "},"g":{"ha":524,"x_min":28,"x_max":532,"o":"m 253 -243 q 160 -230 201 -243 q 89 -193 118 -217 q 44 -135 60 -169 q 29 -61 28 -101 l 114 -61 q 152 -169 111 -128 q 263 -210 193 -210 q 324 -201 294 -210 q 375 -176 353 -192 q 410 -141 397 -161 q 424 -99 424 -121 q 402 -49 424 -68 q 349 -29 381 -29 l 176 -29 q 77 2 114 -29 q 40 86 40 33 q 67 170 40 131 q 142 240 93 210 q 73 315 97 269 q 49 417 49 361 l 49 507 q 65 583 49 547 q 108 644 81 618 q 174 686 136 671 q 253 701 211 701 q 338 685 296 701 q 413 640 381 669 q 451 694 424 675 q 518 714 479 714 l 518 622 q 491 628 504 625 q 465 631 478 631 q 431 621 446 631 q 471 514 471 574 l 471 410 q 456 327 471 365 q 413 262 440 289 q 349 219 386 235 q 267 204 311 204 q 167 228 211 204 q 114 165 114 201 q 201 126 114 126 l 400 126 q 495 85 458 126 q 532 -21 532 43 q 510 -108 532 -68 q 451 -178 489 -149 q 363 -226 414 -208 q 253 -243 311 -243 m 206 306 q 222 258 206 278 q 261 239 238 239 q 299 258 285 239 q 314 306 314 276 l 314 600 q 298 648 314 629 q 258 667 282 667 q 220 648 235 667 q 206 600 206 629 l 206 306 z "},"˚":{"ha":235,"x_min":36,"x_max":199,"o":"m 36 874 q 59 931 36 908 q 118 954 82 954 q 176 931 153 954 q 199 874 199 908 q 176 816 199 839 q 118 793 153 793 q 59 816 82 793 q 36 874 36 839 m 64 874 q 79 836 64 851 q 118 821 94 821 q 156 836 140 821 q 171 874 171 851 q 156 912 171 897 q 118 926 140 926 q 79 912 94 926 q 64 874 64 897 z "},"¨":{"ha":378,"x_min":38,"x_max":356,"o":"m 38 865 q 55 909 38 892 q 100 926 72 926 q 147 909 128 926 q 165 865 165 892 q 147 820 165 838 q 100 803 128 803 q 55 820 72 803 q 38 865 38 838 m 228 865 q 246 909 228 892 q 292 926 264 926 q 338 910 319 926 q 356 865 356 893 q 338 820 356 838 q 292 803 319 803 q 246 820 264 803 q 228 865 228 838 z "},"ð":{"ha":532,"x_min":44,"x_max":494,"o":"m 214 971 q 307 932 264 958 q 385 869 350 906 l 482 906 l 494 874 l 408 843 q 460 745 442 799 q 479 633 479 692 l 479 199 q 463 117 479 156 q 417 49 446 78 q 349 4 388 21 q 265 -12 310 -12 q 180 4 219 -12 q 110 50 140 21 q 62 117 79 79 q 44 199 44 156 l 44 493 q 59 573 44 535 q 99 640 74 611 q 158 685 125 668 q 229 701 192 701 q 288 683 265 701 q 325 624 310 665 l 333 626 l 326 667 q 323 744 326 708 q 311 808 319 779 l 219 775 l 207 807 l 301 840 q 204 939 269 917 l 214 971 m 251 663 q 215 642 229 663 q 201 590 201 622 l 201 106 q 218 44 201 67 q 263 21 235 21 q 309 44 292 21 q 326 106 326 68 l 326 547 q 320 590 326 569 q 303 627 314 611 q 280 653 293 643 q 251 663 267 663 z "},"R":{"ha":619,"x_min":65,"x_max":575,"o":"m 313 971 q 406 952 363 971 q 480 901 449 933 q 528 827 511 869 q 546 738 546 785 l 546 715 q 531 630 546 669 q 488 559 515 590 q 422 508 460 528 q 338 485 383 489 l 338 475 q 393 462 367 474 q 442 431 419 450 q 478 389 464 413 q 499 340 493 365 l 575 0 l 408 0 l 329 364 q 316 416 322 396 q 302 447 310 436 q 283 463 294 458 q 254 467 271 467 l 228 467 l 228 0 l 65 0 l 65 971 l 313 971 m 383 756 q 363 892 383 850 q 296 935 342 935 l 228 935 l 228 503 l 303 503 q 365 546 347 503 q 383 682 383 589 l 383 756 z "},"d":{"ha":531,"x_min":44,"x_max":479,"o":"m 332 75 l 324 78 q 280 8 306 29 q 215 -12 254 -12 q 150 3 181 -12 q 96 45 119 18 q 58 108 72 72 q 44 182 44 143 l 44 493 q 59 573 44 535 q 99 640 74 611 q 157 685 124 668 q 226 701 190 701 q 324 624 297 701 l 332 626 l 326 667 l 326 971 l 479 971 l 479 1 l 326 1 l 326 35 l 332 75 m 326 546 q 320 589 326 568 q 303 626 314 610 q 279 653 293 643 q 251 663 265 663 q 215 642 229 663 q 201 590 201 622 l 201 115 q 216 61 201 83 q 253 39 231 39 q 280 49 267 39 q 303 74 293 58 q 320 110 314 90 q 326 151 326 131 l 326 546 z "},"½":{"ha":547,"x_min":39,"x_max":508,"o":"m 81 931 l 47 913 l 39 929 l 114 971 l 146 971 l 146 553 l 81 553 l 81 931 m 340 971 l 378 971 l 164 0 l 125 0 l 340 971 m 317 389 q 358 417 333 407 q 408 426 382 426 q 481 399 453 426 q 508 328 508 372 q 451 213 508 265 l 401 168 q 335 67 349 119 l 507 67 l 507 0 l 308 0 q 325 108 308 57 q 379 213 342 158 l 392 232 q 431 298 419 272 q 442 346 442 324 q 428 389 442 374 q 392 404 415 404 q 360 397 376 404 q 329 376 343 389 l 317 389 z "},"O":{"ha":638,"x_min":58,"x_max":581,"o":"m 58 706 q 77 819 58 768 q 131 908 96 871 q 214 965 165 944 q 321 985 263 985 q 427 965 379 985 q 509 908 475 944 q 562 819 543 871 q 581 706 581 768 l 581 278 q 562 158 581 213 q 509 66 543 104 q 426 7 475 28 q 319 -14 378 -14 q 213 7 261 -14 q 130 66 164 28 q 77 158 96 104 q 58 278 58 213 l 58 706 m 221 172 q 247 61 221 99 q 321 24 272 24 q 418 172 418 24 l 418 800 q 321 947 418 947 q 247 909 272 947 q 221 800 221 871 l 221 172 z "},"¾":{"ha":569,"x_min":38,"x_max":533,"o":"m 46 942 q 132 979 79 979 q 206 952 176 979 q 235 882 235 925 l 235 868 q 215 802 235 824 q 158 774 196 781 l 158 771 q 219 740 199 764 q 239 672 239 717 l 239 656 q 208 578 239 607 q 125 549 176 549 q 38 575 72 549 l 49 590 q 115 568 82 568 q 156 589 142 568 q 171 660 171 610 l 171 669 q 155 742 171 721 q 103 763 139 763 l 103 781 q 151 801 138 781 q 165 869 165 821 l 165 882 q 152 939 165 921 q 118 957 139 957 q 88 949 103 957 q 60 929 74 942 l 46 942 m 329 108 l 465 418 l 500 418 l 500 131 l 533 131 l 533 78 l 500 78 l 500 0 l 433 0 l 433 78 l 329 78 l 329 108 m 429 289 l 364 133 l 364 131 l 433 131 l 433 289 l 429 289 m 406 971 l 443 971 l 229 0 l 190 0 l 406 971 z "},"Þ":{"ha":578,"x_min":65,"x_max":546,"o":"m 228 971 l 228 738 l 326 738 q 485 675 425 738 q 546 508 546 613 l 546 469 q 485 298 546 363 q 326 233 425 233 l 228 233 l 228 0 l 65 0 l 65 971 l 228 971 m 383 553 q 364 663 383 624 q 308 701 344 701 l 228 701 l 228 269 l 313 269 q 383 429 383 269 l 383 553 z "},"þ":{"ha":535,"x_min":56,"x_max":489,"o":"m 203 613 l 211 610 q 253 679 229 658 q 315 700 278 700 q 383 685 351 700 q 438 642 414 669 q 475 581 461 615 q 489 506 489 546 l 489 194 q 474 115 489 153 q 435 48 460 76 q 376 3 410 19 q 304 -14 342 -14 q 247 4 268 -14 q 211 64 225 22 l 203 61 l 208 21 l 208 -233 l 56 -233 l 56 971 l 208 971 l 208 653 l 203 613 m 208 142 q 215 99 208 119 q 231 61 221 78 q 256 35 242 44 q 283 25 269 25 q 318 45 304 25 q 332 97 332 65 l 332 574 q 317 627 332 606 q 281 649 303 649 q 254 639 267 649 q 231 613 242 629 q 215 577 221 597 q 208 536 208 557 l 208 142 z "},"ƒ":{"ha":338,"x_min":-108,"x_max":443,"o":"m 39 -232 q -108 -186 -37 -232 l -90 -158 q 4 -190 -35 -190 q 68 -159 44 -190 q 92 -75 92 -128 l 92 358 l -35 358 l -35 392 l 92 392 l 92 771 q 107 856 92 817 q 150 924 122 896 q 215 967 178 951 q 299 983 253 983 q 443 939 374 983 l 426 910 q 335 942 376 942 q 269 910 294 942 q 243 826 243 879 l 243 392 l 371 392 l 371 358 l 243 358 l 243 -7 q 228 -99 243 -57 q 187 -169 214 -140 q 122 -215 160 -199 q 39 -232 85 -232 z "},"§":{"ha":544,"x_min":58,"x_max":563,"o":"m 60 403 q 74 465 60 436 q 115 515 89 494 q 176 549 142 536 q 251 561 211 561 q 329 549 292 561 l 229 717 q 194 824 194 774 q 209 886 194 857 q 249 937 224 915 q 310 971 275 958 q 385 983 344 983 q 540 925 474 983 l 518 901 q 421 943 469 943 q 367 924 388 943 q 347 872 347 904 q 374 792 347 835 l 536 514 q 563 429 563 471 q 547 367 563 396 q 503 317 531 339 q 440 282 476 294 q 363 269 404 269 q 292 281 329 269 l 401 93 q 428 7 428 49 q 413 -55 428 -26 q 370 -106 397 -83 q 307 -140 343 -128 q 229 -153 271 -153 q 58 -82 129 -153 l 79 -56 q 206 -114 146 -114 q 253 -97 236 -114 q 271 -50 271 -79 q 226 75 271 -1 l 94 296 q 60 403 60 354 m 213 453 q 221 411 213 435 q 244 363 229 388 l 263 336 q 338 308 307 308 q 386 328 367 308 q 406 378 406 347 q 371 474 406 415 l 354 501 q 320 515 339 510 q 286 521 301 521 q 233 502 253 521 q 213 453 213 483 z "},"​":{"ha":1389,"x_min":0,"x_max":0,"o":""}," ":{"ha":268,"x_min":0,"x_max":0,"o":""},"­":{"ha":514,"x_min":38,"x_max":476,"o":"m 476 451 l 476 415 l 38 415 l 38 451 l 476 451 z "},"":{"ha":1389,"x_min":0,"x_max":0,"o":""},"∕":{"ha":371,"x_min":38,"x_max":332,"o":"m 294 1042 l 332 1042 l 75 -124 l 38 -124 l 294 1042 z "},"y":{"ha":463,"x_min":17,"x_max":446,"o":"m 176 688 l 283 308 l 292 268 l 301 268 l 308 308 l 408 688 l 446 688 l 194 -243 l 157 -243 l 224 0 l 214 0 l 17 688 l 176 688 z "},"@":{"ha":1072,"x_min":38,"x_max":1035,"o":"m 571 75 q 447 -10 546 -10 q 324 42 365 -10 q 292 186 282 94 l 317 449 q 338 522 321 488 q 382 581 356 556 q 442 622 408 607 q 513 636 476 636 q 606 554 592 636 l 615 554 l 615 596 l 618 622 l 769 622 l 726 135 q 792 29 718 29 q 869 57 832 29 q 938 131 907 85 q 986 236 968 176 q 1004 361 1004 296 q 967 533 1004 451 q 867 675 931 614 q 719 772 804 736 q 536 808 633 808 q 351 771 436 808 q 203 667 265 733 q 104 509 140 600 q 68 313 68 418 q 103 117 68 207 q 201 -40 139 26 q 349 -145 264 -107 q 533 -183 435 -183 q 678 -162 607 -183 q 817 -97 750 -140 l 832 -124 q 690 -191 765 -168 q 536 -214 615 -214 q 339 -174 431 -214 q 181 -62 247 -133 q 76 104 114 8 q 38 313 38 200 q 76 521 38 425 q 181 688 114 617 q 339 799 247 758 q 536 839 431 839 q 731 801 640 839 q 889 697 821 763 q 996 542 957 631 q 1035 354 1035 454 q 1010 207 1035 275 q 945 88 986 139 q 849 8 904 38 q 732 -21 794 -21 q 643 -2 682 -21 q 586 49 604 17 l 581 75 l 571 75 m 444 139 q 449 55 439 81 q 488 29 460 29 q 544 56 519 29 q 571 119 568 83 l 603 454 q 590 558 608 515 q 542 601 572 601 q 500 574 518 601 q 479 507 482 547 l 444 139 z "},"μ":{"ha":531,"x_min":43,"x_max":488,"o":"m 244 -6 q 206 -7 226 -11 l 206 -265 l 43 -265 l 43 688 l 206 688 l 206 97 q 240 29 206 29 q 272 43 256 29 q 303 78 289 57 q 325 124 317 99 q 333 172 333 149 l 333 688 l 488 688 l 488 0 l 333 0 l 333 51 l 340 93 l 332 96 q 292 27 313 51 q 244 -6 272 3 z "},"™":{"ha":474,"x_min":38,"x_max":438,"o":"m 438 971 l 438 688 l 388 688 l 388 897 l 386 897 l 344 688 l 314 688 l 261 896 l 258 896 l 258 688 l 231 688 l 231 971 l 299 971 l 336 811 l 340 811 l 374 971 l 438 971 m 197 943 l 143 943 l 143 688 l 93 688 l 93 943 l 38 943 l 38 971 l 197 971 l 197 943 z "},"Á":{"ha":476,"x_min":-11,"x_max":486,"o":"m 174 971 l 244 971 l 486 0 l 319 0 l 247 289 l 83 289 l 28 0 l -11 0 l 174 971 m 143 606 l 89 325 l 239 325 l 169 606 l 160 661 l 150 661 l 143 606 m 188 1028 l 229 1186 l 343 1186 l 214 1028 l 188 1028 z "},"À":{"ha":476,"x_min":-11,"x_max":486,"o":"m 174 971 l 244 971 l 486 0 l 319 0 l 247 289 l 83 289 l 28 0 l -11 0 l 174 971 m 143 606 l 89 325 l 239 325 l 169 606 l 160 661 l 150 661 l 143 606 m 206 1028 l 76 1186 l 190 1186 l 232 1028 l 206 1028 z "},"Â":{"ha":476,"x_min":-11,"x_max":486,"o":"m 174 971 l 244 971 l 486 0 l 319 0 l 247 289 l 83 289 l 28 0 l -11 0 l 174 971 m 143 606 l 89 325 l 239 325 l 169 606 l 160 661 l 150 661 l 143 606 m 201 1185 l 221 1185 l 351 1028 l 321 1028 l 210 1096 l 100 1028 l 69 1028 l 201 1185 z "},"³":{"ha":276,"x_min":38,"x_max":239,"o":"m 46 942 q 132 979 79 979 q 206 952 176 979 q 235 882 235 925 l 235 868 q 215 802 235 824 q 158 774 196 781 l 158 771 q 219 740 199 764 q 239 672 239 717 l 239 656 q 208 578 239 607 q 125 549 176 549 q 38 575 72 549 l 49 590 q 115 568 82 568 q 156 589 142 568 q 171 660 171 610 l 171 669 q 155 742 171 721 q 103 763 139 763 l 103 781 q 151 801 138 781 q 165 869 165 821 l 165 882 q 152 939 165 921 q 118 957 139 957 q 88 949 103 957 q 60 929 74 942 l 46 942 z "},"Ä":{"ha":476,"x_min":-11,"x_max":486,"o":"m 174 971 l 244 971 l 486 0 l 319 0 l 247 289 l 83 289 l 28 0 l -11 0 l 174 971 m 143 606 l 89 325 l 239 325 l 169 606 l 160 661 l 150 661 l 143 606 m 58 1103 q 76 1147 58 1129 q 121 1164 93 1164 q 167 1147 149 1164 q 186 1103 186 1129 q 167 1058 186 1075 q 121 1040 149 1040 q 76 1058 93 1040 q 58 1103 58 1075 m 249 1103 q 267 1147 249 1129 q 313 1164 285 1164 q 358 1147 340 1164 q 376 1103 376 1131 q 358 1058 376 1075 q 313 1040 340 1040 q 267 1058 285 1040 q 249 1103 249 1075 z "},"Ă":{"ha":476,"x_min":-11,"x_max":486,"o":"m 174 971 l 244 971 l 486 0 l 319 0 l 247 289 l 83 289 l 28 0 l -11 0 l 174 971 m 143 606 l 89 325 l 239 325 l 169 606 l 160 661 l 150 661 l 143 606 m 310 1167 l 331 1167 q 297 1070 331 1108 q 210 1032 263 1032 q 123 1070 157 1032 q 89 1167 89 1108 l 110 1167 q 138 1116 110 1135 q 211 1097 167 1097 q 282 1116 254 1097 q 310 1167 310 1135 z "},"Ā":{"ha":476,"x_min":-11,"x_max":486,"o":"m 174 971 l 244 971 l 486 0 l 319 0 l 247 289 l 83 289 l 28 0 l -11 0 l 174 971 m 143 606 l 89 325 l 239 325 l 169 606 l 160 661 l 150 661 l 143 606 m 338 1085 l 79 1085 l 79 1121 l 338 1121 l 338 1085 z "},"Ą":{"ha":476,"x_min":-11,"x_max":486,"o":"m 174 971 l 244 971 l 486 0 l 319 0 l 247 289 l 83 289 l 28 0 l -11 0 l 174 971 m 143 606 l 89 325 l 239 325 l 169 606 l 160 661 l 150 661 l 143 606 m 410 -111 q 365 -174 393 -151 q 304 -196 338 -196 q 245 -174 269 -196 q 221 -119 221 -151 q 248 -56 221 -87 q 324 3 275 -25 l 346 3 q 301 -40 317 -15 q 285 -90 285 -65 q 299 -134 285 -117 q 332 -151 313 -151 q 390 -101 368 -151 l 410 -111 z "},"Å":{"ha":476,"x_min":-11,"x_max":486,"o":"m 174 971 l 244 971 l 486 0 l 319 0 l 247 289 l 83 289 l 28 0 l -11 0 l 174 971 m 143 606 l 89 325 l 239 325 l 169 606 l 160 661 l 150 661 l 143 606 m 129 1111 q 152 1169 129 1146 q 211 1192 175 1192 q 269 1169 246 1192 q 292 1111 292 1146 q 269 1053 292 1076 q 211 1031 246 1031 q 152 1053 175 1031 q 129 1111 129 1076 m 157 1111 q 172 1074 157 1089 q 211 1058 188 1058 q 249 1074 233 1058 q 264 1111 264 1089 q 249 1149 264 1135 q 211 1164 233 1164 q 172 1149 188 1164 q 157 1111 157 1135 z "},"Ã":{"ha":476,"x_min":-11,"x_max":486,"o":"m 174 971 l 244 971 l 486 0 l 319 0 l 247 289 l 83 289 l 28 0 l -11 0 l 174 971 m 143 606 l 89 325 l 239 325 l 169 606 l 160 661 l 150 661 l 143 606 m 90 1060 l 72 1071 q 174 1157 114 1157 q 214 1147 196 1157 l 253 1131 q 288 1121 274 1121 q 331 1157 314 1121 l 350 1147 q 250 1058 311 1058 q 227 1062 239 1058 q 204 1069 215 1065 l 176 1082 q 139 1093 153 1093 q 90 1060 110 1093 z "},"Æ":{"ha":663,"x_min":-40,"x_max":629,"o":"m 629 971 l 629 933 l 424 933 l 424 514 l 600 514 l 600 478 l 424 478 l 424 36 l 629 36 l 629 -1 l 261 -1 l 261 288 l 82 288 l 0 -1 l -40 -1 l 238 971 l 629 971 m 235 818 l 93 324 l 261 324 l 261 874 l 246 874 l 235 818 z "},"Ǽ":{"ha":663,"x_min":-40,"x_max":629,"o":"m 629 971 l 629 933 l 424 933 l 424 514 l 600 514 l 600 478 l 424 478 l 424 36 l 629 36 l 629 -1 l 261 -1 l 261 288 l 82 288 l 0 -1 l -40 -1 l 238 971 l 629 971 m 235 818 l 93 324 l 261 324 l 261 874 l 246 874 l 235 818 m 413 1028 l 454 1186 l 568 1186 l 439 1028 l 413 1028 z "},"Ć":{"ha":554,"x_min":58,"x_max":553,"o":"m 58 701 q 76 819 58 767 q 128 908 94 871 q 210 965 163 944 q 317 985 258 985 q 521 899 443 985 l 494 874 q 343 942 426 942 q 253 906 283 942 q 222 800 222 869 l 222 178 q 342 29 222 29 q 448 60 400 29 q 519 144 496 92 l 553 129 q 465 24 525 61 q 321 -14 404 -14 q 128 65 199 -14 q 58 281 58 144 l 58 701 m 290 1028 l 332 1186 l 446 1186 l 317 1028 l 290 1028 z "},"Č":{"ha":554,"x_min":58,"x_max":553,"o":"m 58 701 q 76 819 58 767 q 128 908 94 871 q 210 965 163 944 q 317 985 258 985 q 521 899 443 985 l 494 874 q 343 942 426 942 q 253 906 283 942 q 222 800 222 869 l 222 178 q 342 29 222 29 q 448 60 400 29 q 519 144 496 92 l 553 129 q 465 24 525 61 q 321 -14 404 -14 q 128 65 199 -14 q 58 281 58 144 l 58 701 m 201 1185 l 311 1117 l 422 1185 l 453 1185 l 322 1028 l 303 1028 l 171 1185 l 201 1185 z "},"Ĉ":{"ha":554,"x_min":58,"x_max":553,"o":"m 58 701 q 76 819 58 767 q 128 908 94 871 q 210 965 163 944 q 317 985 258 985 q 521 899 443 985 l 494 874 q 343 942 426 942 q 253 906 283 942 q 222 800 222 869 l 222 178 q 342 29 222 29 q 448 60 400 29 q 519 144 496 92 l 553 129 q 465 24 525 61 q 321 -14 404 -14 q 128 65 199 -14 q 58 281 58 144 l 58 701 m 304 1185 l 324 1185 l 454 1028 l 424 1028 l 313 1096 l 203 1028 l 172 1028 l 304 1185 z "},"Ď":{"ha":604,"x_min":69,"x_max":549,"o":"m 69 971 l 319 971 q 413 951 371 971 q 485 896 456 932 q 532 810 515 860 q 549 700 549 761 l 549 268 q 532 162 549 211 q 485 76 515 113 q 415 20 456 40 q 326 0 375 0 l 69 0 l 69 971 m 228 36 l 303 36 q 368 77 346 36 q 390 196 390 118 l 390 778 q 365 894 390 853 q 290 935 339 935 l 228 935 l 228 36 m 153 1185 l 263 1117 l 374 1185 l 404 1185 l 274 1028 l 254 1028 l 122 1185 l 153 1185 z "},"Đ":{"ha":604,"x_min":3,"x_max":549,"o":"m 69 971 l 319 971 q 413 951 371 971 q 485 896 456 932 q 532 810 515 860 q 549 700 549 761 l 549 268 q 532 162 549 211 q 485 76 515 113 q 415 20 456 40 q 326 0 375 0 l 69 0 l 69 971 m 228 36 l 303 36 q 368 77 346 36 q 390 196 390 118 l 390 778 q 365 894 390 853 q 290 935 339 935 l 228 935 l 228 36 m 3 504 l 313 504 l 313 468 l 3 468 l 3 504 z "},"Ð":{"ha":604,"x_min":3,"x_max":549,"o":"m 69 971 l 319 971 q 413 951 371 971 q 485 896 456 932 q 532 810 515 860 q 549 700 549 761 l 549 268 q 532 162 549 211 q 485 76 515 113 q 415 20 456 40 q 326 0 375 0 l 69 0 l 69 971 m 228 36 l 303 36 q 368 77 346 36 q 390 196 390 118 l 390 778 q 365 894 390 853 q 290 935 339 935 l 228 935 l 228 36 m 3 504 l 313 504 l 313 468 l 3 468 l 3 504 z "},"É":{"ha":465,"x_min":67,"x_max":435,"o":"m 435 971 l 435 935 l 228 935 l 228 514 l 406 514 l 406 478 l 228 478 l 228 36 l 435 36 l 435 0 l 67 0 l 67 971 l 435 971 m 233 1028 l 275 1186 l 389 1186 l 260 1028 l 233 1028 z "},"Ĕ":{"ha":465,"x_min":67,"x_max":435,"o":"m 435 971 l 435 935 l 228 935 l 228 514 l 406 514 l 406 478 l 228 478 l 228 36 l 435 36 l 435 0 l 67 0 l 67 971 l 435 971 m 356 1167 l 376 1167 q 342 1070 376 1108 q 256 1032 308 1032 q 169 1070 203 1032 q 135 1167 135 1108 l 156 1167 q 184 1116 156 1135 q 257 1097 213 1097 q 328 1116 300 1097 q 356 1167 356 1135 z "},"Ě":{"ha":465,"x_min":67,"x_max":435,"o":"m 435 971 l 435 935 l 228 935 l 228 514 l 406 514 l 406 478 l 228 478 l 228 36 l 435 36 l 435 0 l 67 0 l 67 971 l 435 971 m 144 1185 l 254 1117 l 365 1185 l 396 1185 l 265 1028 l 246 1028 l 114 1185 l 144 1185 z "},"Ê":{"ha":465,"x_min":67,"x_max":435,"o":"m 435 971 l 435 935 l 228 935 l 228 514 l 406 514 l 406 478 l 228 478 l 228 36 l 435 36 l 435 0 l 67 0 l 67 971 l 435 971 m 247 1185 l 267 1185 l 397 1028 l 367 1028 l 256 1096 l 146 1028 l 115 1028 l 247 1185 z "},"Ë":{"ha":465,"x_min":67,"x_max":435,"o":"m 435 971 l 435 935 l 228 935 l 228 514 l 406 514 l 406 478 l 228 478 l 228 36 l 435 36 l 435 0 l 67 0 l 67 971 l 435 971 m 104 1103 q 122 1147 104 1129 q 167 1164 139 1164 q 213 1147 194 1164 q 232 1103 232 1129 q 213 1058 232 1075 q 167 1040 194 1040 q 122 1058 139 1040 q 104 1103 104 1075 m 294 1103 q 313 1147 294 1129 q 358 1164 331 1164 q 404 1147 386 1164 q 422 1103 422 1131 q 404 1058 422 1075 q 358 1040 386 1040 q 313 1058 331 1040 q 294 1103 294 1075 z "},"È":{"ha":465,"x_min":67,"x_max":435,"o":"m 435 971 l 435 935 l 228 935 l 228 514 l 406 514 l 406 478 l 228 478 l 228 36 l 435 36 l 435 0 l 67 0 l 67 971 l 435 971 m 250 1028 l 121 1186 l 235 1186 l 276 1028 l 250 1028 z "},"Ē":{"ha":465,"x_min":67,"x_max":435,"o":"m 435 971 l 435 935 l 228 935 l 228 514 l 406 514 l 406 478 l 228 478 l 228 36 l 435 36 l 435 0 l 67 0 l 67 971 l 435 971 m 383 1085 l 125 1085 l 125 1121 l 383 1121 l 383 1085 z "},"Ę":{"ha":465,"x_min":67,"x_max":436,"o":"m 435 971 l 435 935 l 228 935 l 228 514 l 406 514 l 406 478 l 228 478 l 228 36 l 435 36 l 435 0 l 67 0 l 67 971 l 435 971 m 436 -111 q 392 -174 419 -151 q 331 -196 364 -196 q 272 -174 296 -196 q 247 -119 247 -151 q 274 -56 247 -87 q 350 3 301 -25 l 372 3 q 327 -40 343 -15 q 311 -90 311 -65 q 325 -134 311 -117 q 358 -151 339 -151 q 417 -101 394 -151 l 436 -111 z "},"Ğ":{"ha":619,"x_min":60,"x_max":565,"o":"m 60 703 q 130 908 60 833 q 325 983 200 983 q 443 962 389 983 q 535 899 497 940 l 510 874 q 440 922 481 904 q 356 939 399 939 q 253 902 290 939 q 217 800 217 865 l 217 168 q 346 25 217 25 q 419 36 382 25 l 419 454 l 308 454 l 308 490 l 565 490 l 565 46 q 515 22 544 33 q 455 3 486 11 q 391 -8 424 -4 q 329 -12 358 -12 q 131 66 201 -12 q 60 279 60 144 l 60 703 m 419 1167 l 440 1167 q 406 1070 440 1108 q 319 1032 372 1032 q 233 1070 267 1032 q 199 1167 199 1108 l 219 1167 q 248 1116 219 1135 q 321 1097 276 1097 q 392 1116 364 1097 q 419 1167 419 1135 z "},"Ĝ":{"ha":619,"x_min":60,"x_max":565,"o":"m 60 703 q 130 908 60 833 q 325 983 200 983 q 443 962 389 983 q 535 899 497 940 l 510 874 q 440 922 481 904 q 356 939 399 939 q 253 902 290 939 q 217 800 217 865 l 217 168 q 346 25 217 25 q 419 36 382 25 l 419 454 l 308 454 l 308 490 l 565 490 l 565 46 q 515 22 544 33 q 455 3 486 11 q 391 -8 424 -4 q 329 -12 358 -12 q 131 66 201 -12 q 60 279 60 144 l 60 703 m 311 1185 l 331 1185 l 461 1028 l 431 1028 l 319 1096 l 210 1028 l 179 1028 l 311 1185 z "},"Ħ":{"ha":644,"x_min":10,"x_max":638,"o":"m 228 971 l 228 749 l 418 749 l 418 971 l 581 971 l 581 749 l 638 749 l 638 707 l 581 706 l 581 0 l 418 0 l 418 467 l 228 467 l 228 0 l 65 0 l 65 707 l 10 707 l 10 749 l 65 749 l 65 971 l 228 971 m 418 503 l 418 707 l 228 707 l 228 503 l 418 503 z "},"Ĥ":{"ha":644,"x_min":65,"x_max":581,"o":"m 228 971 l 228 503 l 418 503 l 418 971 l 581 971 l 581 0 l 418 0 l 418 467 l 228 467 l 228 0 l 65 0 l 65 971 l 228 971 m 314 1185 l 333 1185 l 464 1028 l 433 1028 l 322 1096 l 213 1028 l 182 1028 l 314 1185 z "},"Í":{"ha":293,"x_min":65,"x_max":279,"o":"m 228 971 l 228 0 l 65 0 l 65 971 l 228 971 m 124 1028 l 165 1186 l 279 1186 l 150 1028 l 124 1028 z "},"Ĭ":{"ha":293,"x_min":25,"x_max":267,"o":"m 228 971 l 228 0 l 65 0 l 65 971 l 228 971 m 246 1167 l 267 1167 q 233 1070 267 1108 q 146 1032 199 1032 q 59 1070 93 1032 q 25 1167 25 1108 l 46 1167 q 74 1116 46 1135 q 147 1097 103 1097 q 218 1116 190 1097 q 246 1167 246 1135 z "},"Î":{"ha":293,"x_min":6,"x_max":288,"o":"m 228 971 l 228 0 l 65 0 l 65 971 l 228 971 m 138 1185 l 157 1185 l 288 1028 l 257 1028 l 146 1096 l 36 1028 l 6 1028 l 138 1185 z "},"Ï":{"ha":293,"x_min":-6,"x_max":313,"o":"m 228 971 l 228 0 l 65 0 l 65 971 l 228 971 m -6 1103 q 12 1147 -6 1129 q 57 1164 29 1164 q 103 1147 85 1164 q 122 1103 122 1129 q 103 1058 122 1075 q 57 1040 85 1040 q 12 1058 29 1040 q -6 1103 -6 1075 m 185 1103 q 203 1147 185 1129 q 249 1164 221 1164 q 294 1147 276 1164 q 313 1103 313 1131 q 294 1058 313 1075 q 249 1040 276 1040 q 203 1058 221 1040 q 185 1103 185 1075 z "},"Ì":{"ha":293,"x_min":13,"x_max":228,"o":"m 228 971 l 228 0 l 65 0 l 65 971 l 228 971 m 142 1028 l 13 1186 l 126 1186 l 168 1028 l 142 1028 z "},"Ī":{"ha":293,"x_min":15,"x_max":274,"o":"m 228 971 l 228 0 l 65 0 l 65 971 l 228 971 m 274 1085 l 15 1085 l 15 1121 l 274 1121 l 274 1085 z "},"Į":{"ha":293,"x_min":36,"x_max":228,"o":"m 228 971 l 228 0 l 65 0 l 65 971 l 228 971 m 225 -111 q 181 -174 208 -151 q 119 -196 153 -196 q 60 -174 85 -196 q 36 -119 36 -151 q 63 -56 36 -87 q 139 3 90 -25 l 161 3 q 116 -40 132 -15 q 100 -90 100 -65 q 114 -134 100 -117 q 147 -151 128 -151 q 206 -101 183 -151 l 225 -111 z "},"Ĵ":{"ha":424,"x_min":-11,"x_max":418,"o":"m -11 50 l 11 79 q 121 32 71 32 q 196 149 196 32 l 196 971 l 358 971 l 358 236 q 342 136 358 182 q 298 57 326 90 q 231 5 269 24 q 147 -14 193 -14 q -11 50 61 -14 m 268 1185 l 288 1185 l 418 1028 l 388 1028 l 276 1096 l 167 1028 l 136 1028 l 268 1185 z "},"Ķ":{"ha":608,"x_min":67,"x_max":618,"o":"m 229 0 l 67 0 l 67 971 l 229 971 l 229 0 m 272 496 l 272 525 l 510 971 l 551 971 l 375 636 l 618 0 l 450 0 l 272 496 m 379 -154 q 347 -162 363 -162 q 305 -145 321 -162 q 289 -101 289 -128 q 306 -56 289 -74 q 351 -37 324 -37 q 400 -62 382 -37 q 418 -129 418 -86 q 391 -213 418 -181 q 315 -254 364 -246 l 310 -235 q 365 -204 346 -225 q 379 -154 383 -183 z "},"Ĺ":{"ha":414,"x_min":65,"x_max":425,"o":"m 228 971 l 228 36 l 425 36 l 425 0 l 65 0 l 65 971 l 228 971 m 124 1028 l 165 1186 l 279 1186 l 150 1028 l 124 1028 z "},"Ľ":{"ha":414,"x_min":65,"x_max":436,"o":"m 306 814 l 333 971 l 436 971 l 332 814 l 306 814 m 228 971 l 228 36 l 425 36 l 425 0 l 65 0 l 65 971 l 228 971 z "},"Ļ":{"ha":414,"x_min":65,"x_max":425,"o":"m 228 971 l 228 36 l 425 36 l 425 0 l 65 0 l 65 971 l 228 971 m 288 -154 q 256 -162 271 -162 q 213 -145 229 -162 q 197 -101 197 -128 q 215 -56 197 -74 q 260 -37 232 -37 q 308 -62 290 -37 q 326 -129 326 -86 q 299 -213 326 -181 q 224 -254 272 -246 l 218 -235 q 273 -204 254 -225 q 288 -154 292 -183 z "},"Ŀ":{"ha":450,"x_min":65,"x_max":464,"o":"m 228 971 l 228 36 l 425 36 l 425 0 l 65 0 l 65 971 l 228 971 m 324 493 q 343 543 324 524 q 393 563 363 563 q 444 543 424 563 q 464 493 464 524 q 444 442 464 463 q 393 422 424 422 q 343 442 363 422 q 324 493 324 463 z "},"Ł":{"ha":418,"x_min":-1,"x_max":428,"o":"m 231 971 l 231 550 l 367 624 l 383 593 l 231 510 l 231 36 l 428 36 l 428 0 l 68 0 l 68 422 l 17 394 l -1 426 l 68 463 l 68 971 l 231 971 z "},"Ń":{"ha":557,"x_min":58,"x_max":500,"o":"m 439 411 l 457 356 l 467 356 l 464 411 l 464 971 l 500 971 l 500 0 l 431 0 l 121 792 l 101 847 l 92 847 l 96 792 l 96 0 l 58 0 l 58 971 l 224 971 l 439 411 m 264 1028 l 306 1186 l 419 1186 l 290 1028 l 264 1028 z "},"Ň":{"ha":557,"x_min":58,"x_max":500,"o":"m 439 411 l 457 356 l 467 356 l 464 411 l 464 971 l 500 971 l 500 0 l 431 0 l 121 792 l 101 847 l 92 847 l 96 792 l 96 0 l 58 0 l 58 971 l 224 971 l 439 411 m 175 1185 l 285 1117 l 396 1185 l 426 1185 l 296 1028 l 276 1028 l 144 1185 l 175 1185 z "},"Ñ":{"ha":557,"x_min":58,"x_max":500,"o":"m 439 411 l 457 356 l 467 356 l 464 411 l 464 971 l 500 971 l 500 0 l 431 0 l 121 792 l 101 847 l 92 847 l 96 792 l 96 0 l 58 0 l 58 971 l 224 971 l 439 411 m 167 1060 l 149 1071 q 250 1157 190 1157 q 290 1147 272 1157 l 329 1131 q 364 1121 350 1121 q 407 1157 390 1121 l 426 1147 q 326 1058 388 1058 q 303 1062 315 1058 q 281 1069 292 1065 l 253 1082 q 215 1093 229 1093 q 167 1060 186 1093 z "},"Ņ":{"ha":557,"x_min":58,"x_max":500,"o":"m 439 411 l 457 356 l 467 356 l 464 411 l 464 971 l 500 971 l 500 0 l 431 0 l 121 792 l 101 847 l 92 847 l 96 792 l 96 0 l 58 0 l 58 971 l 224 971 l 439 411 m 310 -154 q 278 -162 293 -162 q 235 -145 251 -162 q 219 -101 219 -128 q 237 -56 219 -74 q 282 -37 254 -37 q 331 -62 313 -37 q 349 -129 349 -86 q 322 -213 349 -181 q 246 -254 294 -246 l 240 -235 q 295 -204 276 -225 q 310 -154 314 -183 z "},"Ŋ":{"ha":557,"x_min":61,"x_max":519,"o":"m 475 410 l 475 971 l 519 971 l 519 -15 q 385 -242 519 -161 l 364 -214 q 420 -162 401 -189 q 439 -82 439 -135 l 439 1 l 131 792 l 113 847 l 101 847 l 106 792 l 106 0 l 61 0 l 61 971 l 233 971 l 451 410 l 468 354 l 481 354 l 475 410 z "},"Ó":{"ha":638,"x_min":58,"x_max":581,"o":"m 58 706 q 77 819 58 768 q 131 908 96 871 q 214 965 165 944 q 321 985 263 985 q 427 965 379 985 q 509 908 475 944 q 562 819 543 871 q 581 706 581 768 l 581 278 q 562 158 581 213 q 509 66 543 104 q 426 7 475 28 q 319 -14 378 -14 q 213 7 261 -14 q 130 66 164 28 q 77 158 96 104 q 58 278 58 213 l 58 706 m 221 172 q 247 61 221 99 q 321 24 272 24 q 418 172 418 24 l 418 800 q 321 947 418 947 q 247 909 272 947 q 221 800 221 871 l 221 172 m 297 1028 l 339 1186 l 453 1186 l 324 1028 l 297 1028 z "},"Ŏ":{"ha":638,"x_min":58,"x_max":581,"o":"m 58 706 q 77 819 58 768 q 131 908 96 871 q 214 965 165 944 q 321 985 263 985 q 427 965 379 985 q 509 908 475 944 q 562 819 543 871 q 581 706 581 768 l 581 278 q 562 158 581 213 q 509 66 543 104 q 426 7 475 28 q 319 -14 378 -14 q 213 7 261 -14 q 130 66 164 28 q 77 158 96 104 q 58 278 58 213 l 58 706 m 221 172 q 247 61 221 99 q 321 24 272 24 q 418 172 418 24 l 418 800 q 321 947 418 947 q 247 909 272 947 q 221 800 221 871 l 221 172 m 419 1167 l 440 1167 q 406 1070 440 1108 q 319 1032 372 1032 q 233 1070 267 1032 q 199 1167 199 1108 l 219 1167 q 248 1116 219 1135 q 321 1097 276 1097 q 392 1116 364 1097 q 419 1167 419 1135 z "},"Ô":{"ha":638,"x_min":58,"x_max":581,"o":"m 58 706 q 77 819 58 768 q 131 908 96 871 q 214 965 165 944 q 321 985 263 985 q 427 965 379 985 q 509 908 475 944 q 562 819 543 871 q 581 706 581 768 l 581 278 q 562 158 581 213 q 509 66 543 104 q 426 7 475 28 q 319 -14 378 -14 q 213 7 261 -14 q 130 66 164 28 q 77 158 96 104 q 58 278 58 213 l 58 706 m 221 172 q 247 61 221 99 q 321 24 272 24 q 418 172 418 24 l 418 800 q 321 947 418 947 q 247 909 272 947 q 221 800 221 871 l 221 172 m 311 1185 l 331 1185 l 461 1028 l 431 1028 l 319 1096 l 210 1028 l 179 1028 l 311 1185 z "},"Ö":{"ha":638,"x_min":58,"x_max":581,"o":"m 58 706 q 77 819 58 768 q 131 908 96 871 q 214 965 165 944 q 321 985 263 985 q 427 965 379 985 q 509 908 475 944 q 562 819 543 871 q 581 706 581 768 l 581 278 q 562 158 581 213 q 509 66 543 104 q 426 7 475 28 q 319 -14 378 -14 q 213 7 261 -14 q 130 66 164 28 q 77 158 96 104 q 58 278 58 213 l 58 706 m 221 172 q 247 61 221 99 q 321 24 272 24 q 418 172 418 24 l 418 800 q 321 947 418 947 q 247 909 272 947 q 221 800 221 871 l 221 172 m 168 1103 q 185 1147 168 1129 q 231 1164 203 1164 q 277 1147 258 1164 q 296 1103 296 1129 q 277 1058 296 1075 q 231 1040 258 1040 q 185 1058 203 1040 q 168 1103 168 1075 m 358 1103 q 376 1147 358 1129 q 422 1164 394 1164 q 468 1147 450 1164 q 486 1103 486 1131 q 468 1058 486 1075 q 422 1040 450 1040 q 376 1058 394 1040 q 358 1103 358 1075 z "},"Ò":{"ha":638,"x_min":58,"x_max":581,"o":"m 58 706 q 77 819 58 768 q 131 908 96 871 q 214 965 165 944 q 321 985 263 985 q 427 965 379 985 q 509 908 475 944 q 562 819 543 871 q 581 706 581 768 l 581 278 q 562 158 581 213 q 509 66 543 104 q 426 7 475 28 q 319 -14 378 -14 q 213 7 261 -14 q 130 66 164 28 q 77 158 96 104 q 58 278 58 213 l 58 706 m 221 172 q 247 61 221 99 q 321 24 272 24 q 418 172 418 24 l 418 800 q 321 947 418 947 q 247 909 272 947 q 221 800 221 871 l 221 172 m 315 1028 l 186 1186 l 300 1186 l 342 1028 l 315 1028 z "},"Ő":{"ha":638,"x_min":58,"x_max":581,"o":"m 58 706 q 77 819 58 768 q 131 908 96 871 q 214 965 165 944 q 321 985 263 985 q 427 965 379 985 q 509 908 475 944 q 562 819 543 871 q 581 706 581 768 l 581 278 q 562 158 581 213 q 509 66 543 104 q 426 7 475 28 q 319 -14 378 -14 q 213 7 261 -14 q 130 66 164 28 q 77 158 96 104 q 58 278 58 213 l 58 706 m 221 172 q 247 61 221 99 q 321 24 272 24 q 418 172 418 24 l 418 800 q 321 947 418 947 q 247 909 272 947 q 221 800 221 871 l 221 172 m 383 1028 l 425 1186 l 528 1186 l 410 1028 l 383 1028 m 228 1028 l 271 1186 l 374 1186 l 256 1028 l 228 1028 z "},"Õ":{"ha":638,"x_min":58,"x_max":581,"o":"m 58 706 q 77 819 58 768 q 131 908 96 871 q 214 965 165 944 q 321 985 263 985 q 427 965 379 985 q 509 908 475 944 q 562 819 543 871 q 581 706 581 768 l 581 278 q 562 158 581 213 q 509 66 543 104 q 426 7 475 28 q 319 -14 378 -14 q 213 7 261 -14 q 130 66 164 28 q 77 158 96 104 q 58 278 58 213 l 58 706 m 221 172 q 247 61 221 99 q 321 24 272 24 q 418 172 418 24 l 418 800 q 321 947 418 947 q 247 909 272 947 q 221 800 221 871 l 221 172 m 200 1060 l 182 1071 q 283 1157 224 1157 q 324 1147 306 1157 l 363 1131 q 397 1121 383 1121 q 440 1157 424 1121 l 460 1147 q 360 1058 421 1058 q 337 1062 349 1058 q 314 1069 325 1065 l 286 1082 q 249 1093 263 1093 q 200 1060 219 1093 z "},"Ø":{"ha":638,"x_min":58,"x_max":581,"o":"m 58 706 q 77 819 58 768 q 131 908 96 871 q 214 965 165 944 q 321 985 263 985 q 421 967 375 985 q 500 917 467 949 l 532 986 l 567 971 l 526 886 q 581 706 581 813 l 581 278 q 562 158 581 213 q 509 66 543 104 q 427 7 475 28 q 319 -14 379 -14 q 218 5 264 -14 q 139 58 172 24 l 103 -18 l 68 0 l 111 90 q 72 174 86 128 q 58 278 58 221 l 58 706 m 221 324 l 418 743 l 418 800 q 321 947 418 947 q 247 909 272 947 q 221 800 221 871 l 221 324 m 221 172 q 247 61 221 99 q 321 24 272 24 q 418 172 418 24 l 418 654 l 221 235 l 221 172 z "},"Ǿ":{"ha":638,"x_min":58,"x_max":581,"o":"m 58 706 q 77 819 58 768 q 131 908 96 871 q 214 965 165 944 q 321 985 263 985 q 421 967 375 985 q 500 917 467 949 l 532 986 l 567 971 l 526 886 q 581 706 581 813 l 581 278 q 562 158 581 213 q 509 66 543 104 q 427 7 475 28 q 319 -14 379 -14 q 218 5 264 -14 q 139 58 172 24 l 103 -18 l 68 0 l 111 90 q 72 174 86 128 q 58 278 58 221 l 58 706 m 221 324 l 418 743 l 418 800 q 321 947 418 947 q 247 909 272 947 q 221 800 221 871 l 221 324 m 221 172 q 247 61 221 99 q 321 24 272 24 q 418 172 418 24 l 418 654 l 221 235 l 221 172 m 297 1028 l 339 1186 l 453 1186 l 324 1028 l 297 1028 z "},"Œ":{"ha":826,"x_min":42,"x_max":808,"o":"m 42 692 q 61 806 42 754 q 117 894 81 857 q 203 951 153 931 q 315 971 254 971 l 808 971 l 808 935 l 593 935 l 593 514 l 778 514 l 778 478 l 593 478 l 593 36 l 808 36 l 808 0 l 314 0 q 202 21 253 0 q 116 80 151 42 q 61 172 81 118 q 42 292 42 226 l 42 692 m 211 774 l 211 197 q 240 81 211 126 q 314 36 269 36 l 424 36 l 424 935 l 324 935 q 243 889 275 935 q 211 774 211 843 z "},"Ŕ":{"ha":619,"x_min":65,"x_max":575,"o":"m 313 971 q 406 952 363 971 q 480 901 449 933 q 528 827 511 869 q 546 738 546 785 l 546 715 q 531 630 546 669 q 488 559 515 590 q 422 508 460 528 q 338 485 383 489 l 338 475 q 393 462 367 474 q 442 431 419 450 q 478 389 464 413 q 499 340 493 365 l 575 0 l 408 0 l 329 364 q 316 416 322 396 q 302 447 310 436 q 283 463 294 458 q 254 467 271 467 l 228 467 l 228 0 l 65 0 l 65 971 l 313 971 m 383 756 q 363 892 383 850 q 296 935 342 935 l 228 935 l 228 503 l 303 503 q 365 546 347 503 q 383 682 383 589 l 383 756 m 243 1028 l 285 1186 l 399 1186 l 269 1028 l 243 1028 z "},"Ř":{"ha":619,"x_min":65,"x_max":575,"o":"m 313 971 q 406 952 363 971 q 480 901 449 933 q 528 827 511 869 q 546 738 546 785 l 546 715 q 531 630 546 669 q 488 559 515 590 q 422 508 460 528 q 338 485 383 489 l 338 475 q 393 462 367 474 q 442 431 419 450 q 478 389 464 413 q 499 340 493 365 l 575 0 l 408 0 l 329 364 q 316 416 322 396 q 302 447 310 436 q 283 463 294 458 q 254 467 271 467 l 228 467 l 228 0 l 65 0 l 65 971 l 313 971 m 383 756 q 363 892 383 850 q 296 935 342 935 l 228 935 l 228 503 l 303 503 q 365 546 347 503 q 383 682 383 589 l 383 756 m 154 1185 l 264 1117 l 375 1185 l 406 1185 l 275 1028 l 256 1028 l 124 1185 l 154 1185 z "},"Ŗ":{"ha":619,"x_min":65,"x_max":575,"o":"m 313 971 q 406 952 363 971 q 480 901 449 933 q 528 827 511 869 q 546 738 546 785 l 546 715 q 531 630 546 669 q 488 559 515 590 q 422 508 460 528 q 338 485 383 489 l 338 475 q 393 462 367 474 q 442 431 419 450 q 478 389 464 413 q 499 340 493 365 l 575 0 l 408 0 l 329 364 q 316 416 322 396 q 302 447 310 436 q 283 463 294 458 q 254 467 271 467 l 228 467 l 228 0 l 65 0 l 65 971 l 313 971 m 383 756 q 363 892 383 850 q 296 935 342 935 l 228 935 l 228 503 l 303 503 q 365 546 347 503 q 383 682 383 589 l 383 756 m 339 -154 q 307 -162 322 -162 q 265 -145 281 -162 q 249 -101 249 -128 q 266 -56 249 -74 q 311 -37 283 -37 q 360 -62 342 -37 q 378 -129 378 -86 q 351 -213 378 -181 q 275 -254 324 -246 l 269 -235 q 324 -204 306 -225 q 339 -154 343 -183 z "},"Ŧ":{"ha":494,"x_min":-10,"x_max":507,"o":"m 507 935 l 329 935 l 329 588 l 465 588 l 465 551 l 329 551 l 329 0 l 168 0 l 167 551 l 31 551 l 31 588 l 168 588 l 168 935 l -10 935 l -10 971 l 507 971 l 507 935 z "},"Ť":{"ha":494,"x_min":-10,"x_max":507,"o":"m 507 935 l 329 935 l 329 0 l 168 0 l 168 935 l -10 935 l -10 971 l 507 971 l 507 935 m 135 1185 l 244 1117 l 356 1185 l 386 1185 l 256 1028 l 236 1028 l 104 1185 l 135 1185 z "},"Ț":{"ha":494,"x_min":-10,"x_max":507,"o":"m 507 935 l 329 935 l 329 0 l 168 0 l 168 935 l -10 935 l -10 971 l 507 971 l 507 935 m 289 -153 q 257 -161 272 -161 q 215 -144 231 -161 q 199 -100 199 -126 q 216 -54 199 -72 q 261 -36 233 -36 q 310 -60 292 -36 q 328 -128 328 -85 q 301 -212 328 -179 q 225 -253 274 -244 l 219 -233 q 274 -203 256 -224 q 289 -153 293 -182 z "},"Ú":{"ha":583,"x_min":65,"x_max":526,"o":"m 228 971 l 228 190 q 258 73 228 115 q 346 31 289 31 q 451 88 411 31 q 490 240 490 144 l 490 971 l 526 971 l 526 242 q 471 53 526 119 q 313 -14 415 -14 q 211 7 257 -14 q 133 65 165 28 q 83 156 100 103 q 65 276 65 210 l 65 971 l 228 971 m 292 1028 l 333 1186 l 447 1186 l 318 1028 l 292 1028 z "},"Ŭ":{"ha":583,"x_min":65,"x_max":526,"o":"m 228 971 l 228 190 q 258 73 228 115 q 346 31 289 31 q 451 88 411 31 q 490 240 490 144 l 490 971 l 526 971 l 526 242 q 471 53 526 119 q 313 -14 415 -14 q 211 7 257 -14 q 133 65 165 28 q 83 156 100 103 q 65 276 65 210 l 65 971 l 228 971 m 415 1167 l 436 1167 q 402 1070 436 1108 q 315 1032 368 1032 q 228 1070 263 1032 q 194 1167 194 1108 l 215 1167 q 244 1116 215 1135 q 317 1097 272 1097 q 388 1116 360 1097 q 415 1167 415 1135 z "},"Û":{"ha":583,"x_min":65,"x_max":526,"o":"m 228 971 l 228 190 q 258 73 228 115 q 346 31 289 31 q 451 88 411 31 q 490 240 490 144 l 490 971 l 526 971 l 526 242 q 471 53 526 119 q 313 -14 415 -14 q 211 7 257 -14 q 133 65 165 28 q 83 156 100 103 q 65 276 65 210 l 65 971 l 228 971 m 307 1185 l 326 1185 l 457 1028 l 426 1028 l 315 1096 l 206 1028 l 175 1028 l 307 1185 z "},"Ü":{"ha":583,"x_min":65,"x_max":526,"o":"m 228 971 l 228 190 q 258 73 228 115 q 346 31 289 31 q 451 88 411 31 q 490 240 490 144 l 490 971 l 526 971 l 526 242 q 471 53 526 119 q 313 -14 415 -14 q 211 7 257 -14 q 133 65 165 28 q 83 156 100 103 q 65 276 65 210 l 65 971 l 228 971 m 163 1103 q 180 1147 163 1129 q 225 1164 197 1164 q 272 1147 253 1164 q 290 1103 290 1129 q 272 1058 290 1075 q 225 1040 253 1040 q 180 1058 197 1040 q 163 1103 163 1075 m 353 1103 q 371 1147 353 1129 q 417 1164 389 1164 q 463 1147 444 1164 q 481 1103 481 1131 q 463 1058 481 1075 q 417 1040 444 1040 q 371 1058 389 1040 q 353 1103 353 1075 z "},"Ù":{"ha":583,"x_min":65,"x_max":526,"o":"m 228 971 l 228 190 q 258 73 228 115 q 346 31 289 31 q 451 88 411 31 q 490 240 490 144 l 490 971 l 526 971 l 526 242 q 471 53 526 119 q 313 -14 415 -14 q 211 7 257 -14 q 133 65 165 28 q 83 156 100 103 q 65 276 65 210 l 65 971 l 228 971 m 310 1028 l 181 1186 l 294 1186 l 336 1028 l 310 1028 z "},"Ű":{"ha":583,"x_min":65,"x_max":526,"o":"m 228 971 l 228 190 q 258 73 228 115 q 346 31 289 31 q 451 88 411 31 q 490 240 490 144 l 490 971 l 526 971 l 526 242 q 471 53 526 119 q 313 -14 415 -14 q 211 7 257 -14 q 133 65 165 28 q 83 156 100 103 q 65 276 65 210 l 65 971 l 228 971 m 378 1028 l 419 1186 l 522 1186 l 404 1028 l 378 1028 m 222 1028 l 265 1186 l 368 1186 l 250 1028 l 222 1028 z "},"Ū":{"ha":583,"x_min":65,"x_max":526,"o":"m 228 971 l 228 190 q 258 73 228 115 q 346 31 289 31 q 451 88 411 31 q 490 240 490 144 l 490 971 l 526 971 l 526 242 q 471 53 526 119 q 313 -14 415 -14 q 211 7 257 -14 q 133 65 165 28 q 83 156 100 103 q 65 276 65 210 l 65 971 l 228 971 m 443 1085 l 185 1085 l 185 1121 l 443 1121 l 443 1085 z "},"Ų":{"ha":583,"x_min":65,"x_max":526,"o":"m 228 971 l 228 190 q 258 73 228 115 q 346 31 289 31 q 451 88 411 31 q 490 240 490 144 l 490 971 l 526 971 l 526 242 q 471 53 526 119 q 313 -14 415 -14 q 211 7 257 -14 q 133 65 165 28 q 83 156 100 103 q 65 276 65 210 l 65 971 l 228 971 m 457 -111 q 413 -174 440 -151 q 351 -196 385 -196 q 292 -174 317 -196 q 268 -119 268 -151 q 295 -56 268 -87 q 371 3 322 -25 l 393 3 q 348 -40 364 -15 q 332 -90 332 -65 q 346 -134 332 -117 q 379 -151 360 -151 q 438 -101 415 -151 l 457 -111 z "},"Ů":{"ha":583,"x_min":65,"x_max":526,"o":"m 228 971 l 228 190 q 258 73 228 115 q 346 31 289 31 q 451 88 411 31 q 490 240 490 144 l 490 971 l 526 971 l 526 242 q 471 53 526 119 q 313 -14 415 -14 q 211 7 257 -14 q 133 65 165 28 q 83 156 100 103 q 65 276 65 210 l 65 971 l 228 971 m 233 1111 q 256 1169 233 1146 q 315 1192 279 1192 q 373 1169 350 1192 q 396 1111 396 1146 q 373 1053 396 1076 q 315 1031 350 1031 q 256 1053 279 1031 q 233 1111 233 1076 m 261 1111 q 276 1074 261 1089 q 315 1058 292 1058 q 353 1074 338 1058 q 368 1111 368 1089 q 353 1149 368 1135 q 315 1164 338 1164 q 276 1149 292 1164 q 261 1111 261 1135 z "},"Ũ":{"ha":583,"x_min":65,"x_max":526,"o":"m 228 971 l 228 190 q 258 73 228 115 q 346 31 289 31 q 451 88 411 31 q 490 240 490 144 l 490 971 l 526 971 l 526 242 q 471 53 526 119 q 313 -14 415 -14 q 211 7 257 -14 q 133 65 165 28 q 83 156 100 103 q 65 276 65 210 l 65 971 l 228 971 m 194 1060 l 176 1071 q 278 1157 218 1157 q 318 1147 300 1157 l 357 1131 q 392 1121 378 1121 q 435 1157 418 1121 l 454 1147 q 354 1058 415 1058 q 331 1062 343 1058 q 308 1069 319 1065 l 281 1082 q 243 1093 257 1093 q 194 1060 214 1093 z "},"Ẃ":{"ha":706,"x_min":-10,"x_max":717,"o":"m 550 390 l 558 335 l 568 335 l 574 390 l 678 971 l 717 971 l 542 0 l 471 0 l 371 478 l 364 533 l 354 533 l 347 478 l 260 0 l 189 0 l -10 971 l 151 971 l 268 390 l 276 335 l 286 335 l 293 390 l 338 646 l 272 971 l 432 971 l 550 390 m 322 1028 l 364 1186 l 478 1186 l 349 1028 l 322 1028 z "},"Ŵ":{"ha":706,"x_min":-10,"x_max":717,"o":"m 550 390 l 558 335 l 568 335 l 574 390 l 678 971 l 717 971 l 542 0 l 471 0 l 371 478 l 364 533 l 354 533 l 347 478 l 260 0 l 189 0 l -10 971 l 151 971 l 268 390 l 276 335 l 286 335 l 293 390 l 338 646 l 272 971 l 432 971 l 550 390 m 338 1185 l 357 1185 l 488 1028 l 457 1028 l 346 1096 l 236 1028 l 206 1028 l 338 1185 z "},"Ẅ":{"ha":706,"x_min":-10,"x_max":717,"o":"m 550 390 l 558 335 l 568 335 l 574 390 l 678 971 l 717 971 l 542 0 l 471 0 l 371 478 l 364 533 l 354 533 l 347 478 l 260 0 l 189 0 l -10 971 l 151 971 l 268 390 l 276 335 l 286 335 l 293 390 l 338 646 l 272 971 l 432 971 l 550 390 m 193 1103 q 210 1147 193 1129 q 256 1164 228 1164 q 302 1147 283 1164 q 321 1103 321 1129 q 302 1058 321 1075 q 256 1040 283 1040 q 210 1058 228 1040 q 193 1103 193 1075 m 383 1103 q 401 1147 383 1129 q 447 1164 419 1164 q 493 1147 475 1164 q 511 1103 511 1131 q 493 1058 511 1075 q 447 1040 475 1040 q 401 1058 419 1040 q 383 1103 383 1075 z "},"Ẁ":{"ha":706,"x_min":-10,"x_max":717,"o":"m 550 390 l 558 335 l 568 335 l 574 390 l 678 971 l 717 971 l 542 0 l 471 0 l 371 478 l 364 533 l 354 533 l 347 478 l 260 0 l 189 0 l -10 971 l 151 971 l 268 390 l 276 335 l 286 335 l 293 390 l 338 646 l 272 971 l 432 971 l 550 390 m 340 1028 l 211 1186 l 325 1186 l 367 1028 l 340 1028 z "},"Ý":{"ha":486,"x_min":-11,"x_max":496,"o":"m 299 578 l 315 522 l 325 522 l 338 578 l 456 969 l 496 969 l 340 456 l 340 0 l 178 0 l 178 440 l -11 969 l 160 969 l 299 578 m 253 1028 l 294 1186 l 408 1186 l 279 1028 l 253 1028 z "},"Ŷ":{"ha":486,"x_min":-11,"x_max":496,"o":"m 299 578 l 315 522 l 325 522 l 338 578 l 456 969 l 496 969 l 340 456 l 340 0 l 178 0 l 178 440 l -11 969 l 160 969 l 299 578 m 267 1185 l 286 1185 l 417 1028 l 386 1028 l 275 1096 l 165 1028 l 135 1028 l 267 1185 z "},"Ỳ":{"ha":486,"x_min":-11,"x_max":496,"o":"m 299 578 l 315 522 l 325 522 l 338 578 l 456 969 l 496 969 l 340 456 l 340 0 l 178 0 l 178 440 l -11 969 l 160 969 l 299 578 m 269 1028 l 140 1186 l 254 1186 l 296 1028 l 269 1028 z "},"Ź":{"ha":583,"x_min":32,"x_max":551,"o":"m 82 935 l 82 971 l 532 971 l 532 935 l 203 36 l 551 36 l 551 0 l 32 0 l 32 36 l 363 935 l 82 935 m 281 1028 l 322 1186 l 436 1186 l 307 1028 l 281 1028 z "},"Ž":{"ha":583,"x_min":32,"x_max":551,"o":"m 82 935 l 82 971 l 532 971 l 532 935 l 203 36 l 551 36 l 551 0 l 32 0 l 32 36 l 363 935 l 82 935 m 192 1185 l 301 1117 l 413 1185 l 443 1185 l 313 1028 l 293 1028 l 161 1185 l 192 1185 z "},"á":{"ha":497,"x_min":31,"x_max":461,"o":"m 31 206 q 95 338 31 289 q 303 407 160 386 l 303 569 q 280 639 303 614 q 217 664 257 664 q 144 647 182 664 q 88 606 107 631 l 63 628 q 139 681 90 660 q 249 701 188 701 q 332 687 293 701 q 399 646 371 672 q 444 585 428 619 q 461 508 461 550 l 461 0 l 303 0 l 303 40 l 308 75 l 300 78 q 237 12 275 36 q 158 -12 199 -12 q 67 31 104 -12 q 31 138 31 74 l 31 206 m 232 56 q 303 113 269 56 l 303 388 q 247 369 269 379 q 212 342 225 358 q 193 301 199 325 q 188 243 188 278 l 188 129 q 199 76 188 96 q 232 56 211 56 m 221 788 l 263 946 l 376 946 l 247 788 l 221 788 z "},"ă":{"ha":497,"x_min":31,"x_max":461,"o":"m 31 206 q 95 338 31 289 q 303 407 160 386 l 303 569 q 280 639 303 614 q 217 664 257 664 q 144 647 182 664 q 88 606 107 631 l 63 628 q 139 681 90 660 q 249 701 188 701 q 332 687 293 701 q 399 646 371 672 q 444 585 428 619 q 461 508 461 550 l 461 0 l 303 0 l 303 40 l 308 75 l 300 78 q 237 12 275 36 q 158 -12 199 -12 q 67 31 104 -12 q 31 138 31 74 l 31 206 m 232 56 q 303 113 269 56 l 303 388 q 247 369 269 379 q 212 342 225 358 q 193 301 199 325 q 188 243 188 278 l 188 129 q 199 76 188 96 q 232 56 211 56 m 343 926 l 364 926 q 330 830 364 868 q 243 792 296 792 q 156 830 190 792 q 122 926 122 868 l 143 926 q 172 876 143 894 q 244 857 200 857 q 315 876 288 857 q 343 926 343 894 z "},"â":{"ha":497,"x_min":31,"x_max":461,"o":"m 31 206 q 95 338 31 289 q 303 407 160 386 l 303 569 q 280 639 303 614 q 217 664 257 664 q 144 647 182 664 q 88 606 107 631 l 63 628 q 139 681 90 660 q 249 701 188 701 q 332 687 293 701 q 399 646 371 672 q 444 585 428 619 q 461 508 461 550 l 461 0 l 303 0 l 303 40 l 308 75 l 300 78 q 237 12 275 36 q 158 -12 199 -12 q 67 31 104 -12 q 31 138 31 74 l 31 206 m 232 56 q 303 113 269 56 l 303 388 q 247 369 269 379 q 212 342 225 358 q 193 301 199 325 q 188 243 188 278 l 188 129 q 199 76 188 96 q 232 56 211 56 m 235 944 l 254 944 l 385 788 l 354 788 l 243 856 l 133 788 l 103 788 l 235 944 z "},"ā":{"ha":497,"x_min":31,"x_max":461,"o":"m 31 206 q 95 338 31 289 q 303 407 160 386 l 303 569 q 280 639 303 614 q 217 664 257 664 q 144 647 182 664 q 88 606 107 631 l 63 628 q 139 681 90 660 q 249 701 188 701 q 332 687 293 701 q 399 646 371 672 q 444 585 428 619 q 461 508 461 550 l 461 0 l 303 0 l 303 40 l 308 75 l 300 78 q 237 12 275 36 q 158 -12 199 -12 q 67 31 104 -12 q 31 138 31 74 l 31 206 m 232 56 q 303 113 269 56 l 303 388 q 247 369 269 379 q 212 342 225 358 q 193 301 199 325 q 188 243 188 278 l 188 129 q 199 76 188 96 q 232 56 211 56 m 371 844 l 113 844 l 113 881 l 371 881 l 371 844 z "},"à":{"ha":497,"x_min":31,"x_max":461,"o":"m 31 206 q 95 338 31 289 q 303 407 160 386 l 303 569 q 280 639 303 614 q 217 664 257 664 q 144 647 182 664 q 88 606 107 631 l 63 628 q 139 681 90 660 q 249 701 188 701 q 332 687 293 701 q 399 646 371 672 q 444 585 428 619 q 461 508 461 550 l 461 0 l 303 0 l 303 40 l 308 75 l 300 78 q 237 12 275 36 q 158 -12 199 -12 q 67 31 104 -12 q 31 138 31 74 l 31 206 m 232 56 q 303 113 269 56 l 303 388 q 247 369 269 379 q 212 342 225 358 q 193 301 199 325 q 188 243 188 278 l 188 129 q 199 76 188 96 q 232 56 211 56 m 238 788 l 108 946 l 222 946 l 264 788 l 238 788 z "},"ą":{"ha":497,"x_min":31,"x_max":461,"o":"m 31 206 q 95 338 31 289 q 303 407 160 386 l 303 569 q 280 639 303 614 q 217 664 257 664 q 144 647 182 664 q 88 606 107 631 l 63 628 q 139 681 90 660 q 249 701 188 701 q 332 687 293 701 q 399 646 371 672 q 444 585 428 619 q 461 508 461 550 l 461 0 l 303 0 l 303 40 l 308 75 l 300 78 q 237 12 275 36 q 158 -12 199 -12 q 67 31 104 -12 q 31 138 31 74 l 31 206 m 232 56 q 303 113 269 56 l 303 388 q 247 369 269 379 q 212 342 225 358 q 193 301 199 325 q 188 243 188 278 l 188 129 q 199 76 188 96 q 232 56 211 56 m 393 -111 q 349 -174 376 -151 q 288 -196 321 -196 q 228 -174 253 -196 q 204 -119 204 -151 q 231 -56 204 -87 q 307 3 258 -25 l 329 3 q 284 -40 300 -15 q 268 -90 268 -65 q 282 -134 268 -117 q 315 -151 296 -151 q 374 -101 351 -151 l 393 -111 z "},"å":{"ha":497,"x_min":31,"x_max":461,"o":"m 31 206 q 95 338 31 289 q 303 407 160 386 l 303 569 q 280 639 303 614 q 217 664 257 664 q 144 647 182 664 q 88 606 107 631 l 63 628 q 139 681 90 660 q 249 701 188 701 q 332 687 293 701 q 399 646 371 672 q 444 585 428 619 q 461 508 461 550 l 461 0 l 303 0 l 303 40 l 308 75 l 300 78 q 237 12 275 36 q 158 -12 199 -12 q 67 31 104 -12 q 31 138 31 74 l 31 206 m 232 56 q 303 113 269 56 l 303 388 q 247 369 269 379 q 212 342 225 358 q 193 301 199 325 q 188 243 188 278 l 188 129 q 199 76 188 96 q 232 56 211 56 m 163 871 q 185 928 163 906 q 244 951 208 951 q 302 928 279 951 q 325 871 325 906 q 302 813 325 836 q 244 790 279 790 q 185 813 208 790 q 163 871 163 836 m 190 871 q 206 833 190 849 q 244 818 221 818 q 282 833 267 818 q 297 871 297 849 q 282 909 297 894 q 244 924 267 924 q 206 909 221 924 q 190 871 190 894 z "},"ã":{"ha":497,"x_min":31,"x_max":461,"o":"m 31 206 q 95 338 31 289 q 303 407 160 386 l 303 569 q 280 639 303 614 q 217 664 257 664 q 144 647 182 664 q 88 606 107 631 l 63 628 q 139 681 90 660 q 249 701 188 701 q 332 687 293 701 q 399 646 371 672 q 444 585 428 619 q 461 508 461 550 l 461 0 l 303 0 l 303 40 l 308 75 l 300 78 q 237 12 275 36 q 158 -12 199 -12 q 67 31 104 -12 q 31 138 31 74 l 31 206 m 232 56 q 303 113 269 56 l 303 388 q 247 369 269 379 q 212 342 225 358 q 193 301 199 325 q 188 243 188 278 l 188 129 q 199 76 188 96 q 232 56 211 56 m 124 819 l 106 831 q 207 917 147 917 q 247 907 229 917 l 286 890 q 321 881 307 881 q 364 917 347 881 l 383 907 q 283 818 344 818 q 260 822 272 818 q 238 829 249 825 l 210 842 q 172 853 186 853 q 124 819 143 853 z "},"ä":{"ha":497,"x_min":31,"x_max":461,"o":"m 31 206 q 95 338 31 289 q 303 407 160 386 l 303 569 q 280 639 303 614 q 217 664 257 664 q 144 647 182 664 q 88 606 107 631 l 63 628 q 139 681 90 660 q 249 701 188 701 q 332 687 293 701 q 399 646 371 672 q 444 585 428 619 q 461 508 461 550 l 461 0 l 303 0 l 303 40 l 308 75 l 300 78 q 237 12 275 36 q 158 -12 199 -12 q 67 31 104 -12 q 31 138 31 74 l 31 206 m 232 56 q 303 113 269 56 l 303 388 q 247 369 269 379 q 212 342 225 358 q 193 301 199 325 q 188 243 188 278 l 188 129 q 199 76 188 96 q 232 56 211 56 m 90 863 q 108 906 90 889 q 153 924 125 924 q 199 906 181 924 q 218 863 218 889 q 199 817 218 835 q 153 800 181 800 q 108 817 125 800 q 90 863 90 835 m 281 863 q 299 906 281 889 q 344 924 317 924 q 390 907 372 924 q 408 863 408 890 q 390 817 408 835 q 344 800 372 800 q 299 817 317 800 q 281 863 281 835 z "},"æ":{"ha":781,"x_min":31,"x_max":747,"o":"m 303 569 q 280 639 303 614 q 217 664 257 664 q 146 647 183 664 q 88 606 108 629 l 63 628 q 139 681 90 660 q 246 701 188 701 q 383 653 332 701 l 392 653 q 522 701 444 701 q 609 684 568 701 q 681 638 650 667 q 729 569 711 608 q 747 486 747 531 l 747 333 l 460 333 l 460 113 q 488 47 460 72 q 560 22 515 22 q 653 55 610 22 q 717 139 697 88 l 747 126 q 664 24 719 60 q 533 -12 608 -12 q 409 21 463 -12 q 332 115 356 54 l 322 115 q 258 24 303 60 q 161 -12 213 -12 q 68 30 106 -12 q 31 136 31 72 l 31 204 q 96 336 31 288 q 303 407 161 385 l 303 569 m 460 586 l 460 367 l 590 367 l 590 585 q 572 642 590 618 q 526 667 553 667 q 479 642 499 667 q 460 586 460 618 m 232 56 q 276 78 253 56 q 314 136 300 101 q 303 199 303 164 l 303 388 q 248 369 269 379 q 213 342 226 358 q 193 301 199 325 q 188 243 188 278 l 188 128 q 200 76 188 96 q 232 56 213 56 z "},"ǽ":{"ha":781,"x_min":31,"x_max":747,"o":"m 303 569 q 280 639 303 614 q 217 664 257 664 q 146 647 183 664 q 88 606 108 629 l 63 628 q 139 681 90 660 q 246 701 188 701 q 383 653 332 701 l 392 653 q 522 701 444 701 q 609 684 568 701 q 681 638 650 667 q 729 569 711 608 q 747 486 747 531 l 747 333 l 460 333 l 460 113 q 488 47 460 72 q 560 22 515 22 q 653 55 610 22 q 717 139 697 88 l 747 126 q 664 24 719 60 q 533 -12 608 -12 q 409 21 463 -12 q 332 115 356 54 l 322 115 q 258 24 303 60 q 161 -12 213 -12 q 68 30 106 -12 q 31 136 31 72 l 31 204 q 96 336 31 288 q 303 407 161 385 l 303 569 m 460 586 l 460 367 l 590 367 l 590 585 q 572 642 590 618 q 526 667 553 667 q 479 642 499 667 q 460 586 460 618 m 232 56 q 276 78 253 56 q 314 136 300 101 q 303 199 303 164 l 303 388 q 248 369 269 379 q 213 342 226 358 q 193 301 199 325 q 188 243 188 278 l 188 128 q 200 76 188 96 q 232 56 213 56 m 365 788 l 407 946 l 521 946 l 392 788 l 365 788 z "},"Ÿ":{"ha":486,"x_min":-11,"x_max":496,"o":"m 299 578 l 315 522 l 325 522 l 338 578 l 456 969 l 496 969 l 340 456 l 340 0 l 178 0 l 178 440 l -11 969 l 160 969 l 299 578 m 122 1103 q 140 1147 122 1129 q 185 1164 157 1164 q 231 1147 213 1164 q 250 1103 250 1129 q 231 1058 250 1075 q 185 1040 213 1040 q 140 1058 157 1040 q 122 1103 122 1075 m 313 1103 q 331 1147 313 1129 q 376 1164 349 1164 q 422 1147 404 1164 q 440 1103 440 1131 q 422 1058 440 1075 q 376 1040 404 1040 q 331 1058 349 1040 q 313 1103 313 1075 z "},"ć":{"ha":458,"x_min":44,"x_max":475,"o":"m 44 476 q 61 566 44 525 q 107 637 78 607 q 176 683 136 667 q 264 700 217 700 q 363 681 315 700 q 442 629 410 663 l 417 606 q 357 647 393 631 q 289 664 321 664 q 224 639 247 664 q 201 569 201 614 l 201 129 q 228 53 201 81 q 300 25 256 25 q 385 51 344 25 q 446 117 426 76 l 475 103 q 397 17 450 49 q 274 -14 343 -14 q 181 3 224 -14 q 109 49 139 19 q 62 121 79 79 q 44 211 44 163 l 44 476 m 242 788 l 283 946 l 397 946 l 268 788 l 242 788 z "},"č":{"ha":458,"x_min":44,"x_max":475,"o":"m 44 476 q 61 566 44 525 q 107 637 78 607 q 176 683 136 667 q 264 700 217 700 q 363 681 315 700 q 442 629 410 663 l 417 606 q 357 647 393 631 q 289 664 321 664 q 224 639 247 664 q 201 569 201 614 l 201 129 q 228 53 201 81 q 300 25 256 25 q 385 51 344 25 q 446 117 426 76 l 475 103 q 397 17 450 49 q 274 -14 343 -14 q 181 3 224 -14 q 109 49 139 19 q 62 121 79 79 q 44 211 44 163 l 44 476 m 153 944 l 263 876 l 374 944 l 404 944 l 274 788 l 254 788 l 122 944 l 153 944 z "},"ç":{"ha":458,"x_min":44,"x_max":475,"o":"m 44 476 q 61 566 44 525 q 107 637 78 607 q 176 683 136 667 q 264 700 217 700 q 363 681 315 700 q 442 629 410 663 l 417 606 q 357 647 393 631 q 289 664 321 664 q 224 639 247 664 q 201 569 201 614 l 201 129 q 228 53 201 81 q 300 25 256 25 q 385 51 344 25 q 446 117 426 76 l 475 103 q 397 17 450 49 q 274 -14 343 -14 q 181 3 224 -14 q 109 49 139 19 q 62 121 79 79 q 44 211 44 163 l 44 476 m 204 -125 q 239 -149 217 -139 q 282 -158 261 -158 q 322 -122 322 -158 q 242 -68 322 -76 l 271 1 l 292 1 l 275 -44 q 363 -69 328 -47 q 399 -125 399 -90 q 374 -172 399 -154 q 307 -189 349 -189 q 240 -176 271 -189 q 189 -140 208 -164 l 204 -125 z "},"ĉ":{"ha":458,"x_min":44,"x_max":475,"o":"m 44 476 q 61 566 44 525 q 107 637 78 607 q 176 683 136 667 q 264 700 217 700 q 363 681 315 700 q 442 629 410 663 l 417 606 q 357 647 393 631 q 289 664 321 664 q 224 639 247 664 q 201 569 201 614 l 201 129 q 228 53 201 81 q 300 25 256 25 q 385 51 344 25 q 446 117 426 76 l 475 103 q 397 17 450 49 q 274 -14 343 -14 q 181 3 224 -14 q 109 49 139 19 q 62 121 79 79 q 44 211 44 163 l 44 476 m 256 944 l 275 944 l 406 788 l 375 788 l 264 856 l 154 788 l 124 788 l 256 944 z "},"ď":{"ha":531,"x_min":44,"x_max":667,"o":"m 332 75 l 324 78 q 280 8 306 29 q 215 -12 254 -12 q 150 3 181 -12 q 96 45 119 18 q 58 108 72 72 q 44 182 44 143 l 44 493 q 59 573 44 535 q 99 640 74 611 q 157 685 124 668 q 226 701 190 701 q 324 624 297 701 l 332 626 l 326 667 l 326 971 l 479 971 l 479 1 l 326 1 l 326 35 l 332 75 m 535 815 l 564 971 l 667 971 l 561 815 l 535 815 m 326 546 q 320 589 326 568 q 303 626 314 610 q 279 653 293 643 q 251 663 265 663 q 215 642 229 663 q 201 590 201 622 l 201 115 q 216 61 201 83 q 253 39 231 39 q 280 49 267 39 q 303 74 293 58 q 320 110 314 90 q 326 151 326 131 l 326 546 z "},"đ":{"ha":531,"x_min":44,"x_max":531,"o":"m 332 75 l 324 78 q 280 8 306 29 q 215 -12 254 -12 q 150 3 181 -12 q 96 45 119 18 q 58 108 72 72 q 44 182 44 143 l 44 493 q 59 573 44 535 q 99 640 74 611 q 157 685 124 668 q 226 701 190 701 q 324 624 297 701 l 332 626 l 326 667 l 326 971 l 479 971 l 479 1 l 326 1 l 326 35 l 332 75 m 326 546 q 320 589 326 568 q 303 626 314 610 q 279 653 293 643 q 251 663 265 663 q 215 642 229 663 q 201 590 201 622 l 201 115 q 216 61 201 83 q 253 39 231 39 q 280 49 267 39 q 303 74 293 58 q 320 110 314 90 q 326 151 326 131 l 326 546 m 221 822 l 531 822 l 531 789 l 221 789 l 221 822 z "},"é":{"ha":522,"x_min":44,"x_max":490,"o":"m 44 486 q 62 569 44 531 q 110 638 79 608 q 180 683 140 667 q 265 700 219 700 q 351 683 311 700 q 423 636 392 665 q 472 569 454 607 q 490 488 490 531 l 490 333 l 201 333 l 201 117 q 230 49 201 76 q 303 22 258 22 q 396 54 353 22 q 458 139 439 86 l 490 126 q 407 24 463 60 q 278 -12 351 -12 q 187 4 229 -12 q 113 49 144 21 q 63 117 81 78 q 44 199 44 156 l 44 486 m 333 367 l 333 582 q 315 642 333 618 q 268 667 296 667 q 221 642 240 667 q 201 582 201 618 l 201 367 l 333 367 m 243 788 l 285 946 l 399 946 l 269 788 l 243 788 z "},"ĕ":{"ha":522,"x_min":44,"x_max":490,"o":"m 44 486 q 62 569 44 531 q 110 638 79 608 q 180 683 140 667 q 265 700 219 700 q 351 683 311 700 q 423 636 392 665 q 472 569 454 607 q 490 488 490 531 l 490 333 l 201 333 l 201 117 q 230 49 201 76 q 303 22 258 22 q 396 54 353 22 q 458 139 439 86 l 490 126 q 407 24 463 60 q 278 -12 351 -12 q 187 4 229 -12 q 113 49 144 21 q 63 117 81 78 q 44 199 44 156 l 44 486 m 333 367 l 333 582 q 315 642 333 618 q 268 667 296 667 q 221 642 240 667 q 201 582 201 618 l 201 367 l 333 367 m 365 926 l 386 926 q 352 830 386 868 q 265 792 318 792 q 178 830 213 792 q 144 926 144 868 l 165 926 q 194 876 165 894 q 267 857 222 857 q 338 876 310 857 q 365 926 365 894 z "},"ě":{"ha":522,"x_min":44,"x_max":490,"o":"m 44 486 q 62 569 44 531 q 110 638 79 608 q 180 683 140 667 q 265 700 219 700 q 351 683 311 700 q 423 636 392 665 q 472 569 454 607 q 490 488 490 531 l 490 333 l 201 333 l 201 117 q 230 49 201 76 q 303 22 258 22 q 396 54 353 22 q 458 139 439 86 l 490 126 q 407 24 463 60 q 278 -12 351 -12 q 187 4 229 -12 q 113 49 144 21 q 63 117 81 78 q 44 199 44 156 l 44 486 m 333 367 l 333 582 q 315 642 333 618 q 268 667 296 667 q 221 642 240 667 q 201 582 201 618 l 201 367 l 333 367 m 154 944 l 264 876 l 375 944 l 406 944 l 275 788 l 256 788 l 124 944 l 154 944 z "},"ê":{"ha":522,"x_min":44,"x_max":490,"o":"m 44 486 q 62 569 44 531 q 110 638 79 608 q 180 683 140 667 q 265 700 219 700 q 351 683 311 700 q 423 636 392 665 q 472 569 454 607 q 490 488 490 531 l 490 333 l 201 333 l 201 117 q 230 49 201 76 q 303 22 258 22 q 396 54 353 22 q 458 139 439 86 l 490 126 q 407 24 463 60 q 278 -12 351 -12 q 187 4 229 -12 q 113 49 144 21 q 63 117 81 78 q 44 199 44 156 l 44 486 m 333 367 l 333 582 q 315 642 333 618 q 268 667 296 667 q 221 642 240 667 q 201 582 201 618 l 201 367 l 333 367 m 257 944 l 276 944 l 407 788 l 376 788 l 265 856 l 156 788 l 125 788 l 257 944 z "},"ë":{"ha":522,"x_min":44,"x_max":490,"o":"m 44 486 q 62 569 44 531 q 110 638 79 608 q 180 683 140 667 q 265 700 219 700 q 351 683 311 700 q 423 636 392 665 q 472 569 454 607 q 490 488 490 531 l 490 333 l 201 333 l 201 117 q 230 49 201 76 q 303 22 258 22 q 396 54 353 22 q 458 139 439 86 l 490 126 q 407 24 463 60 q 278 -12 351 -12 q 187 4 229 -12 q 113 49 144 21 q 63 117 81 78 q 44 199 44 156 l 44 486 m 333 367 l 333 582 q 315 642 333 618 q 268 667 296 667 q 221 642 240 667 q 201 582 201 618 l 201 367 l 333 367 m 114 863 q 131 906 114 889 q 176 924 149 924 q 223 906 204 924 q 242 863 242 889 q 223 817 242 835 q 176 800 204 800 q 131 817 149 800 q 114 863 114 835 m 304 863 q 322 906 304 889 q 368 924 340 924 q 414 907 396 924 q 432 863 432 890 q 414 817 432 835 q 368 800 396 800 q 322 817 340 800 q 304 863 304 835 z "},"è":{"ha":522,"x_min":44,"x_max":490,"o":"m 44 486 q 62 569 44 531 q 110 638 79 608 q 180 683 140 667 q 265 700 219 700 q 351 683 311 700 q 423 636 392 665 q 472 569 454 607 q 490 488 490 531 l 490 333 l 201 333 l 201 117 q 230 49 201 76 q 303 22 258 22 q 396 54 353 22 q 458 139 439 86 l 490 126 q 407 24 463 60 q 278 -12 351 -12 q 187 4 229 -12 q 113 49 144 21 q 63 117 81 78 q 44 199 44 156 l 44 486 m 333 367 l 333 582 q 315 642 333 618 q 268 667 296 667 q 221 642 240 667 q 201 582 201 618 l 201 367 l 333 367 m 261 788 l 132 946 l 246 946 l 288 788 l 261 788 z "},"ē":{"ha":522,"x_min":44,"x_max":490,"o":"m 44 486 q 62 569 44 531 q 110 638 79 608 q 180 683 140 667 q 265 700 219 700 q 351 683 311 700 q 423 636 392 665 q 472 569 454 607 q 490 488 490 531 l 490 333 l 201 333 l 201 117 q 230 49 201 76 q 303 22 258 22 q 396 54 353 22 q 458 139 439 86 l 490 126 q 407 24 463 60 q 278 -12 351 -12 q 187 4 229 -12 q 113 49 144 21 q 63 117 81 78 q 44 199 44 156 l 44 486 m 333 367 l 333 582 q 315 642 333 618 q 268 667 296 667 q 221 642 240 667 q 201 582 201 618 l 201 367 l 333 367 m 393 844 l 135 844 l 135 881 l 393 881 l 393 844 z "},"ę":{"ha":522,"x_min":44,"x_max":490,"o":"m 44 486 q 62 569 44 531 q 110 638 79 608 q 180 683 140 667 q 265 700 219 700 q 351 683 311 700 q 423 636 392 665 q 472 569 454 607 q 490 488 490 531 l 490 333 l 201 333 l 201 117 q 230 49 201 76 q 303 22 258 22 q 396 54 353 22 q 458 139 439 86 l 490 126 q 407 24 463 60 q 278 -12 351 -12 q 187 4 229 -12 q 113 49 144 21 q 63 117 81 78 q 44 199 44 156 l 44 486 m 333 367 l 333 582 q 315 642 333 618 q 268 667 296 667 q 221 642 240 667 q 201 582 201 618 l 201 367 l 333 367 m 424 -111 q 379 -174 407 -151 q 318 -196 351 -196 q 259 -174 283 -196 q 235 -119 235 -151 q 262 -56 235 -87 q 338 3 289 -25 l 360 3 q 315 -40 331 -15 q 299 -90 299 -65 q 313 -134 299 -117 q 346 -151 326 -151 q 404 -101 382 -151 l 424 -111 z "},"ğ":{"ha":524,"x_min":28,"x_max":532,"o":"m 253 -243 q 160 -230 201 -243 q 89 -193 118 -217 q 44 -135 60 -169 q 29 -61 28 -101 l 114 -61 q 152 -169 111 -128 q 263 -210 193 -210 q 324 -201 294 -210 q 375 -176 353 -192 q 410 -141 397 -161 q 424 -99 424 -121 q 402 -49 424 -68 q 349 -29 381 -29 l 176 -29 q 77 2 114 -29 q 40 86 40 33 q 67 170 40 131 q 142 240 93 210 q 73 315 97 269 q 49 417 49 361 l 49 507 q 65 583 49 547 q 108 644 81 618 q 174 686 136 671 q 253 701 211 701 q 338 685 296 701 q 413 640 381 669 q 451 694 424 675 q 518 714 479 714 l 518 622 q 491 628 504 625 q 465 631 478 631 q 431 621 446 631 q 471 514 471 574 l 471 410 q 456 327 471 365 q 413 262 440 289 q 349 219 386 235 q 267 204 311 204 q 167 228 211 204 q 114 165 114 201 q 201 126 114 126 l 400 126 q 495 85 458 126 q 532 -21 532 43 q 510 -108 532 -68 q 451 -178 489 -149 q 363 -226 414 -208 q 253 -243 311 -243 m 206 306 q 222 258 206 278 q 261 239 238 239 q 299 258 285 239 q 314 306 314 276 l 314 600 q 298 648 314 629 q 258 667 282 667 q 220 648 235 667 q 206 600 206 629 l 206 306 m 356 926 l 376 926 q 342 830 376 868 q 256 792 308 792 q 169 830 203 792 q 135 926 135 868 l 156 926 q 184 876 156 894 q 257 857 213 857 q 328 876 300 857 q 356 926 356 894 z "},"ĝ":{"ha":524,"x_min":28,"x_max":532,"o":"m 253 -243 q 160 -230 201 -243 q 89 -193 118 -217 q 44 -135 60 -169 q 29 -61 28 -101 l 114 -61 q 152 -169 111 -128 q 263 -210 193 -210 q 324 -201 294 -210 q 375 -176 353 -192 q 410 -141 397 -161 q 424 -99 424 -121 q 402 -49 424 -68 q 349 -29 381 -29 l 176 -29 q 77 2 114 -29 q 40 86 40 33 q 67 170 40 131 q 142 240 93 210 q 73 315 97 269 q 49 417 49 361 l 49 507 q 65 583 49 547 q 108 644 81 618 q 174 686 136 671 q 253 701 211 701 q 338 685 296 701 q 413 640 381 669 q 451 694 424 675 q 518 714 479 714 l 518 622 q 491 628 504 625 q 465 631 478 631 q 431 621 446 631 q 471 514 471 574 l 471 410 q 456 327 471 365 q 413 262 440 289 q 349 219 386 235 q 267 204 311 204 q 167 228 211 204 q 114 165 114 201 q 201 126 114 126 l 400 126 q 495 85 458 126 q 532 -21 532 43 q 510 -108 532 -68 q 451 -178 489 -149 q 363 -226 414 -208 q 253 -243 311 -243 m 206 306 q 222 258 206 278 q 261 239 238 239 q 299 258 285 239 q 314 306 314 276 l 314 600 q 298 648 314 629 q 258 667 282 667 q 220 648 235 667 q 206 600 206 629 l 206 306 m 247 944 l 267 944 l 397 788 l 367 788 l 256 856 l 146 788 l 115 788 l 247 944 z "},"ģ":{"ha":524,"x_min":28,"x_max":532,"o":"m 253 -243 q 160 -230 201 -243 q 89 -193 118 -217 q 44 -135 60 -169 q 29 -61 28 -101 l 114 -61 q 152 -169 111 -128 q 263 -210 193 -210 q 324 -201 294 -210 q 375 -176 353 -192 q 410 -141 397 -161 q 424 -99 424 -121 q 402 -49 424 -68 q 349 -29 381 -29 l 176 -29 q 77 2 114 -29 q 40 86 40 33 q 67 170 40 131 q 142 240 93 210 q 73 315 97 269 q 49 417 49 361 l 49 507 q 65 583 49 547 q 108 644 81 618 q 174 686 136 671 q 253 701 211 701 q 338 685 296 701 q 413 640 381 669 q 451 694 424 675 q 518 714 479 714 l 518 622 q 491 628 504 625 q 465 631 478 631 q 431 621 446 631 q 471 514 471 574 l 471 410 q 456 327 471 365 q 413 262 440 289 q 349 219 386 235 q 267 204 311 204 q 167 228 211 204 q 114 165 114 201 q 201 126 114 126 l 400 126 q 495 85 458 126 q 532 -21 532 43 q 510 -108 532 -68 q 451 -178 489 -149 q 363 -226 414 -208 q 253 -243 311 -243 m 206 306 q 222 258 206 278 q 261 239 238 239 q 299 258 285 239 q 314 306 314 276 l 314 600 q 298 648 314 629 q 258 667 282 667 q 220 648 235 667 q 206 600 206 629 l 206 306 m 221 892 q 251 900 238 900 q 292 883 276 900 q 308 842 308 867 q 291 797 308 814 q 247 781 274 781 q 201 804 218 781 q 183 868 183 828 q 209 949 183 917 q 282 990 235 982 l 288 971 q 234 940 251 960 q 221 892 217 919 z "},"ħ":{"ha":543,"x_min":11,"x_max":499,"o":"m 211 592 q 265 675 235 650 q 340 700 294 700 q 403 689 374 700 q 453 658 432 678 q 487 613 475 639 q 499 556 499 586 l 499 0 l 336 0 l 336 590 q 301 657 336 657 q 269 644 286 657 q 240 610 253 631 q 217 563 226 589 q 208 514 208 538 l 208 0 l 56 0 l 56 971 l 208 971 l 208 635 l 203 594 l 211 592 m 11 825 l 321 825 l 321 792 l 11 792 l 11 825 z "},"ĥ":{"ha":543,"x_min":56,"x_max":499,"o":"m 211 592 q 265 675 235 650 q 340 700 294 700 q 403 689 374 700 q 453 658 432 678 q 487 613 475 639 q 499 556 499 586 l 499 0 l 336 0 l 336 590 q 301 657 336 657 q 269 644 286 657 q 240 610 253 631 q 217 563 226 589 q 208 514 208 538 l 208 0 l 56 0 l 56 971 l 208 971 l 208 635 l 203 594 l 211 592 m 317 1157 l 336 1157 l 467 1000 l 436 1000 l 325 1068 l 215 1000 l 185 1000 l 317 1157 z "},"í":{"ha":281,"x_min":64,"x_max":274,"o":"m 217 688 l 217 0 l 64 0 l 64 688 l 217 688 m 118 788 l 160 946 l 274 946 l 144 788 l 118 788 z "},"ĭ":{"ha":281,"x_min":19,"x_max":261,"o":"m 217 688 l 217 0 l 64 0 l 64 688 l 217 688 m 240 926 l 261 926 q 227 830 261 868 q 140 792 193 792 q 53 830 88 792 q 19 926 19 868 l 40 926 q 69 876 40 894 q 142 857 97 857 q 213 876 185 857 q 240 926 240 894 z "},"î":{"ha":281,"x_min":0,"x_max":282,"o":"m 217 688 l 217 0 l 64 0 l 64 688 l 217 688 m 132 944 l 151 944 l 282 788 l 251 788 l 140 856 l 31 788 l 0 788 l 132 944 z "},"ï":{"ha":281,"x_min":-11,"x_max":307,"o":"m 217 688 l 217 0 l 64 0 l 64 688 l 217 688 m -11 863 q 6 906 -11 889 q 51 924 24 924 q 98 906 79 924 q 117 863 117 889 q 98 817 117 835 q 51 800 79 800 q 6 817 24 800 q -11 863 -11 835 m 179 863 q 197 906 179 889 q 243 924 215 924 q 289 907 271 924 q 307 863 307 890 q 289 817 307 835 q 243 800 271 800 q 197 817 215 800 q 179 863 179 835 z "},"ì":{"ha":281,"x_min":6,"x_max":217,"o":"m 217 688 l 217 0 l 64 0 l 64 688 l 217 688 m 135 788 l 6 946 l 119 946 l 161 788 l 135 788 z "},"ī":{"ha":281,"x_min":10,"x_max":268,"o":"m 217 688 l 217 0 l 64 0 l 64 688 l 217 688 m 268 844 l 10 844 l 10 881 l 268 881 l 268 844 z "},"į":{"ha":281,"x_min":36,"x_max":231,"o":"m 54 860 q 79 922 54 897 q 142 946 104 946 q 206 922 181 946 q 231 860 231 897 q 206 798 231 824 q 142 772 181 772 q 79 798 104 772 q 54 860 54 824 m 217 688 l 217 0 l 64 0 l 64 688 l 217 688 m 225 -111 q 181 -174 208 -151 q 119 -196 153 -196 q 60 -174 85 -196 q 36 -119 36 -151 q 63 -56 36 -87 q 139 3 90 -25 l 161 3 q 116 -40 132 -15 q 100 -90 100 -65 q 114 -134 100 -117 q 147 -151 128 -151 q 206 -101 183 -151 l 225 -111 z "},"ĩ":{"ha":281,"x_min":3,"x_max":281,"o":"m 217 688 l 217 0 l 64 0 l 64 688 l 217 688 m 21 819 l 3 831 q 104 917 44 917 q 144 907 126 917 l 183 890 q 218 881 204 881 q 261 917 244 881 l 281 907 q 181 818 242 818 q 158 822 169 818 q 135 829 146 825 l 107 842 q 69 853 83 853 q 21 819 40 853 z "},"ı":{"ha":281,"x_min":64,"x_max":217,"o":"m 217 688 l 217 0 l 64 0 l 64 688 l 217 688 z "},"ĵ":{"ha":325,"x_min":38,"x_max":329,"o":"m 264 51 q 253 -33 264 6 q 217 -108 242 -72 q 152 -176 192 -143 q 56 -243 113 -208 l 38 -221 q 67 -194 53 -207 q 90 -162 81 -181 q 106 -121 100 -144 q 111 -64 111 -97 l 111 688 l 264 688 l 264 51 m 179 944 l 199 944 l 329 788 l 299 788 l 188 856 l 78 788 l 47 788 l 179 944 z "},"ķ":{"ha":551,"x_min":56,"x_max":557,"o":"m 208 0 l 56 0 l 56 971 l 208 971 l 208 0 m 336 504 l 557 0 l 400 0 l 238 410 l 238 432 l 433 688 l 476 688 l 336 504 m 346 -154 q 314 -162 329 -162 q 272 -145 288 -162 q 256 -101 256 -128 q 273 -56 256 -74 q 318 -37 290 -37 q 367 -62 349 -37 q 385 -129 385 -86 q 358 -213 385 -181 q 282 -254 331 -246 l 276 -235 q 331 -204 313 -225 q 346 -154 350 -183 z "},"ĸ":{"ha":550,"x_min":56,"x_max":558,"o":"m 208 688 l 208 0 l 56 0 l 56 688 l 208 688 m 338 507 l 558 0 l 400 0 l 238 410 l 238 432 l 435 688 l 476 688 l 338 507 z "},"ĺ":{"ha":253,"x_min":56,"x_max":264,"o":"m 56 971 l 208 971 l 208 0 l 56 0 l 56 971 m 108 1028 l 150 1186 l 264 1186 l 135 1028 l 108 1028 z "},"ľ":{"ha":260,"x_min":56,"x_max":396,"o":"m 56 971 l 208 971 l 208 0 l 56 0 l 56 971 m 290 814 l 264 814 l 293 971 l 396 971 l 290 814 z "},"ł":{"ha":253,"x_min":-10,"x_max":271,"o":"m 56 469 l 7 443 l -10 475 l 56 510 l 56 971 l 208 971 l 208 590 l 254 614 l 271 582 l 208 549 l 208 0 l 56 0 l 56 469 z "},"ń":{"ha":539,"x_min":51,"x_max":494,"o":"m 206 592 q 259 675 229 650 q 336 700 289 700 q 399 689 369 700 q 449 658 428 678 q 482 613 469 639 q 494 556 494 586 l 494 0 l 332 0 l 332 590 q 296 657 332 657 q 265 644 281 657 q 235 610 249 631 q 213 563 221 589 q 204 514 204 538 l 204 0 l 51 0 l 51 688 l 204 688 l 204 635 l 197 594 l 206 592 m 263 788 l 304 946 l 418 946 l 289 788 l 263 788 z "},"ň":{"ha":539,"x_min":51,"x_max":494,"o":"m 206 592 q 259 675 229 650 q 336 700 289 700 q 399 689 369 700 q 449 658 428 678 q 482 613 469 639 q 494 556 494 586 l 494 0 l 332 0 l 332 590 q 296 657 332 657 q 265 644 281 657 q 235 610 249 631 q 213 563 221 589 q 204 514 204 538 l 204 0 l 51 0 l 51 688 l 204 688 l 204 635 l 197 594 l 206 592 m 175 944 l 285 876 l 396 944 l 426 944 l 296 788 l 276 788 l 144 944 l 175 944 z "},"ņ":{"ha":539,"x_min":51,"x_max":494,"o":"m 206 592 q 259 675 229 650 q 336 700 289 700 q 399 689 369 700 q 449 658 428 678 q 482 613 469 639 q 494 556 494 586 l 494 0 l 332 0 l 332 590 q 296 657 332 657 q 265 644 281 657 q 235 610 249 631 q 213 563 221 589 q 204 514 204 538 l 204 0 l 51 0 l 51 688 l 204 688 l 204 635 l 197 594 l 206 592 m 306 -154 q 274 -162 289 -162 q 231 -145 247 -162 q 215 -101 215 -128 q 233 -56 215 -74 q 278 -37 250 -37 q 326 -62 308 -37 q 344 -129 344 -86 q 317 -213 344 -181 q 242 -254 290 -246 l 236 -235 q 291 -204 272 -225 q 306 -154 310 -183 z "},"ñ":{"ha":539,"x_min":51,"x_max":494,"o":"m 206 592 q 259 675 229 650 q 336 700 289 700 q 399 689 369 700 q 449 658 428 678 q 482 613 469 639 q 494 556 494 586 l 494 0 l 332 0 l 332 590 q 296 657 332 657 q 265 644 281 657 q 235 610 249 631 q 213 563 221 589 q 204 514 204 538 l 204 0 l 51 0 l 51 688 l 204 688 l 204 635 l 197 594 l 206 592 m 165 819 l 147 831 q 249 917 189 917 q 289 907 271 917 l 328 890 q 363 881 349 881 q 406 917 389 881 l 425 907 q 325 818 386 818 q 302 822 314 818 q 279 829 290 825 l 251 842 q 214 853 228 853 q 165 819 185 853 z "},"ŀ":{"ha":418,"x_min":56,"x_max":411,"o":"m 56 971 l 208 971 l 208 0 l 56 0 l 56 971 m 271 506 q 290 556 271 536 q 340 575 310 575 q 391 556 371 575 q 411 506 411 536 q 391 455 411 475 q 340 435 371 435 q 290 455 310 435 q 271 506 271 475 z "},"ó":{"ha":535,"x_min":44,"x_max":490,"o":"m 264 701 q 351 684 310 701 q 423 638 392 667 q 472 569 454 608 q 490 489 490 531 l 490 199 q 473 117 490 156 q 426 49 456 78 q 356 3 396 19 q 271 -14 317 -14 q 184 3 225 -14 q 112 50 143 21 q 63 117 81 79 q 44 199 44 156 l 44 489 q 62 571 44 532 q 109 639 79 610 q 179 685 139 668 q 264 701 219 701 m 268 667 q 221 642 240 667 q 201 582 201 618 l 201 104 q 220 44 201 68 q 269 21 239 21 q 315 44 297 21 q 333 104 333 68 l 333 582 q 315 643 333 619 q 268 667 296 667 m 240 788 l 282 946 l 396 946 l 267 788 l 240 788 z "},"ŏ":{"ha":535,"x_min":44,"x_max":490,"o":"m 264 701 q 351 684 310 701 q 423 638 392 667 q 472 569 454 608 q 490 489 490 531 l 490 199 q 473 117 490 156 q 426 49 456 78 q 356 3 396 19 q 271 -14 317 -14 q 184 3 225 -14 q 112 50 143 21 q 63 117 81 79 q 44 199 44 156 l 44 489 q 62 571 44 532 q 109 639 79 610 q 179 685 139 668 q 264 701 219 701 m 268 667 q 221 642 240 667 q 201 582 201 618 l 201 104 q 220 44 201 68 q 269 21 239 21 q 315 44 297 21 q 333 104 333 68 l 333 582 q 315 643 333 619 q 268 667 296 667 m 363 926 l 383 926 q 349 830 383 868 q 263 792 315 792 q 176 830 210 792 q 142 926 142 868 l 163 926 q 191 876 163 894 q 264 857 219 857 q 335 876 307 857 q 363 926 363 894 z "},"ô":{"ha":535,"x_min":44,"x_max":490,"o":"m 264 701 q 351 684 310 701 q 423 638 392 667 q 472 569 454 608 q 490 489 490 531 l 490 199 q 473 117 490 156 q 426 49 456 78 q 356 3 396 19 q 271 -14 317 -14 q 184 3 225 -14 q 112 50 143 21 q 63 117 81 79 q 44 199 44 156 l 44 489 q 62 571 44 532 q 109 639 79 610 q 179 685 139 668 q 264 701 219 701 m 268 667 q 221 642 240 667 q 201 582 201 618 l 201 104 q 220 44 201 68 q 269 21 239 21 q 315 44 297 21 q 333 104 333 68 l 333 582 q 315 643 333 619 q 268 667 296 667 m 254 944 l 274 944 l 404 788 l 374 788 l 263 856 l 153 788 l 122 788 l 254 944 z "},"ö":{"ha":535,"x_min":44,"x_max":490,"o":"m 264 701 q 351 684 310 701 q 423 638 392 667 q 472 569 454 608 q 490 489 490 531 l 490 199 q 473 117 490 156 q 426 49 456 78 q 356 3 396 19 q 271 -14 317 -14 q 184 3 225 -14 q 112 50 143 21 q 63 117 81 79 q 44 199 44 156 l 44 489 q 62 571 44 532 q 109 639 79 610 q 179 685 139 668 q 264 701 219 701 m 268 667 q 221 642 240 667 q 201 582 201 618 l 201 104 q 220 44 201 68 q 269 21 239 21 q 315 44 297 21 q 333 104 333 68 l 333 582 q 315 643 333 619 q 268 667 296 667 m 111 863 q 128 906 111 889 q 174 924 146 924 q 220 906 201 924 q 239 863 239 889 q 220 817 239 835 q 174 800 201 800 q 128 817 146 800 q 111 863 111 835 m 301 863 q 319 906 301 889 q 365 924 338 924 q 411 907 393 924 q 429 863 429 890 q 411 817 429 835 q 365 800 393 800 q 319 817 338 800 q 301 863 301 835 z "},"œ":{"ha":810,"x_min":44,"x_max":779,"o":"m 268 700 q 344 687 308 700 q 406 647 379 674 l 414 647 q 476 686 440 672 q 553 700 513 700 q 640 683 599 700 q 711 636 681 665 q 760 568 742 607 q 778 485 778 529 l 778 333 l 489 333 l 489 117 q 517 49 489 75 q 592 22 546 22 q 685 55 642 22 q 747 139 728 88 l 779 126 q 696 24 751 60 q 565 -12 640 -12 q 483 1 521 -12 q 418 39 446 14 l 410 39 q 350 1 385 14 q 275 -12 315 -12 q 186 4 228 -12 q 113 50 144 21 q 63 117 82 79 q 44 199 44 156 l 44 488 q 63 569 44 531 q 110 638 81 608 q 181 683 140 667 q 268 700 222 700 m 332 582 q 313 642 332 617 q 268 667 294 667 q 222 641 242 667 q 201 582 201 615 l 201 104 q 222 46 201 71 q 269 21 242 21 q 314 45 296 21 q 332 106 332 69 l 332 582 m 489 586 l 489 367 l 621 367 l 621 585 q 602 642 621 618 q 557 667 583 667 q 509 642 529 667 q 489 586 489 618 z "},"ò":{"ha":535,"x_min":44,"x_max":490,"o":"m 264 701 q 351 684 310 701 q 423 638 392 667 q 472 569 454 608 q 490 489 490 531 l 490 199 q 473 117 490 156 q 426 49 456 78 q 356 3 396 19 q 271 -14 317 -14 q 184 3 225 -14 q 112 50 143 21 q 63 117 81 79 q 44 199 44 156 l 44 489 q 62 571 44 532 q 109 639 79 610 q 179 685 139 668 q 264 701 219 701 m 268 667 q 221 642 240 667 q 201 582 201 618 l 201 104 q 220 44 201 68 q 269 21 239 21 q 315 44 297 21 q 333 104 333 68 l 333 582 q 315 643 333 619 q 268 667 296 667 m 258 788 l 129 946 l 243 946 l 285 788 l 258 788 z "},"ő":{"ha":535,"x_min":44,"x_max":490,"o":"m 264 701 q 351 684 310 701 q 423 638 392 667 q 472 569 454 608 q 490 489 490 531 l 490 199 q 473 117 490 156 q 426 49 456 78 q 356 3 396 19 q 271 -14 317 -14 q 184 3 225 -14 q 112 50 143 21 q 63 117 81 79 q 44 199 44 156 l 44 489 q 62 571 44 532 q 109 639 79 610 q 179 685 139 668 q 264 701 219 701 m 268 667 q 221 642 240 667 q 201 582 201 618 l 201 104 q 220 44 201 68 q 269 21 239 21 q 315 44 297 21 q 333 104 333 68 l 333 582 q 315 643 333 619 q 268 667 296 667 m 326 788 l 368 946 l 471 946 l 353 788 l 326 788 m 171 788 l 214 946 l 317 946 l 199 788 l 171 788 z "},"ō":{"ha":535,"x_min":44,"x_max":490,"o":"m 264 701 q 351 684 310 701 q 423 638 392 667 q 472 569 454 608 q 490 489 490 531 l 490 199 q 473 117 490 156 q 426 49 456 78 q 356 3 396 19 q 271 -14 317 -14 q 184 3 225 -14 q 112 50 143 21 q 63 117 81 79 q 44 199 44 156 l 44 489 q 62 571 44 532 q 109 639 79 610 q 179 685 139 668 q 264 701 219 701 m 268 667 q 221 642 240 667 q 201 582 201 618 l 201 104 q 220 44 201 68 q 269 21 239 21 q 315 44 297 21 q 333 104 333 68 l 333 582 q 315 643 333 619 q 268 667 296 667 m 390 844 l 132 844 l 132 881 l 390 881 l 390 844 z "},"ø":{"ha":535,"x_min":44,"x_max":490,"o":"m 93 71 q 44 199 44 128 l 44 489 q 62 571 44 532 q 110 639 79 610 q 180 685 140 668 q 265 701 219 701 q 347 686 308 701 q 415 643 385 671 l 454 711 l 485 694 l 442 617 q 478 557 465 589 q 490 489 490 525 l 490 199 q 473 117 490 156 q 426 49 456 78 q 356 3 396 19 q 271 -14 317 -14 q 188 2 228 -14 q 118 44 149 18 l 78 -26 l 47 -10 l 93 71 m 269 667 q 221 642 240 667 q 201 582 201 618 l 201 264 l 333 497 l 333 582 q 315 643 333 619 q 269 667 297 667 m 201 104 q 221 44 201 68 q 269 21 240 21 q 315 44 297 21 q 333 104 333 68 l 333 425 l 201 192 l 201 104 z "},"ǿ":{"ha":535,"x_min":44,"x_max":490,"o":"m 93 71 q 44 199 44 128 l 44 489 q 62 571 44 532 q 110 639 79 610 q 180 685 140 668 q 265 701 219 701 q 347 686 308 701 q 415 643 385 671 l 454 711 l 485 694 l 442 617 q 478 557 465 589 q 490 489 490 525 l 490 199 q 473 117 490 156 q 426 49 456 78 q 356 3 396 19 q 271 -14 317 -14 q 188 2 228 -14 q 118 44 149 18 l 78 -26 l 47 -10 l 93 71 m 269 667 q 221 642 240 667 q 201 582 201 618 l 201 264 l 333 497 l 333 582 q 315 643 333 619 q 269 667 297 667 m 201 104 q 221 44 201 68 q 269 21 240 21 q 315 44 297 21 q 333 104 333 68 l 333 425 l 201 192 l 201 104 m 240 765 l 282 924 l 396 924 l 267 765 l 240 765 z "},"õ":{"ha":535,"x_min":44,"x_max":490,"o":"m 264 701 q 351 684 310 701 q 423 638 392 667 q 472 569 454 608 q 490 489 490 531 l 490 199 q 473 117 490 156 q 426 49 456 78 q 356 3 396 19 q 271 -14 317 -14 q 184 3 225 -14 q 112 50 143 21 q 63 117 81 79 q 44 199 44 156 l 44 489 q 62 571 44 532 q 109 639 79 610 q 179 685 139 668 q 264 701 219 701 m 268 667 q 221 642 240 667 q 201 582 201 618 l 201 104 q 220 44 201 68 q 269 21 239 21 q 315 44 297 21 q 333 104 333 68 l 333 582 q 315 643 333 619 q 268 667 296 667 m 143 819 l 125 831 q 226 917 167 917 q 267 907 249 917 l 306 890 q 340 881 326 881 q 383 917 367 881 l 403 907 q 303 818 364 818 q 280 822 292 818 q 257 829 268 825 l 229 842 q 192 853 206 853 q 143 819 163 853 z "},"ŕ":{"ha":372,"x_min":53,"x_max":363,"o":"m 203 689 l 203 590 l 196 550 l 207 547 q 263 658 219 615 q 363 701 306 701 l 363 572 q 317 574 340 576 q 272 565 293 572 q 232 544 250 557 q 203 515 214 532 l 203 0 l 53 0 l 53 689 l 203 689 m 188 788 l 229 946 l 343 946 l 214 788 l 188 788 z "},"ř":{"ha":372,"x_min":53,"x_max":363,"o":"m 203 689 l 203 590 l 196 550 l 207 547 q 263 658 219 615 q 363 701 306 701 l 363 572 q 317 574 340 576 q 272 565 293 572 q 232 544 250 557 q 203 515 214 532 l 203 0 l 53 0 l 53 689 l 203 689 m 100 944 l 210 876 l 321 944 l 351 944 l 221 788 l 201 788 l 69 944 l 100 944 z "},"ŗ":{"ha":372,"x_min":53,"x_max":363,"o":"m 203 689 l 203 590 l 196 550 l 207 547 q 263 658 219 615 q 363 701 306 701 l 363 572 q 317 574 340 576 q 272 565 293 572 q 232 544 250 557 q 203 515 214 532 l 203 0 l 53 0 l 53 689 l 203 689 m 168 -154 q 136 -162 151 -162 q 94 -145 110 -162 q 78 -101 78 -128 q 95 -56 78 -74 q 140 -37 113 -37 q 189 -62 171 -37 q 207 -129 207 -86 q 180 -213 207 -181 q 104 -254 153 -246 l 99 -235 q 153 -204 135 -225 q 168 -154 172 -183 z "},"ś":{"ha":411,"x_min":28,"x_max":397,"o":"m 351 619 q 256 661 303 661 q 203 642 224 661 q 183 590 183 622 q 208 510 183 554 l 369 232 q 397 146 397 188 q 381 84 397 113 q 338 33 365 56 q 275 -1 311 11 q 197 -14 239 -14 q 106 5 149 -14 q 28 58 63 24 l 50 83 q 115 40 82 56 q 175 25 147 25 q 222 42 204 25 q 239 90 239 60 q 194 214 239 138 l 64 435 q 29 542 29 493 q 44 604 29 575 q 85 655 58 633 q 146 689 111 676 q 219 701 181 701 q 375 643 308 701 l 351 619 m 185 788 l 226 946 l 340 946 l 211 788 l 185 788 z "},"š":{"ha":411,"x_min":28,"x_max":397,"o":"m 351 619 q 256 661 303 661 q 203 642 224 661 q 183 590 183 622 q 208 510 183 554 l 369 232 q 397 146 397 188 q 381 84 397 113 q 338 33 365 56 q 275 -1 311 11 q 197 -14 239 -14 q 106 5 149 -14 q 28 58 63 24 l 50 83 q 115 40 82 56 q 175 25 147 25 q 222 42 204 25 q 239 90 239 60 q 194 214 239 138 l 64 435 q 29 542 29 493 q 44 604 29 575 q 85 655 58 633 q 146 689 111 676 q 219 701 181 701 q 375 643 308 701 l 351 619 m 96 944 l 206 876 l 317 944 l 347 944 l 217 788 l 197 788 l 65 944 l 96 944 z "},"ș":{"ha":411,"x_min":28,"x_max":397,"o":"m 351 619 q 256 661 303 661 q 203 642 224 661 q 183 590 183 622 q 208 510 183 554 l 369 232 q 397 146 397 188 q 381 84 397 113 q 338 33 365 56 q 275 -1 311 11 q 197 -14 239 -14 q 106 5 149 -14 q 28 58 63 24 l 50 83 q 115 40 82 56 q 175 25 147 25 q 222 42 204 25 q 239 90 239 60 q 194 214 239 138 l 64 435 q 29 542 29 493 q 44 604 29 575 q 85 655 58 633 q 146 689 111 676 q 219 701 181 701 q 375 643 308 701 l 351 619 m 242 -154 q 210 -162 225 -162 q 167 -145 183 -162 q 151 -101 151 -128 q 169 -56 151 -74 q 214 -37 186 -37 q 263 -62 244 -37 q 281 -129 281 -86 q 253 -213 281 -181 q 178 -254 226 -246 l 172 -235 q 227 -204 208 -225 q 242 -154 246 -183 z "},"ŝ":{"ha":411,"x_min":28,"x_max":397,"o":"m 351 619 q 256 661 303 661 q 203 642 224 661 q 183 590 183 622 q 208 510 183 554 l 369 232 q 397 146 397 188 q 381 84 397 113 q 338 33 365 56 q 275 -1 311 11 q 197 -14 239 -14 q 106 5 149 -14 q 28 58 63 24 l 50 83 q 115 40 82 56 q 175 25 147 25 q 222 42 204 25 q 239 90 239 60 q 194 214 239 138 l 64 435 q 29 542 29 493 q 44 604 29 575 q 85 655 58 633 q 146 689 111 676 q 219 701 181 701 q 375 643 308 701 l 351 619 m 199 944 l 218 944 l 349 788 l 318 788 l 207 856 l 97 788 l 67 788 l 199 944 z "},"ŧ":{"ha":325,"x_min":1,"x_max":353,"o":"m 193 -12 q 103 30 136 -12 q 71 146 71 72 l 71 521 l 1 521 l 1 554 l 71 554 l 71 654 l 1 654 l 1 688 l 71 688 l 71 846 l 224 896 l 224 688 l 353 688 l 353 654 l 224 654 l 224 554 l 353 554 l 353 521 l 224 521 l 224 118 q 233 64 224 83 q 263 44 243 44 q 326 83 290 44 l 349 58 q 276 7 318 26 q 193 -12 233 -12 z "},"ť":{"ha":325,"x_min":1,"x_max":394,"o":"m 275 814 l 303 971 l 394 971 l 303 814 l 275 814 m 193 -12 q 103 30 136 -12 q 71 147 71 72 l 71 654 l 1 654 l 1 688 l 71 688 l 71 846 l 224 896 l 224 688 l 353 688 l 353 654 l 224 654 l 224 119 q 233 64 224 83 q 263 44 243 44 q 326 83 290 44 l 349 60 q 276 8 318 28 q 193 -12 233 -12 z "},"ţ":{"ha":325,"x_min":1,"x_max":353,"o":"m 193 -12 q 103 30 136 -12 q 71 147 71 72 l 71 654 l 1 654 l 1 688 l 71 688 l 71 846 l 224 896 l 224 688 l 353 688 l 353 654 l 224 654 l 224 119 q 233 64 224 83 q 263 44 243 44 q 326 83 290 44 l 349 60 q 276 8 318 28 q 193 -12 233 -12 m 121 -125 q 156 -149 133 -139 q 199 -158 178 -158 q 239 -122 239 -158 q 158 -68 239 -76 l 188 1 l 208 1 l 192 -44 q 280 -69 244 -47 q 315 -125 315 -90 q 290 -172 315 -154 q 224 -189 265 -189 q 156 -176 188 -189 q 106 -140 125 -164 l 121 -125 z "},"ț":{"ha":325,"x_min":1,"x_max":353,"o":"m 193 -12 q 103 30 136 -12 q 71 147 71 72 l 71 654 l 1 654 l 1 688 l 71 688 l 71 846 l 224 896 l 224 688 l 353 688 l 353 654 l 224 654 l 224 119 q 233 64 224 83 q 263 44 243 44 q 326 83 290 44 l 349 60 q 276 8 318 28 q 193 -12 233 -12 m 238 -154 q 206 -162 221 -162 q 163 -145 179 -162 q 147 -101 147 -128 q 165 -56 147 -74 q 210 -37 182 -37 q 258 -62 240 -37 q 276 -129 276 -86 q 249 -213 276 -181 q 174 -254 222 -246 l 168 -235 q 223 -204 204 -225 q 238 -154 242 -183 z "},"ú":{"ha":531,"x_min":43,"x_max":488,"o":"m 332 96 q 278 13 308 38 q 201 -12 249 -12 q 139 -1 168 -12 q 88 29 110 10 q 55 75 67 49 q 43 132 43 101 l 43 688 l 206 688 l 206 97 q 242 31 206 31 q 274 44 257 31 q 303 78 290 57 q 326 124 317 99 q 335 174 335 150 l 335 688 l 488 688 l 488 0 l 335 0 l 335 53 l 342 93 l 332 96 m 246 788 l 288 946 l 401 946 l 272 788 l 246 788 z "},"ŭ":{"ha":531,"x_min":43,"x_max":488,"o":"m 332 96 q 278 13 308 38 q 201 -12 249 -12 q 139 -1 168 -12 q 88 29 110 10 q 55 75 67 49 q 43 132 43 101 l 43 688 l 206 688 l 206 97 q 242 31 206 31 q 274 44 257 31 q 303 78 290 57 q 326 124 317 99 q 335 174 335 150 l 335 688 l 488 688 l 488 0 l 335 0 l 335 53 l 342 93 l 332 96 m 368 926 l 389 926 q 355 830 389 868 q 268 792 321 792 q 181 830 215 792 q 147 926 147 868 l 168 926 q 197 876 168 894 q 269 857 225 857 q 340 876 313 857 q 368 926 368 894 z "},"û":{"ha":531,"x_min":43,"x_max":488,"o":"m 332 96 q 278 13 308 38 q 201 -12 249 -12 q 139 -1 168 -12 q 88 29 110 10 q 55 75 67 49 q 43 132 43 101 l 43 688 l 206 688 l 206 97 q 242 31 206 31 q 274 44 257 31 q 303 78 290 57 q 326 124 317 99 q 335 174 335 150 l 335 688 l 488 688 l 488 0 l 335 0 l 335 53 l 342 93 l 332 96 m 260 944 l 279 944 l 410 788 l 379 788 l 268 856 l 158 788 l 128 788 l 260 944 z "},"ü":{"ha":531,"x_min":43,"x_max":488,"o":"m 332 96 q 278 13 308 38 q 201 -12 249 -12 q 139 -1 168 -12 q 88 29 110 10 q 55 75 67 49 q 43 132 43 101 l 43 688 l 206 688 l 206 97 q 242 31 206 31 q 274 44 257 31 q 303 78 290 57 q 326 124 317 99 q 335 174 335 150 l 335 688 l 488 688 l 488 0 l 335 0 l 335 53 l 342 93 l 332 96 m 117 863 q 134 906 117 889 q 179 924 151 924 q 226 906 207 924 q 244 863 244 889 q 226 817 244 835 q 179 800 207 800 q 134 817 151 800 q 117 863 117 835 m 307 863 q 325 906 307 889 q 371 924 343 924 q 417 907 399 924 q 435 863 435 890 q 417 817 435 835 q 371 800 399 800 q 325 817 343 800 q 307 863 307 835 z "},"ù":{"ha":531,"x_min":43,"x_max":488,"o":"m 332 96 q 278 13 308 38 q 201 -12 249 -12 q 139 -1 168 -12 q 88 29 110 10 q 55 75 67 49 q 43 132 43 101 l 43 688 l 206 688 l 206 97 q 242 31 206 31 q 274 44 257 31 q 303 78 290 57 q 326 124 317 99 q 335 174 335 150 l 335 688 l 488 688 l 488 0 l 335 0 l 335 53 l 342 93 l 332 96 m 263 788 l 133 946 l 247 946 l 289 788 l 263 788 z "},"ű":{"ha":531,"x_min":43,"x_max":488,"o":"m 332 96 q 278 13 308 38 q 201 -12 249 -12 q 139 -1 168 -12 q 88 29 110 10 q 55 75 67 49 q 43 132 43 101 l 43 688 l 206 688 l 206 97 q 242 31 206 31 q 274 44 257 31 q 303 78 290 57 q 326 124 317 99 q 335 174 335 150 l 335 688 l 488 688 l 488 0 l 335 0 l 335 53 l 342 93 l 332 96 m 332 788 l 374 946 l 476 946 l 358 788 l 332 788 m 176 788 l 219 946 l 322 946 l 204 788 l 176 788 z "},"ū":{"ha":531,"x_min":43,"x_max":488,"o":"m 332 96 q 278 13 308 38 q 201 -12 249 -12 q 139 -1 168 -12 q 88 29 110 10 q 55 75 67 49 q 43 132 43 101 l 43 688 l 206 688 l 206 97 q 242 31 206 31 q 274 44 257 31 q 303 78 290 57 q 326 124 317 99 q 335 174 335 150 l 335 688 l 488 688 l 488 0 l 335 0 l 335 53 l 342 93 l 332 96 m 396 844 l 138 844 l 138 881 l 396 881 l 396 844 z "},"ų":{"ha":531,"x_min":43,"x_max":488,"o":"m 332 96 q 278 13 308 38 q 201 -12 249 -12 q 139 -1 168 -12 q 88 29 110 10 q 55 75 67 49 q 43 132 43 101 l 43 688 l 206 688 l 206 97 q 242 31 206 31 q 274 44 257 31 q 303 78 290 57 q 326 124 317 99 q 335 174 335 150 l 335 688 l 488 688 l 488 0 l 335 0 l 335 53 l 342 93 l 332 96 m 424 -111 q 379 -174 407 -151 q 318 -196 351 -196 q 259 -174 283 -196 q 235 -119 235 -151 q 262 -56 235 -87 q 338 3 289 -25 l 360 3 q 315 -40 331 -15 q 299 -90 299 -65 q 313 -134 299 -117 q 346 -151 326 -151 q 404 -101 382 -151 l 424 -111 z "},"ů":{"ha":531,"x_min":43,"x_max":488,"o":"m 332 96 q 278 13 308 38 q 201 -12 249 -12 q 139 -1 168 -12 q 88 29 110 10 q 55 75 67 49 q 43 132 43 101 l 43 688 l 206 688 l 206 97 q 242 31 206 31 q 274 44 257 31 q 303 78 290 57 q 326 124 317 99 q 335 174 335 150 l 335 688 l 488 688 l 488 0 l 335 0 l 335 53 l 342 93 l 332 96 m 188 871 q 210 928 188 906 q 269 951 233 951 q 327 928 304 951 q 350 871 350 906 q 327 813 350 836 q 269 790 304 790 q 210 813 233 790 q 188 871 188 836 m 215 871 q 231 833 215 849 q 269 818 246 818 q 307 833 292 818 q 322 871 322 849 q 307 909 322 894 q 269 924 292 924 q 231 909 246 924 q 215 871 215 894 z "},"ũ":{"ha":531,"x_min":43,"x_max":488,"o":"m 332 96 q 278 13 308 38 q 201 -12 249 -12 q 139 -1 168 -12 q 88 29 110 10 q 55 75 67 49 q 43 132 43 101 l 43 688 l 206 688 l 206 97 q 242 31 206 31 q 274 44 257 31 q 303 78 290 57 q 326 124 317 99 q 335 174 335 150 l 335 688 l 488 688 l 488 0 l 335 0 l 335 53 l 342 93 l 332 96 m 149 819 l 131 831 q 232 917 172 917 q 272 907 254 917 l 311 890 q 346 881 332 881 q 389 917 372 881 l 408 907 q 308 818 369 818 q 285 822 297 818 q 263 829 274 825 l 235 842 q 197 853 211 853 q 149 819 168 853 z "},"ẃ":{"ha":703,"x_min":17,"x_max":685,"o":"m 17 688 l 175 688 l 264 335 l 269 294 l 279 294 l 285 335 l 333 543 l 296 688 l 456 688 l 543 335 l 550 294 l 560 294 l 565 335 l 649 688 l 685 688 l 519 0 l 474 0 l 364 428 l 357 468 l 347 468 l 342 428 l 240 0 l 194 0 l 17 688 m 347 788 l 389 946 l 503 946 l 374 788 l 347 788 z "},"ŵ":{"ha":703,"x_min":17,"x_max":685,"o":"m 17 688 l 175 688 l 264 335 l 269 294 l 279 294 l 285 335 l 333 543 l 296 688 l 456 688 l 543 335 l 550 294 l 560 294 l 565 335 l 649 688 l 685 688 l 519 0 l 474 0 l 364 428 l 357 468 l 347 468 l 342 428 l 240 0 l 194 0 l 17 688 m 361 944 l 381 944 l 511 788 l 481 788 l 369 856 l 260 788 l 229 788 l 361 944 z "},"ẅ":{"ha":703,"x_min":17,"x_max":685,"o":"m 17 688 l 175 688 l 264 335 l 269 294 l 279 294 l 285 335 l 333 543 l 296 688 l 456 688 l 543 335 l 550 294 l 560 294 l 565 335 l 649 688 l 685 688 l 519 0 l 474 0 l 364 428 l 357 468 l 347 468 l 342 428 l 240 0 l 194 0 l 17 688 m 218 863 q 235 906 218 889 q 281 924 253 924 q 327 906 308 924 q 346 863 346 889 q 327 817 346 835 q 281 800 308 800 q 235 817 253 800 q 218 863 218 835 m 408 863 q 426 906 408 889 q 472 924 444 924 q 518 907 500 924 q 536 863 536 890 q 518 817 536 835 q 472 800 500 800 q 426 817 444 800 q 408 863 408 835 z "},"ẁ":{"ha":703,"x_min":17,"x_max":685,"o":"m 17 688 l 175 688 l 264 335 l 269 294 l 279 294 l 285 335 l 333 543 l 296 688 l 456 688 l 543 335 l 550 294 l 560 294 l 565 335 l 649 688 l 685 688 l 519 0 l 474 0 l 364 428 l 357 468 l 347 468 l 342 428 l 240 0 l 194 0 l 17 688 m 364 788 l 235 946 l 349 946 l 390 788 l 364 788 z "},"ý":{"ha":463,"x_min":17,"x_max":446,"o":"m 176 688 l 283 308 l 292 268 l 301 268 l 308 308 l 408 688 l 446 688 l 194 -243 l 157 -243 l 224 0 l 214 0 l 17 688 l 176 688 m 238 788 l 279 946 l 393 946 l 264 788 l 238 788 z "},"ŷ":{"ha":463,"x_min":17,"x_max":446,"o":"m 176 688 l 283 308 l 292 268 l 301 268 l 308 308 l 408 688 l 446 688 l 194 -243 l 157 -243 l 224 0 l 214 0 l 17 688 l 176 688 m 253 944 l 272 944 l 403 788 l 372 788 l 261 856 l 151 788 l 121 788 l 253 944 z "},"ÿ":{"ha":463,"x_min":17,"x_max":446,"o":"m 176 688 l 283 308 l 292 268 l 301 268 l 308 308 l 408 688 l 446 688 l 194 -243 l 157 -243 l 224 0 l 214 0 l 17 688 l 176 688 m 108 863 q 126 906 108 889 q 171 924 143 924 q 217 906 199 924 q 236 863 236 889 q 217 817 236 835 q 171 800 199 800 q 126 817 143 800 q 108 863 108 835 m 299 863 q 317 906 299 889 q 363 924 335 924 q 408 907 390 924 q 426 863 426 890 q 408 817 426 835 q 363 800 390 800 q 317 817 335 800 q 299 863 299 835 z "},"ỳ":{"ha":463,"x_min":17,"x_max":446,"o":"m 176 688 l 283 308 l 292 268 l 301 268 l 308 308 l 408 688 l 446 688 l 194 -243 l 157 -243 l 224 0 l 214 0 l 17 688 l 176 688 m 256 788 l 126 946 l 240 946 l 282 788 l 256 788 z "},"ź":{"ha":499,"x_min":43,"x_max":469,"o":"m 43 0 l 43 33 l 296 654 l 93 654 l 93 688 l 469 688 l 469 654 l 217 33 l 469 33 l 469 0 l 43 0 m 254 788 l 296 946 l 410 946 l 281 788 l 254 788 z "},"ž":{"ha":499,"x_min":43,"x_max":469,"o":"m 43 0 l 43 33 l 296 654 l 93 654 l 93 688 l 469 688 l 469 654 l 217 33 l 469 33 l 469 0 l 43 0 m 165 944 l 275 876 l 386 944 l 417 944 l 286 788 l 267 788 l 135 944 l 165 944 z "},"¥":{"ha":486,"x_min":-11,"x_max":496,"o":"m 299 578 l 315 522 l 325 522 l 338 578 l 456 969 l 496 969 l 342 460 l 493 460 l 493 424 l 340 424 l 340 328 l 493 328 l 493 292 l 340 292 l 340 0 l 178 0 l 178 292 l 28 292 l 28 328 l 178 328 l 178 424 l 28 424 l 28 460 l 171 460 l -11 969 l 160 969 l 299 578 z "},"€":{"ha":554,"x_min":0,"x_max":553,"o":"m 58 397 l 0 397 l 0 433 l 58 433 l 58 532 l 0 532 l 0 568 l 58 568 l 58 701 q 76 819 58 767 q 128 907 94 871 q 210 963 163 943 q 317 983 258 983 q 431 962 379 983 q 521 897 483 940 l 494 874 q 343 942 426 942 q 252 906 283 942 q 221 800 221 869 l 221 568 l 463 568 l 457 532 l 221 532 l 221 433 l 436 433 l 432 397 l 221 397 l 221 178 q 342 29 221 29 q 448 60 400 29 q 519 144 496 92 l 553 129 q 465 24 525 61 q 321 -12 404 -12 q 128 66 199 -12 q 58 281 58 144 l 58 397 z "},"Ĩ":{"ha":293,"x_min":8,"x_max":286,"o":"m 228 971 l 228 0 l 65 0 l 65 971 l 228 971 m 26 1060 l 8 1071 q 110 1157 50 1157 q 150 1147 132 1157 l 189 1131 q 224 1121 210 1121 q 267 1157 250 1121 l 286 1147 q 186 1058 247 1058 q 163 1062 175 1058 q 140 1069 151 1065 l 113 1082 q 75 1093 89 1093 q 26 1060 46 1093 z "},"Ō":{"ha":638,"x_min":58,"x_max":581,"o":"m 58 706 q 77 819 58 768 q 131 908 96 871 q 214 965 165 944 q 321 985 263 985 q 427 965 379 985 q 509 908 475 944 q 562 819 543 871 q 581 706 581 768 l 581 278 q 562 158 581 213 q 509 66 543 104 q 426 7 475 28 q 319 -14 378 -14 q 213 7 261 -14 q 130 66 164 28 q 77 158 96 104 q 58 278 58 213 l 58 706 m 221 172 q 247 61 221 99 q 321 24 272 24 q 418 172 418 24 l 418 800 q 321 947 418 947 q 247 909 272 947 q 221 800 221 871 l 221 172 m 447 1085 l 189 1085 l 189 1121 l 447 1121 l 447 1085 z "},"E":{"ha":465,"x_min":67,"x_max":435,"o":"m 435 971 l 435 935 l 228 935 l 228 514 l 406 514 l 406 478 l 228 478 l 228 36 l 435 36 l 435 0 l 67 0 l 67 971 l 435 971 z "},"W":{"ha":706,"x_min":-10,"x_max":717,"o":"m 550 390 l 558 335 l 568 335 l 574 390 l 678 971 l 717 971 l 542 0 l 471 0 l 371 478 l 364 533 l 354 533 l 347 478 l 260 0 l 189 0 l -10 971 l 151 971 l 268 390 l 276 335 l 286 335 l 293 390 l 338 646 l 272 971 l 432 971 l 550 390 z "},"f":{"ha":289,"x_min":3,"x_max":397,"o":"m 74 688 l 74 811 q 87 881 74 849 q 124 935 100 913 q 180 972 147 958 q 251 985 213 985 q 397 940 325 985 l 379 910 q 289 942 326 942 q 226 849 226 942 l 226 688 l 356 688 l 356 654 l 226 654 l 226 0 l 74 0 l 74 654 l 3 654 l 3 688 l 74 688 z "},"n":{"ha":539,"x_min":51,"x_max":494,"o":"m 206 592 q 259 675 229 650 q 336 700 289 700 q 399 689 369 700 q 449 658 428 678 q 482 613 469 639 q 494 556 494 586 l 494 0 l 332 0 l 332 590 q 296 657 332 657 q 265 644 281 657 q 235 610 249 631 q 213 563 221 589 q 204 514 204 538 l 204 0 l 51 0 l 51 688 l 204 688 l 204 635 l 197 594 l 206 592 z "},"u":{"ha":531,"x_min":43,"x_max":488,"o":"m 332 96 q 278 13 308 38 q 201 -12 249 -12 q 139 -1 168 -12 q 88 29 110 10 q 55 75 67 49 q 43 132 43 101 l 43 688 l 206 688 l 206 97 q 242 31 206 31 q 274 44 257 31 q 303 78 290 57 q 326 124 317 99 q 335 174 335 150 l 335 688 l 488 688 l 488 0 l 335 0 l 335 53 l 342 93 l 332 96 z "},"w":{"ha":703,"x_min":17,"x_max":685,"o":"m 17 688 l 175 688 l 264 335 l 269 294 l 279 294 l 285 335 l 333 543 l 296 688 l 456 688 l 543 335 l 550 294 l 560 294 l 565 335 l 649 688 l 685 688 l 519 0 l 474 0 l 364 428 l 357 468 l 347 468 l 342 428 l 240 0 l 194 0 l 17 688 z "},"ŋ":{"ha":544,"x_min":51,"x_max":494,"o":"m 336 700 q 399 689 369 700 q 449 658 428 678 q 483 613 471 639 q 494 556 494 586 l 494 51 q 483 -31 494 7 q 444 -104 471 -69 q 376 -173 418 -139 q 275 -242 335 -207 l 258 -219 q 288 -193 274 -207 q 311 -162 301 -179 q 326 -121 321 -144 q 332 -64 332 -97 l 332 590 q 297 657 332 657 q 265 644 282 657 q 235 610 249 631 q 213 563 222 589 q 204 514 204 538 l 204 0 l 51 0 l 51 688 l 204 688 l 204 635 l 199 594 l 207 592 q 260 675 231 650 q 336 700 290 700 z "},"ﬁ":{"ha":571,"x_min":3,"x_max":507,"o":"m 74 688 l 74 811 q 87 881 74 849 q 124 935 100 913 q 181 972 149 958 q 253 985 214 985 q 417 926 335 985 l 397 897 q 289 942 331 942 q 226 849 226 942 l 226 688 l 507 688 l 507 0 l 354 0 l 354 654 l 226 654 l 226 0 l 74 0 l 74 654 l 3 654 l 3 688 l 74 688 z "},"ﬂ":{"ha":550,"x_min":3,"x_max":507,"o":"m 74 688 l 74 811 q 87 881 74 849 q 124 935 100 913 q 181 972 149 958 q 253 985 214 985 q 303 979 278 985 q 354 963 328 974 l 354 972 l 507 972 l 507 0 l 354 0 l 354 654 l 226 654 l 226 0 l 74 0 l 74 654 l 3 654 l 3 688 l 74 688 m 354 688 l 354 922 q 289 942 313 942 q 226 849 226 942 l 226 688 l 354 688 z "},"ﬀ":{"ha":568,"x_min":3,"x_max":675,"o":"m 351 0 l 351 654 l 226 654 l 226 0 l 74 0 l 74 654 l 3 654 l 3 688 l 74 688 l 74 788 q 88 860 74 826 q 126 918 101 893 q 184 957 150 943 q 257 971 218 971 q 324 960 289 971 q 394 929 360 950 q 528 985 443 985 q 675 939 601 985 l 657 910 q 567 940 606 940 q 504 849 504 940 l 504 688 l 633 688 l 633 654 l 504 654 l 504 0 l 351 0 m 226 688 l 351 688 l 351 811 q 358 858 351 835 q 376 900 365 881 q 297 926 331 926 q 226 825 226 926 l 226 688 z "},"ﬃ":{"ha":849,"x_min":3,"x_max":785,"o":"m 351 0 l 351 654 l 226 654 l 226 0 l 74 0 l 74 654 l 3 654 l 3 688 l 74 688 l 74 788 q 88 860 74 826 q 126 918 101 893 q 184 957 150 943 q 257 971 218 971 q 396 929 325 971 q 528 985 443 985 q 694 925 614 985 l 675 897 q 567 940 607 940 q 504 847 504 940 l 504 688 l 785 688 l 785 0 l 632 0 l 632 654 l 504 654 l 504 0 l 351 0 m 297 926 q 226 825 226 926 l 226 688 l 351 688 l 351 811 q 358 858 351 835 q 376 900 365 881 q 297 926 331 926 z "},"ﬄ":{"ha":829,"x_min":3,"x_max":785,"o":"m 351 0 l 351 654 l 226 654 l 226 0 l 74 0 l 74 654 l 3 654 l 3 688 l 74 688 l 74 788 q 88 860 74 826 q 126 918 101 893 q 184 957 150 943 q 257 971 218 971 q 324 960 289 971 q 394 929 360 950 q 528 985 443 985 q 632 961 578 985 l 632 971 l 785 971 l 785 0 l 632 0 l 632 654 l 504 654 l 504 0 l 351 0 m 632 688 l 632 922 q 567 940 594 940 q 504 847 504 940 l 504 688 l 632 688 m 297 926 q 226 825 226 926 l 226 688 l 351 688 l 351 811 q 358 858 351 835 q 376 900 365 881 q 297 926 331 926 z "},"¼":{"ha":506,"x_min":39,"x_max":468,"o":"m 81 931 l 47 913 l 39 929 l 114 971 l 146 971 l 146 553 l 81 553 l 81 931 m 340 971 l 378 971 l 164 0 l 125 0 l 340 971 m 264 108 l 400 418 l 435 418 l 435 131 l 468 131 l 468 78 l 435 78 l 435 0 l 368 0 l 368 78 l 264 78 l 264 108 m 364 289 l 299 133 l 299 131 l 368 131 l 368 289 l 364 289 z "},"Š":{"ha":521,"x_min":58,"x_max":492,"o":"m 332 128 q 319 202 332 163 q 279 296 307 242 l 106 642 q 69 779 69 714 q 85 863 69 825 q 127 927 100 900 q 192 969 154 954 q 274 985 229 985 q 383 961 331 985 q 471 897 435 938 l 446 872 q 381 920 419 901 q 310 939 343 939 q 247 911 269 939 q 225 835 225 883 q 260 703 225 776 l 463 290 q 492 176 492 231 q 474 100 492 135 q 426 40 457 65 q 351 1 394 15 q 258 -14 308 -14 q 58 49 153 -14 l 78 79 q 160 42 117 56 q 238 29 203 29 q 332 128 332 29 m 161 1185 l 271 1117 l 382 1185 l 413 1185 l 282 1028 l 263 1028 l 131 1185 l 161 1185 z "},"Ś":{"ha":521,"x_min":58,"x_max":492,"o":"m 332 128 q 319 202 332 163 q 279 296 307 242 l 106 642 q 69 779 69 714 q 85 863 69 825 q 127 927 100 900 q 192 969 154 954 q 274 985 229 985 q 383 961 331 985 q 471 897 435 938 l 446 872 q 381 920 419 901 q 310 939 343 939 q 247 911 269 939 q 225 835 225 883 q 260 703 225 776 l 463 290 q 492 176 492 231 q 474 100 492 135 q 426 40 457 65 q 351 1 394 15 q 258 -14 308 -14 q 58 49 153 -14 l 78 79 q 160 42 117 56 q 238 29 203 29 q 332 128 332 29 m 250 1028 l 292 1186 l 406 1186 l 276 1028 l 250 1028 z "},"Ŝ":{"ha":521,"x_min":58,"x_max":492,"o":"m 332 128 q 319 202 332 163 q 279 296 307 242 l 106 642 q 69 779 69 714 q 85 863 69 825 q 127 927 100 900 q 192 969 154 954 q 274 985 229 985 q 383 961 331 985 q 471 897 435 938 l 446 872 q 381 920 419 901 q 310 939 343 939 q 247 911 269 939 q 225 835 225 883 q 260 703 225 776 l 463 290 q 492 176 492 231 q 474 100 492 135 q 426 40 457 65 q 351 1 394 15 q 258 -14 308 -14 q 58 49 153 -14 l 78 79 q 160 42 117 56 q 238 29 203 29 q 332 128 332 29 m 264 1185 l 283 1185 l 414 1028 l 383 1028 l 272 1096 l 163 1028 l 132 1028 l 264 1185 z "},"Ș":{"ha":521,"x_min":58,"x_max":492,"o":"m 332 128 q 319 202 332 163 q 279 296 307 242 l 106 642 q 69 779 69 714 q 85 863 69 825 q 127 927 100 900 q 192 969 154 954 q 274 985 229 985 q 383 961 331 985 q 471 897 435 938 l 446 872 q 381 920 419 901 q 310 939 343 939 q 247 911 269 939 q 225 835 225 883 q 260 703 225 776 l 463 290 q 492 176 492 231 q 474 100 492 135 q 426 40 457 65 q 351 1 394 15 q 258 -14 308 -14 q 58 49 153 -14 l 78 79 q 160 42 117 56 q 238 29 203 29 q 332 128 332 29 m 304 -154 q 272 -162 288 -162 q 230 -145 246 -162 q 214 -101 214 -128 q 231 -56 214 -74 q 276 -37 249 -37 q 325 -62 307 -37 q 343 -129 343 -86 q 316 -213 343 -181 q 240 -254 289 -246 l 235 -235 q 290 -204 271 -225 q 304 -154 308 -183 z "},"Ş":{"ha":521,"x_min":58,"x_max":492,"o":"m 332 128 q 319 202 332 163 q 279 296 307 242 l 106 642 q 69 779 69 714 q 85 863 69 825 q 127 927 100 900 q 192 969 154 954 q 274 985 229 985 q 383 961 331 985 q 471 897 435 938 l 446 872 q 381 920 419 901 q 310 939 343 939 q 247 911 269 939 q 225 835 225 883 q 260 703 225 776 l 463 290 q 492 176 492 231 q 474 100 492 135 q 426 40 457 65 q 351 1 394 15 q 258 -14 308 -14 q 58 49 153 -14 l 78 79 q 160 42 117 56 q 238 29 203 29 q 332 128 332 29 m 188 -125 q 222 -149 200 -139 q 265 -158 244 -158 q 306 -122 306 -158 q 225 -68 306 -76 l 254 1 l 275 1 l 258 -44 q 347 -69 311 -47 q 382 -125 382 -90 q 357 -172 382 -154 q 290 -189 332 -189 q 223 -176 254 -189 q 172 -140 192 -164 l 188 -125 z "},"h":{"ha":543,"x_min":56,"x_max":499,"o":"m 211 592 q 265 675 235 650 q 340 700 294 700 q 403 689 374 700 q 453 658 432 678 q 487 613 475 639 q 499 556 499 586 l 499 0 l 336 0 l 336 590 q 301 657 336 657 q 269 644 286 657 q 240 610 253 631 q 217 563 226 589 q 208 514 208 538 l 208 0 l 56 0 l 56 971 l 208 971 l 208 635 l 203 594 l 211 592 z "},"o":{"ha":535,"x_min":44,"x_max":490,"o":"m 264 701 q 351 684 310 701 q 423 638 392 667 q 472 569 454 608 q 490 489 490 531 l 490 199 q 473 117 490 156 q 426 49 456 78 q 356 3 396 19 q 271 -14 317 -14 q 184 3 225 -14 q 112 50 143 21 q 63 117 81 79 q 44 199 44 156 l 44 489 q 62 571 44 532 q 109 639 79 610 q 179 685 139 668 q 264 701 219 701 m 268 667 q 221 642 240 667 q 201 582 201 618 l 201 104 q 220 44 201 68 q 269 21 239 21 q 315 44 297 21 q 333 104 333 68 l 333 582 q 315 643 333 619 q 268 667 296 667 z "},"a":{"ha":497,"x_min":31,"x_max":461,"o":"m 31 206 q 95 338 31 289 q 303 407 160 386 l 303 569 q 280 639 303 614 q 217 664 257 664 q 144 647 182 664 q 88 606 107 631 l 63 628 q 139 681 90 660 q 249 701 188 701 q 332 687 293 701 q 399 646 371 672 q 444 585 428 619 q 461 508 461 550 l 461 0 l 303 0 l 303 40 l 308 75 l 300 78 q 237 12 275 36 q 158 -12 199 -12 q 67 31 104 -12 q 31 138 31 74 l 31 206 m 232 56 q 303 113 269 56 l 303 388 q 247 369 269 379 q 212 342 225 358 q 193 301 199 325 q 188 243 188 278 l 188 129 q 199 76 188 96 q 232 56 211 56 z "},"c":{"ha":458,"x_min":44,"x_max":475,"o":"m 44 476 q 61 566 44 525 q 107 637 78 607 q 176 683 136 667 q 264 700 217 700 q 363 681 315 700 q 442 629 410 663 l 417 606 q 357 647 393 631 q 289 664 321 664 q 224 639 247 664 q 201 569 201 614 l 201 129 q 228 53 201 81 q 300 25 256 25 q 385 51 344 25 q 446 117 426 76 l 475 103 q 397 17 450 49 q 274 -14 343 -14 q 181 3 224 -14 q 109 49 139 19 q 62 121 79 79 q 44 211 44 163 l 44 476 z "},"e":{"ha":522,"x_min":44,"x_max":490,"o":"m 44 486 q 62 569 44 531 q 110 638 79 608 q 180 683 140 667 q 265 700 219 700 q 351 683 311 700 q 423 636 392 665 q 472 569 454 607 q 490 488 490 531 l 490 333 l 201 333 l 201 117 q 230 49 201 76 q 303 22 258 22 q 396 54 353 22 q 458 139 439 86 l 490 126 q 407 24 463 60 q 278 -12 351 -12 q 187 4 229 -12 q 113 49 144 21 q 63 117 81 78 q 44 199 44 156 l 44 486 m 333 367 l 333 582 q 315 642 333 618 q 268 667 296 667 q 221 642 240 667 q 201 582 201 618 l 201 367 l 333 367 z "},"ļ":{"ha":253,"x_min":56,"x_max":211,"o":"m 56 971 l 208 971 l 208 0 l 56 0 l 56 971 m 172 -154 q 140 -162 156 -162 q 98 -145 114 -162 q 82 -101 82 -128 q 99 -56 82 -74 q 144 -37 117 -37 q 193 -62 175 -37 q 211 -129 211 -86 q 184 -213 211 -181 q 108 -254 157 -246 l 103 -235 q 158 -204 139 -225 q 172 -154 176 -183 z "},"ş":{"ha":411,"x_min":28,"x_max":397,"o":"m 351 619 q 256 661 303 661 q 203 642 224 661 q 183 590 183 622 q 208 510 183 554 l 369 232 q 397 146 397 188 q 381 84 397 113 q 338 33 365 56 q 275 -1 311 11 q 197 -14 239 -14 q 106 5 149 -14 q 28 58 63 24 l 50 83 q 115 40 82 56 q 175 25 147 25 q 222 42 204 25 q 239 90 239 60 q 194 214 239 138 l 64 435 q 29 542 29 493 q 44 604 29 575 q 85 655 58 633 q 146 689 111 676 q 219 701 181 701 q 375 643 308 701 l 351 619 m 125 -125 q 160 -149 138 -139 q 203 -158 182 -158 q 243 -122 243 -158 q 163 -68 243 -76 l 192 1 l 213 1 l 196 -44 q 284 -69 249 -47 q 319 -125 319 -90 q 294 -172 319 -154 q 228 -189 269 -189 q 160 -176 192 -189 q 110 -140 129 -164 l 125 -125 z "},"ȷ":{"ha":325,"x_min":38,"x_max":264,"o":"m 264 51 q 253 -33 264 6 q 217 -108 242 -72 q 152 -176 192 -143 q 56 -243 113 -208 l 38 -221 q 67 -194 53 -207 q 90 -162 81 -181 q 106 -121 100 -144 q 111 -64 111 -97 l 111 688 l 264 688 l 264 51 z "},"←":{"ha":935,"x_min":36,"x_max":896,"o":"m 310 711 l 336 682 l 117 488 l 896 488 l 896 450 l 118 450 l 336 257 l 310 228 l 36 469 l 310 711 z "},"⟵":{"ha":1301,"x_min":38,"x_max":1264,"o":"m 311 711 l 336 682 l 118 488 l 1264 488 l 1264 450 l 118 450 l 338 257 l 311 228 l 38 469 l 311 711 z "},"⇐":{"ha":933,"x_min":38,"x_max":896,"o":"m 311 711 l 336 682 l 181 543 l 896 543 l 896 506 l 138 506 l 97 469 l 139 432 l 896 432 l 896 394 l 181 394 l 338 257 l 311 228 l 38 469 l 311 711 z "},"⟸":{"ha":1301,"x_min":38,"x_max":1264,"o":"m 311 711 l 336 682 l 181 543 l 1264 543 l 1264 506 l 138 506 l 97 469 l 139 432 l 1264 432 l 1264 394 l 181 394 l 338 257 l 311 228 l 38 469 l 311 711 z "},"→":{"ha":935,"x_min":38,"x_max":897,"o":"m 624 229 l 597 258 l 817 453 l 38 453 l 38 490 l 815 490 l 597 683 l 624 713 l 897 471 l 624 229 z "},"⟹":{"ha":1301,"x_min":38,"x_max":1264,"o":"m 990 229 l 965 258 l 1121 397 l 38 397 l 38 435 l 1164 435 l 1204 471 l 1163 508 l 38 508 l 38 546 l 1121 546 l 964 683 l 990 713 l 1264 471 l 990 229 z "},"⇒":{"ha":933,"x_min":38,"x_max":896,"o":"m 622 229 l 597 258 l 753 397 l 38 397 l 38 435 l 796 435 l 836 471 l 794 508 l 38 508 l 38 546 l 753 546 l 596 683 l 622 713 l 896 471 l 622 229 z "},"⟶":{"ha":1301,"x_min":38,"x_max":1264,"o":"m 990 229 l 965 258 l 1183 453 l 38 453 l 38 490 l 1183 490 l 964 683 l 990 713 l 1264 471 l 990 229 z "},"↖":{"ha":610,"x_min":38,"x_max":571,"o":"m 401 969 l 401 932 l 101 932 l 571 463 l 544 436 l 75 906 l 75 607 l 38 607 l 38 969 l 401 969 z "},"↗":{"ha":610,"x_min":38,"x_max":571,"o":"m 207 969 l 207 932 l 507 932 l 38 463 l 64 436 l 533 906 l 533 607 l 571 607 l 571 969 l 207 969 z "},"↘":{"ha":610,"x_min":39,"x_max":574,"o":"m 208 1 l 208 39 l 508 39 l 39 508 l 65 535 l 535 65 l 535 364 l 572 365 l 574 1 l 208 1 z "},"↙":{"ha":610,"x_min":36,"x_max":571,"o":"m 401 1 l 401 39 l 101 39 l 571 508 l 544 535 l 75 65 l 75 364 l 38 365 l 36 1 l 401 1 z "},"↔":{"ha":975,"x_min":483,"x_max":503,"o":"m 483 469 l 489 475 l 492 474 l 489 471 l 497 471 l 494 474 l 496 475 l 503 469 l 496 464 l 494 467 l 497 468 l 489 468 l 492 467 l 489 464 l 483 469 z "},"⟷":{"ha":1343,"x_min":38,"x_max":1306,"o":"m 311 711 l 336 682 l 118 488 l 1226 488 l 1006 683 l 1032 711 l 1306 469 l 1032 228 l 1007 258 l 1225 450 l 118 450 l 338 257 l 311 228 l 38 469 l 311 711 z "},"⇔":{"ha":1004,"x_min":38,"x_max":967,"o":"m 311 711 l 336 682 l 181 543 l 825 543 l 667 683 l 693 711 l 967 469 l 693 228 l 668 258 l 822 394 l 181 394 l 338 257 l 311 228 l 38 469 l 311 711 m 139 432 l 864 432 l 907 469 l 867 506 l 138 506 l 97 469 l 139 432 z "},"⟺":{"ha":1301,"x_min":38,"x_max":1264,"o":"m 311 711 l 336 682 l 182 544 l 1121 544 l 964 683 l 990 711 l 1264 469 l 990 228 l 965 258 l 1121 396 l 181 396 l 338 257 l 311 228 l 38 469 l 311 711 m 138 433 l 1164 433 l 1206 471 l 1164 507 l 139 507 l 97 469 l 138 433 z "},"↑":{"ha":558,"x_min":38,"x_max":519,"o":"m 519 565 l 489 540 l 297 760 l 297 101 l 260 101 l 260 758 l 68 540 l 38 565 l 278 839 l 519 565 z "},"↓":{"ha":558,"x_min":38,"x_max":519,"o":"m 38 375 l 68 400 l 260 181 l 260 839 l 297 839 l 297 182 l 489 400 l 519 375 l 279 101 l 38 375 z "},"↕":{"ha":558,"x_min":38,"x_max":519,"o":"m 38 375 l 68 400 l 260 183 l 260 758 l 68 540 l 38 565 l 278 839 l 519 565 l 489 540 l 297 760 l 297 182 l 489 400 l 519 375 l 279 101 l 38 375 z "},"↩":{"ha":1065,"x_min":38,"x_max":1028,"o":"m 311 711 l 336 681 l 118 488 l 840 488 q 900 499 872 488 q 947 531 928 511 q 978 578 967 551 q 989 636 989 606 q 978 691 989 665 q 949 736 968 717 q 902 767 929 756 q 842 778 875 778 l 808 778 l 808 815 l 850 815 q 919 801 886 815 q 976 763 951 788 q 1014 706 1000 739 q 1028 636 1028 674 q 1013 565 1028 599 q 974 506 999 531 q 917 465 950 481 q 849 450 885 450 l 118 450 l 338 257 l 311 228 l 38 469 l 311 711 z "},"↪":{"ha":1065,"x_min":36,"x_max":1026,"o":"m 753 711 l 728 681 l 946 488 l 224 488 q 164 499 192 488 q 117 531 136 511 q 86 578 97 551 q 75 636 75 606 q 85 691 75 665 q 115 736 96 717 q 162 767 135 756 q 222 778 189 778 l 256 778 l 256 815 l 214 815 q 145 801 178 815 q 88 763 113 788 q 50 706 64 739 q 36 636 36 674 q 51 565 36 599 q 90 506 65 531 q 147 465 114 481 q 215 450 179 450 l 946 450 l 726 257 l 753 228 l 1026 469 l 753 711 z "},"Ċ":{"ha":554,"x_min":58,"x_max":553,"o":"m 58 701 q 76 819 58 767 q 128 908 94 871 q 210 965 163 944 q 317 985 258 985 q 521 899 443 985 l 494 874 q 343 942 426 942 q 253 906 283 942 q 222 800 222 869 l 222 178 q 342 29 222 29 q 448 60 400 29 q 519 144 496 92 l 553 129 q 465 24 525 61 q 321 -14 404 -14 q 128 65 199 -14 q 58 281 58 144 l 58 701 m 251 1103 q 269 1146 251 1129 q 313 1163 286 1163 q 358 1145 340 1163 q 375 1103 375 1128 q 358 1059 375 1076 q 313 1042 340 1042 q 269 1059 286 1042 q 251 1103 251 1076 z "},"Ė":{"ha":465,"x_min":67,"x_max":435,"o":"m 435 971 l 435 935 l 228 935 l 228 514 l 406 514 l 406 478 l 228 478 l 228 36 l 435 36 l 435 0 l 67 0 l 67 971 l 435 971 m 194 1103 q 212 1146 194 1129 q 256 1163 229 1163 q 301 1145 283 1163 q 318 1103 318 1128 q 301 1059 318 1076 q 256 1042 283 1042 q 212 1059 229 1042 q 194 1103 194 1076 z "},"Ġ":{"ha":619,"x_min":60,"x_max":565,"o":"m 60 703 q 130 908 60 833 q 325 983 200 983 q 443 962 389 983 q 535 899 497 940 l 510 874 q 440 922 481 904 q 356 939 399 939 q 253 902 290 939 q 217 800 217 865 l 217 168 q 346 25 217 25 q 419 36 382 25 l 419 454 l 308 454 l 308 490 l 565 490 l 565 46 q 515 22 544 33 q 455 3 486 11 q 391 -8 424 -4 q 329 -12 358 -12 q 131 66 201 -12 q 60 279 60 144 l 60 703 m 257 1103 q 274 1146 257 1129 q 318 1163 292 1163 q 363 1145 346 1163 q 381 1103 381 1128 q 363 1059 381 1076 q 318 1042 346 1042 q 274 1059 292 1042 q 257 1103 257 1076 z "},"İ":{"ha":293,"x_min":65,"x_max":228,"o":"m 228 971 l 228 0 l 65 0 l 65 971 l 228 971 m 85 1103 q 102 1146 85 1129 q 146 1163 119 1163 q 191 1145 174 1163 q 208 1103 208 1128 q 191 1059 208 1076 q 146 1042 174 1042 q 102 1059 119 1042 q 85 1103 85 1076 z "},"Ţ":{"ha":494,"x_min":-10,"x_max":507,"o":"m 507 935 l 329 935 l 329 0 l 168 0 l 168 935 l -10 935 l -10 971 l 507 971 l 507 935 m 172 -124 q 207 -147 185 -137 q 250 -157 229 -157 q 290 -121 290 -157 q 210 -67 290 -75 l 239 3 l 260 3 l 243 -43 q 331 -67 296 -46 q 367 -124 367 -89 q 342 -170 367 -153 q 275 -187 317 -187 q 208 -175 239 -187 q 157 -139 176 -162 l 172 -124 z "},"Ç":{"ha":554,"x_min":58,"x_max":553,"o":"m 58 701 q 76 819 58 767 q 128 908 94 871 q 210 965 163 944 q 317 985 258 985 q 521 899 443 985 l 494 874 q 343 942 426 942 q 253 906 283 942 q 222 800 222 869 l 222 178 q 342 29 222 29 q 448 60 400 29 q 519 144 496 92 l 553 129 q 465 24 525 61 q 321 -14 404 -14 q 128 65 199 -14 q 58 281 58 144 l 58 701 m 249 -126 q 283 -150 261 -140 q 326 -160 306 -160 q 367 -124 367 -160 q 286 -69 367 -78 l 315 0 l 336 0 l 319 -46 q 408 -70 372 -49 q 443 -126 443 -92 q 418 -173 443 -156 q 351 -190 393 -190 q 284 -178 315 -190 q 233 -142 253 -165 l 249 -126 z "},"Ż":{"ha":583,"x_min":32,"x_max":551,"o":"m 82 935 l 82 971 l 532 971 l 532 935 l 203 36 l 551 36 l 551 0 l 32 0 l 32 36 l 363 935 l 82 935 m 242 1103 q 259 1146 242 1129 q 303 1163 276 1163 q 348 1145 331 1163 q 365 1103 365 1128 q 348 1059 365 1076 q 303 1042 331 1042 q 259 1059 276 1042 q 242 1103 242 1076 z "},"ċ":{"ha":458,"x_min":44,"x_max":475,"o":"m 44 476 q 61 566 44 525 q 107 637 78 607 q 176 683 136 667 q 264 700 217 700 q 363 681 315 700 q 442 629 410 663 l 417 606 q 357 647 393 631 q 289 664 321 664 q 224 639 247 664 q 201 569 201 614 l 201 129 q 228 53 201 81 q 300 25 256 25 q 385 51 344 25 q 446 117 426 76 l 475 103 q 397 17 450 49 q 274 -14 343 -14 q 181 3 224 -14 q 109 49 139 19 q 62 121 79 79 q 44 211 44 163 l 44 476 m 203 863 q 220 906 203 889 q 264 922 238 922 q 309 905 292 922 q 326 863 326 888 q 309 819 326 836 q 264 801 292 801 q 220 819 238 801 q 203 863 203 836 z "},"ė":{"ha":522,"x_min":44,"x_max":490,"o":"m 44 486 q 62 569 44 531 q 110 638 79 608 q 180 683 140 667 q 265 700 219 700 q 351 683 311 700 q 423 636 392 665 q 472 569 454 607 q 490 488 490 531 l 490 333 l 201 333 l 201 117 q 230 49 201 76 q 303 22 258 22 q 396 54 353 22 q 458 139 439 86 l 490 126 q 407 24 463 60 q 278 -12 351 -12 q 187 4 229 -12 q 113 49 144 21 q 63 117 81 78 q 44 199 44 156 l 44 486 m 333 367 l 333 582 q 315 642 333 618 q 268 667 296 667 q 221 642 240 667 q 201 582 201 618 l 201 367 l 333 367 m 204 863 q 222 906 204 889 q 265 922 239 922 q 310 905 293 922 q 328 863 328 888 q 310 819 328 836 q 265 801 293 801 q 222 819 239 801 q 204 863 204 836 z "},"ġ":{"ha":524,"x_min":28,"x_max":532,"o":"m 253 -243 q 160 -230 201 -243 q 89 -193 118 -217 q 44 -135 60 -169 q 29 -61 28 -101 l 114 -61 q 152 -169 111 -128 q 263 -210 193 -210 q 324 -201 294 -210 q 375 -176 353 -192 q 410 -141 397 -161 q 424 -99 424 -121 q 402 -49 424 -68 q 349 -29 381 -29 l 176 -29 q 77 2 114 -29 q 40 86 40 33 q 67 170 40 131 q 142 240 93 210 q 73 315 97 269 q 49 417 49 361 l 49 507 q 65 583 49 547 q 108 644 81 618 q 174 686 136 671 q 253 701 211 701 q 338 685 296 701 q 413 640 381 669 q 451 694 424 675 q 518 714 479 714 l 518 622 q 491 628 504 625 q 465 631 478 631 q 431 621 446 631 q 471 514 471 574 l 471 410 q 456 327 471 365 q 413 262 440 289 q 349 219 386 235 q 267 204 311 204 q 167 228 211 204 q 114 165 114 201 q 201 126 114 126 l 400 126 q 495 85 458 126 q 532 -21 532 43 q 510 -108 532 -68 q 451 -178 489 -149 q 363 -226 414 -208 q 253 -243 311 -243 m 206 306 q 222 258 206 278 q 261 239 238 239 q 299 258 285 239 q 314 306 314 276 l 314 600 q 298 648 314 629 q 258 667 282 667 q 220 648 235 667 q 206 600 206 629 l 206 306 m 193 863 q 210 906 193 889 q 254 922 228 922 q 299 905 282 922 q 317 863 317 888 q 299 819 317 836 q 254 801 282 801 q 210 819 228 801 q 193 863 193 836 z "},"ż":{"ha":499,"x_min":43,"x_max":469,"o":"m 43 0 l 43 33 l 296 654 l 93 654 l 93 688 l 469 688 l 469 654 l 217 33 l 469 33 l 469 0 l 43 0 m 215 863 q 233 906 215 889 q 276 922 250 922 q 322 905 304 922 q 339 863 339 888 q 322 819 339 836 q 276 801 304 801 q 233 819 250 801 q 215 863 215 836 z "},"Ģ":{"ha":619,"x_min":60,"x_max":565,"o":"m 60 703 q 130 908 60 833 q 325 983 200 983 q 443 962 389 983 q 535 899 497 940 l 510 874 q 440 922 481 904 q 356 939 399 939 q 253 902 290 939 q 217 800 217 865 l 217 168 q 346 25 217 25 q 419 36 382 25 l 419 454 l 308 454 l 308 490 l 565 490 l 565 46 q 515 22 544 33 q 455 3 486 11 q 391 -8 424 -4 q 329 -12 358 -12 q 131 66 201 -12 q 60 279 60 144 l 60 703 m 375 -154 q 343 -162 358 -162 q 301 -145 317 -162 q 285 -101 285 -128 q 302 -56 285 -74 q 347 -37 319 -37 q 396 -62 378 -37 q 414 -129 414 -86 q 387 -213 414 -181 q 311 -254 360 -246 l 306 -235 q 360 -204 342 -225 q 375 -154 379 -183 z "},"А":{"ha":476,"x_min":-11,"x_max":486,"o":"m 174 971 l 244 971 l 486 0 l 319 0 l 247 289 l 83 289 l 28 0 l -11 0 l 174 971 m 143 606 l 89 325 l 239 325 l 169 606 l 160 661 l 150 661 l 143 606 z "},"Б":{"ha":583,"x_min":65,"x_max":551,"o":"m 338 504 q 421 485 382 504 q 489 435 460 467 q 535 360 518 403 q 551 268 551 317 l 551 231 q 535 141 551 183 q 489 67 518 99 q 421 18 460 36 q 338 0 382 0 l 65 0 l 65 971 l 474 971 l 474 935 l 228 935 l 228 504 l 338 504 m 389 293 q 366 426 389 383 q 296 468 343 468 l 228 468 l 228 36 l 307 36 q 370 73 351 36 q 389 206 389 110 l 389 293 z "},"В":{"ha":583,"x_min":65,"x_max":551,"o":"m 531 719 q 485 570 531 625 q 374 507 439 515 l 353 504 l 353 496 l 374 492 q 442 467 410 486 q 499 417 475 447 q 538 348 524 386 q 551 268 551 310 l 551 231 q 537 148 551 189 q 494 74 522 107 q 426 20 467 40 q 336 0 386 0 l 65 0 l 65 971 l 315 971 q 399 954 360 971 q 468 908 439 938 q 514 839 497 879 q 531 751 531 799 l 531 719 m 294 518 q 353 556 339 518 q 368 689 368 594 l 368 768 q 354 898 368 861 q 293 935 340 935 l 228 935 l 228 518 l 294 518 m 389 307 q 364 441 389 400 q 294 482 339 482 l 228 482 l 228 36 l 307 36 q 372 74 354 36 q 389 204 389 113 l 389 307 z "},"Г":{"ha":414,"x_min":65,"x_max":425,"o":"m 65 971 l 425 971 l 425 935 l 228 935 l 228 0 l 65 0 l 65 971 z "},"Д":{"ha":554,"x_min":-10,"x_max":564,"o":"m -10 -210 l -10 22 l 26 22 q 63 95 47 51 q 90 202 79 139 q 105 351 100 265 q 110 547 110 436 l 110 971 l 490 971 l 490 22 l 564 22 l 564 -210 l 401 -210 l 401 -14 l 28 -14 l 28 -210 l -10 -210 m 328 22 l 328 935 l 146 935 l 146 532 q 142 367 146 447 q 128 221 138 288 q 102 103 118 154 q 63 22 86 51 l 328 22 z "},"Е":{"ha":465,"x_min":65,"x_max":433,"o":"m 433 971 l 433 935 l 228 935 l 228 514 l 404 514 l 404 478 l 228 478 l 228 36 l 433 36 l 433 0 l 65 0 l 65 971 l 433 971 z "},"Ж":{"ha":922,"x_min":-10,"x_max":932,"o":"m 763 0 l 618 414 q 583 477 601 463 q 543 492 565 492 l 542 492 l 542 0 l 379 0 l 379 492 l 378 492 q 338 478 356 492 q 304 415 319 464 l 158 0 l -10 0 l 133 381 q 201 493 163 460 q 296 529 239 526 l 58 971 l 103 971 l 339 529 l 379 529 l 379 971 l 542 971 l 542 529 l 582 529 l 819 971 l 864 971 l 625 529 q 721 493 682 526 q 789 381 760 460 l 932 0 l 763 0 z "},"З":{"ha":649,"x_min":57,"x_max":624,"o":"m 301 -14 q 169 2 232 -14 q 57 49 106 18 l 78 81 q 170 42 124 54 q 258 29 217 29 q 404 85 350 29 q 458 236 458 140 l 458 300 q 412 435 458 385 q 290 485 365 485 l 261 485 l 260 521 l 290 521 q 401 570 360 521 q 442 707 442 619 l 442 750 q 395 885 442 835 q 275 936 349 936 q 107 869 189 936 l 81 897 q 185 960 122 938 q 321 983 247 983 q 436 967 383 983 q 526 919 489 950 q 585 847 564 889 q 607 751 607 804 l 607 714 q 553 570 607 621 q 400 511 500 519 l 372 508 l 372 497 l 400 494 q 565 432 506 485 q 624 288 624 379 l 624 242 q 601 136 624 183 q 535 56 578 89 q 433 4 493 22 q 301 -14 374 -14 z "},"И":{"ha":557,"x_min":58,"x_max":500,"o":"m 500 971 l 500 0 l 464 0 l 464 792 l 467 847 l 457 847 l 439 792 l 129 0 l 58 0 l 58 971 l 96 971 l 96 411 l 92 356 l 103 356 l 119 411 l 335 971 l 500 971 z "},"Й":{"ha":557,"x_min":58,"x_max":500,"o":"m 500 971 l 500 0 l 464 0 l 464 792 l 467 847 l 457 847 l 439 792 l 129 0 l 58 0 l 58 971 l 96 971 l 96 411 l 92 356 l 103 356 l 119 411 l 335 971 l 500 971 m 361 1167 l 382 1167 q 348 1070 382 1108 q 261 1032 314 1032 q 174 1070 208 1032 q 140 1167 140 1108 l 161 1167 q 190 1116 161 1135 q 263 1097 218 1097 q 333 1116 306 1097 q 361 1167 361 1135 z "},"К":{"ha":608,"x_min":65,"x_max":618,"o":"m 450 0 l 304 414 q 270 477 288 463 q 229 492 253 492 l 228 492 l 228 0 l 65 0 l 65 971 l 228 971 l 228 529 l 269 529 l 506 971 l 550 971 l 313 529 q 408 493 369 526 q 475 381 446 460 l 618 0 l 450 0 z "},"Л":{"ha":756,"x_min":-10,"x_max":690,"o":"m 4 53 q 78 31 43 31 q 133 63 114 31 q 156 179 153 96 l 181 971 l 690 971 l 690 0 l 528 0 l 528 935 l 343 935 l 318 304 q 254 65 311 144 q 106 -14 197 -14 q -10 18 46 -14 l 4 53 z "},"М":{"ha":746,"x_min":57,"x_max":679,"o":"m 679 0 l 517 0 l 517 758 l 519 814 l 510 814 l 503 758 l 364 0 l 294 0 l 110 758 l 100 814 l 90 814 l 94 758 l 94 0 l 57 0 l 57 972 l 229 972 l 369 381 l 379 325 l 389 325 l 396 381 l 504 972 l 679 972 l 679 0 z "},"Н":{"ha":644,"x_min":65,"x_max":581,"o":"m 228 971 l 228 503 l 418 503 l 418 971 l 581 971 l 581 0 l 418 0 l 418 467 l 228 467 l 228 0 l 65 0 l 65 971 l 228 971 z "},"О":{"ha":638,"x_min":58,"x_max":581,"o":"m 58 706 q 77 819 58 768 q 131 908 96 871 q 214 965 165 944 q 321 985 263 985 q 427 965 379 985 q 509 908 475 944 q 562 819 543 871 q 581 706 581 768 l 581 278 q 562 158 581 213 q 509 66 543 104 q 426 7 475 28 q 319 -14 378 -14 q 213 7 261 -14 q 130 66 164 28 q 77 158 96 104 q 58 278 58 213 l 58 706 m 221 172 q 247 61 221 99 q 321 24 272 24 q 418 172 418 24 l 418 800 q 321 947 418 947 q 247 909 272 947 q 221 800 221 871 l 221 172 z "},"П":{"ha":644,"x_min":65,"x_max":581,"o":"m 65 971 l 581 971 l 581 0 l 418 0 l 418 935 l 228 935 l 228 0 l 65 0 l 65 971 z "},"Р":{"ha":578,"x_min":65,"x_max":546,"o":"m 313 971 q 406 952 363 971 q 480 901 449 933 q 528 827 511 869 q 546 738 546 785 l 546 686 q 528 597 546 639 q 481 522 511 554 q 408 472 450 490 q 315 453 365 453 l 228 453 l 228 0 l 65 0 l 65 971 l 313 971 m 383 756 q 363 892 383 850 q 296 935 342 935 l 228 935 l 228 489 l 303 489 q 365 532 347 489 q 383 668 383 575 l 383 756 z "},"С":{"ha":554,"x_min":58,"x_max":553,"o":"m 58 701 q 76 819 58 767 q 128 908 94 871 q 210 965 163 944 q 317 985 258 985 q 521 899 443 985 l 494 874 q 343 942 426 942 q 253 906 283 942 q 222 800 222 869 l 222 178 q 342 29 222 29 q 448 60 400 29 q 519 144 496 92 l 553 129 q 465 24 525 61 q 321 -14 404 -14 q 128 65 199 -14 q 58 281 58 144 l 58 701 z "},"Т":{"ha":494,"x_min":-10,"x_max":507,"o":"m 507 935 l 329 935 l 329 0 l 168 0 l 168 935 l -10 935 l -10 971 l 507 971 l 507 935 z "},"У":{"ha":378,"x_min":-10,"x_max":386,"o":"m 243 581 l 253 525 l 263 525 l 269 581 l 347 971 l 386 971 l 210 90 q 169 17 199 42 q 96 -8 140 -8 q 51 -3 72 -8 l 58 33 q 132 38 103 24 q 171 99 161 51 l 179 138 l -10 971 l 157 971 l 243 581 z "},"Ф":{"ha":718,"x_min":58,"x_max":660,"o":"m 340 42 q 130 126 201 46 q 58 372 58 207 l 58 600 q 130 841 58 758 q 340 931 201 924 l 340 1014 l 379 1014 l 379 931 q 589 842 518 924 q 660 600 660 760 l 660 372 q 589 126 660 206 q 379 42 518 46 l 379 -43 l 340 -43 l 340 42 m 379 78 q 437 89 414 79 q 473 122 460 99 q 492 182 486 144 q 497 278 497 219 l 497 682 q 492 780 497 740 q 473 844 486 819 q 437 880 460 868 q 379 893 414 892 l 379 78 m 221 278 q 226 183 221 221 q 246 122 232 144 q 283 89 260 99 q 340 78 306 79 l 340 893 q 283 878 306 890 q 246 842 260 867 q 226 778 232 817 q 221 682 221 739 l 221 278 z "},"Х":{"ha":499,"x_min":-11,"x_max":508,"o":"m 276 667 l 292 613 l 300 613 l 318 667 l 440 971 l 482 971 l 315 556 l 508 0 l 339 0 l 215 356 l 200 408 l 190 408 l 172 356 l 31 0 l -11 0 l 175 467 l -1 971 l 171 971 l 276 667 z "},"Ц":{"ha":669,"x_min":65,"x_max":689,"o":"m 65 971 l 228 971 l 228 36 l 418 36 l 418 971 l 581 971 l 581 36 l 688 36 l 689 -151 l 593 -151 l 593 0 l 65 0 l 65 971 z "},"Ч":{"ha":611,"x_min":65,"x_max":546,"o":"m 381 379 q 314 296 353 321 q 226 271 275 271 q 111 315 157 271 q 65 440 65 360 l 65 971 l 228 971 l 228 393 q 240 331 228 349 q 272 314 253 314 q 310 327 290 314 q 346 361 329 340 q 373 408 363 382 q 383 457 383 433 l 383 971 l 546 971 l 546 0 l 383 0 l 383 336 l 390 376 l 381 379 z "},"Ш":{"ha":889,"x_min":65,"x_max":824,"o":"m 65 971 l 228 971 l 228 36 l 363 36 l 363 971 l 525 971 l 525 36 l 661 36 l 661 971 l 824 971 l 824 0 l 65 0 l 65 971 z "},"Щ":{"ha":913,"x_min":65,"x_max":931,"o":"m 65 971 l 228 971 l 228 36 l 363 36 l 363 971 l 525 971 l 525 36 l 661 36 l 661 971 l 824 971 l 824 0 l 65 0 l 65 971 m 803 36 l 931 36 l 931 -151 l 836 -151 l 836 0 l 803 0 l 803 36 z "},"Ъ":{"ha":617,"x_min":-11,"x_max":585,"o":"m 342 546 q 439 528 394 546 q 515 478 483 510 q 566 403 547 447 q 585 310 585 360 l 585 231 q 568 141 585 183 q 522 67 551 99 q 454 18 493 36 q 371 0 415 0 l 99 0 l 99 935 l -11 935 l -11 971 l 261 971 l 261 546 l 342 546 m 422 336 q 329 510 422 510 l 261 510 l 261 36 l 340 36 q 403 73 385 36 q 422 204 422 110 l 422 336 z "},"Ы":{"ha":863,"x_min":65,"x_max":797,"o":"m 308 546 q 406 528 361 546 q 482 478 450 510 q 533 403 514 447 q 551 310 551 360 l 551 231 q 535 141 551 183 q 489 67 518 99 q 421 18 460 36 q 338 0 382 0 l 65 0 l 65 971 l 228 971 l 228 546 l 308 546 m 797 971 l 797 0 l 635 0 l 635 971 l 797 971 m 389 336 q 296 510 389 510 l 228 510 l 228 36 l 307 36 q 370 73 351 36 q 389 204 389 110 l 389 336 z "},"Ь":{"ha":583,"x_min":65,"x_max":551,"o":"m 308 546 q 406 528 361 546 q 482 478 450 510 q 533 403 514 447 q 551 310 551 360 l 551 231 q 535 141 551 183 q 489 67 518 99 q 421 18 460 36 q 338 0 382 0 l 65 0 l 65 971 l 228 971 l 228 546 l 308 546 m 389 336 q 296 510 389 510 l 228 510 l 228 36 l 307 36 q 370 73 351 36 q 389 204 389 110 l 389 336 z "},"Э":{"ha":542,"x_min":-11,"x_max":483,"o":"m 483 281 q 413 66 483 144 q 221 -12 343 -12 q 77 24 138 -12 q -11 129 17 61 l 24 144 q 94 60 46 92 q 201 29 142 29 q 321 178 321 29 l 321 468 l 99 468 l 99 504 l 321 504 l 321 800 q 290 906 321 869 q 199 942 258 942 q 47 874 115 942 l 21 897 q 225 983 99 983 q 333 963 285 983 q 414 907 381 943 q 465 819 447 871 q 483 701 483 767 l 483 281 z "},"Ю":{"ha":900,"x_min":65,"x_max":844,"o":"m 228 971 l 228 503 l 322 503 l 322 706 q 341 819 322 768 q 394 906 360 869 q 477 963 429 943 q 583 983 525 983 q 690 963 642 983 q 773 907 739 943 q 826 819 807 871 q 844 706 844 768 l 844 278 q 826 159 844 213 q 773 67 807 106 q 690 8 739 29 q 583 -12 642 -12 q 476 8 525 -12 q 394 67 428 29 q 341 159 360 106 q 322 278 322 213 l 322 467 l 228 467 l 228 0 l 65 0 l 65 971 l 228 971 m 485 172 q 583 24 485 24 q 682 172 682 24 l 682 799 q 585 947 682 947 q 510 909 536 947 q 485 799 485 871 l 485 172 z "},"Я":{"ha":619,"x_min":44,"x_max":554,"o":"m 554 0 l 392 0 l 392 467 l 367 467 q 338 463 349 467 q 318 447 326 458 q 303 416 310 436 q 290 364 297 396 l 211 0 l 44 0 l 121 340 q 141 389 126 365 q 178 431 156 413 q 226 462 200 450 q 282 475 253 474 l 282 485 q 199 508 238 489 q 133 559 161 528 q 90 630 106 590 q 74 715 74 669 l 74 738 q 91 827 74 785 q 140 901 108 869 q 214 952 171 933 q 307 971 257 971 l 554 971 l 554 0 m 236 682 q 255 546 236 589 q 317 503 274 503 l 392 503 l 392 935 l 325 935 q 257 892 278 935 q 236 756 236 850 l 236 682 z "},"Ё":{"ha":465,"x_min":65,"x_max":433,"o":"m 433 971 l 433 935 l 228 935 l 228 514 l 404 514 l 404 478 l 228 478 l 228 36 l 433 36 l 433 0 l 65 0 l 65 971 l 433 971 m 104 1103 q 122 1147 104 1129 q 167 1164 139 1164 q 213 1147 194 1164 q 232 1103 232 1129 q 213 1058 232 1075 q 167 1040 194 1040 q 122 1058 139 1040 q 104 1103 104 1075 m 294 1103 q 313 1147 294 1129 q 358 1164 331 1164 q 404 1147 386 1164 q 422 1103 422 1131 q 404 1058 422 1075 q 358 1040 386 1040 q 313 1058 331 1040 q 294 1103 294 1075 z "},"Ђ":{"ha":635,"x_min":-11,"x_max":578,"o":"m 464 935 l 286 935 l 286 635 l 281 594 l 289 592 q 342 676 313 651 q 419 701 372 701 q 482 690 453 701 q 532 659 511 679 q 565 613 553 639 q 578 556 578 586 l 578 51 q 565 -33 578 6 q 526 -107 553 -72 q 457 -175 499 -142 q 358 -242 415 -208 l 340 -219 q 369 -193 356 -207 q 394 -162 383 -179 q 410 -121 404 -144 q 415 -64 415 -97 l 415 590 q 379 658 415 658 q 347 644 364 658 q 317 610 331 631 q 295 563 304 589 q 286 514 286 538 l 286 0 l 125 0 l 125 935 l -11 935 l -11 971 l 464 971 l 464 935 z "},"Ѓ":{"ha":414,"x_min":65,"x_max":425,"o":"m 65 971 l 425 971 l 425 935 l 228 935 l 228 0 l 65 0 l 65 971 m 211 1028 l 253 1186 l 367 1186 l 238 1028 l 211 1028 z "},"Ґ":{"ha":414,"x_min":65,"x_max":425,"o":"m 65 971 l 324 971 l 324 1107 l 425 1107 l 425 935 l 228 935 l 228 0 l 65 0 l 65 971 z "},"Є":{"ha":554,"x_min":57,"x_max":553,"o":"m 57 701 q 75 819 57 767 q 127 907 93 871 q 209 963 161 943 q 317 983 257 983 q 431 962 379 983 q 521 897 483 940 l 494 874 q 343 942 426 942 q 252 906 283 942 q 221 800 221 869 l 221 504 l 443 504 l 443 468 l 221 468 l 221 178 q 340 29 221 29 q 449 60 401 29 q 519 144 496 92 l 553 129 q 464 24 525 61 q 319 -12 403 -12 q 127 66 197 -12 q 57 281 57 144 l 57 701 z "},"Ѕ":{"ha":521,"x_min":58,"x_max":492,"o":"m 332 128 q 319 202 332 163 q 279 296 307 242 l 106 642 q 69 779 69 714 q 85 863 69 825 q 127 927 100 900 q 192 969 154 954 q 274 985 229 985 q 383 961 331 985 q 471 897 435 938 l 446 872 q 381 920 419 901 q 310 939 343 939 q 247 911 269 939 q 225 835 225 883 q 260 703 225 776 l 463 290 q 492 176 492 231 q 474 100 492 135 q 426 40 457 65 q 351 1 394 15 q 258 -14 308 -14 q 58 49 153 -14 l 78 79 q 160 42 117 56 q 238 29 203 29 q 332 128 332 29 z "},"І":{"ha":293,"x_min":65,"x_max":228,"o":"m 228 971 l 228 0 l 65 0 l 65 971 l 228 971 z "},"Ї":{"ha":293,"x_min":-6,"x_max":313,"o":"m 228 971 l 228 0 l 65 0 l 65 971 l 228 971 m -6 1103 q 12 1147 -6 1129 q 57 1164 29 1164 q 103 1147 85 1164 q 122 1103 122 1129 q 103 1058 122 1075 q 57 1040 85 1040 q 12 1058 29 1040 q -6 1103 -6 1075 m 185 1103 q 203 1147 185 1129 q 249 1164 221 1164 q 294 1147 276 1164 q 313 1103 313 1131 q 294 1058 313 1075 q 249 1040 276 1040 q 203 1058 221 1040 q 185 1103 185 1075 z "},"Ј":{"ha":424,"x_min":-11,"x_max":358,"o":"m -11 50 l 11 79 q 121 32 71 32 q 196 149 196 32 l 196 971 l 358 971 l 358 236 q 342 136 358 182 q 298 57 326 90 q 231 5 269 24 q 147 -14 193 -14 q -11 50 61 -14 z "},"Љ":{"ha":1046,"x_min":-10,"x_max":1014,"o":"m 690 546 l 771 546 q 868 528 824 546 q 944 478 913 510 q 995 403 976 447 q 1014 310 1014 360 l 1014 231 q 997 141 1014 183 q 951 67 981 99 q 883 18 922 36 q 800 0 844 0 l 528 0 l 528 935 l 343 935 l 318 304 q 254 66 311 144 q 106 -12 197 -12 q -10 19 42 -12 l 4 53 q 78 31 43 31 q 133 63 114 31 q 156 179 153 96 l 181 971 l 690 971 l 690 546 m 851 336 q 758 510 851 510 l 690 510 l 690 36 l 769 36 q 833 73 814 36 q 851 204 851 110 l 851 336 z "},"Њ":{"ha":936,"x_min":65,"x_max":904,"o":"m 228 971 l 228 503 l 418 503 l 418 971 l 581 971 l 581 503 l 661 503 q 757 485 713 503 q 834 435 801 467 q 885 360 867 404 q 904 267 904 317 l 904 231 q 888 141 904 183 q 842 67 871 99 q 773 18 813 36 q 689 0 733 0 l 418 0 l 418 467 l 228 467 l 228 0 l 65 0 l 65 971 l 228 971 m 742 293 q 649 467 742 467 l 581 467 l 581 36 l 660 36 q 723 73 704 36 q 742 204 742 110 l 742 293 z "},"Ћ":{"ha":635,"x_min":-11,"x_max":578,"o":"m 464 935 l 286 935 l 286 635 l 281 594 l 289 592 q 342 676 313 651 q 419 701 372 701 q 482 690 453 701 q 532 659 511 679 q 565 613 553 639 q 578 556 578 586 l 578 0 l 415 0 l 415 590 q 379 658 415 658 q 347 644 364 658 q 317 610 331 631 q 295 563 304 589 q 286 514 286 538 l 286 0 l 125 0 l 125 935 l -11 935 l -11 971 l 464 971 l 464 935 z "},"Ќ":{"ha":608,"x_min":65,"x_max":618,"o":"m 450 0 l 304 414 q 270 477 288 463 q 229 492 253 492 l 228 492 l 228 0 l 65 0 l 65 971 l 228 971 l 228 529 l 269 529 l 506 971 l 550 971 l 313 529 q 408 493 369 526 q 475 381 446 460 l 618 0 l 450 0 m 283 1028 l 325 1186 l 439 1186 l 310 1028 l 283 1028 z "},"Ў":{"ha":378,"x_min":-10,"x_max":386,"o":"m 243 581 l 253 525 l 263 525 l 269 581 l 347 971 l 386 971 l 210 90 q 169 17 199 42 q 96 -8 140 -8 q 51 -3 72 -8 l 58 33 q 132 38 103 24 q 171 99 161 51 l 179 138 l -10 971 l 157 971 l 243 581 m 308 1167 l 329 1167 q 295 1070 329 1108 q 208 1032 261 1032 q 122 1070 156 1032 q 88 1167 88 1108 l 108 1167 q 137 1116 108 1135 q 210 1097 165 1097 q 281 1116 253 1097 q 308 1167 308 1135 z "},"Џ":{"ha":646,"x_min":65,"x_max":581,"o":"m 65 971 l 228 971 l 228 33 l 418 33 l 418 971 l 581 971 l 581 0 l 369 0 l 369 -151 l 276 -151 l 276 0 l 65 0 l 65 971 z "},"а":{"ha":497,"x_min":31,"x_max":461,"o":"m 31 206 q 95 338 31 289 q 303 407 160 386 l 303 569 q 280 639 303 614 q 217 664 257 664 q 144 647 182 664 q 88 606 107 631 l 63 628 q 139 681 90 660 q 249 701 188 701 q 332 687 293 701 q 399 646 371 672 q 444 585 428 619 q 461 508 461 550 l 461 0 l 303 0 l 303 40 l 308 75 l 300 78 q 237 12 275 36 q 158 -12 199 -12 q 67 31 104 -12 q 31 138 31 74 l 31 206 m 232 56 q 303 113 269 56 l 303 388 q 247 369 269 379 q 212 342 225 358 q 193 301 199 325 q 188 243 188 278 l 188 129 q 199 76 188 96 q 232 56 211 56 z "},"б":{"ha":635,"x_min":56,"x_max":590,"o":"m 56 272 l 56 654 q 83 825 56 760 q 156 928 111 890 q 260 983 201 967 q 378 1010 318 1000 l 567 1042 l 572 1007 l 386 974 q 301 955 335 965 q 248 919 268 944 q 220 849 228 894 q 213 725 213 804 l 213 592 q 285 638 239 621 q 381 656 332 656 q 463 640 425 656 q 530 595 501 625 q 574 522 558 565 q 590 422 590 478 l 590 272 q 569 154 590 207 q 513 64 549 101 q 428 6 476 26 q 324 -14 379 -14 q 219 6 268 -14 q 134 64 171 26 q 76 154 97 101 q 56 272 56 207 m 213 554 l 213 163 q 247 61 213 99 q 322 24 281 24 q 399 68 364 24 q 433 211 433 113 l 433 428 q 401 567 433 526 q 324 608 368 608 q 265 594 296 608 q 213 554 233 579 z "},"в":{"ha":531,"x_min":51,"x_max":499,"o":"m 485 510 q 470 441 485 468 q 433 397 456 414 q 385 372 411 381 q 336 361 358 364 l 321 360 l 321 350 l 336 347 q 390 333 361 343 q 443 303 419 322 q 483 257 467 285 q 499 190 499 229 l 499 164 q 483 94 499 125 q 440 43 467 64 q 379 11 413 22 q 310 0 346 0 l 51 0 l 51 688 l 294 688 q 360 679 326 688 q 421 652 393 671 q 467 604 449 633 q 485 533 485 575 l 485 510 m 265 371 q 315 399 299 371 q 332 494 332 428 l 332 536 q 316 628 332 603 q 267 653 300 653 l 204 653 l 204 371 l 265 371 m 346 211 q 322 308 346 278 q 265 338 299 338 l 204 338 l 204 35 l 276 35 q 327 60 308 35 q 346 153 346 86 l 346 211 z "},"г":{"ha":383,"x_min":51,"x_max":374,"o":"m 51 688 l 374 688 l 374 654 l 204 654 l 204 0 l 51 0 l 51 688 z "},"д":{"ha":522,"x_min":3,"x_max":549,"o":"m 3 -182 l 3 21 l 46 21 q 79 94 65 50 q 103 201 93 139 q 117 346 113 264 q 121 533 121 428 l 121 688 l 474 688 l 474 21 l 549 21 l 549 -182 l 396 -182 l 396 -12 l 36 -12 l 36 -182 l 3 -182 m 322 21 l 322 653 l 154 653 l 154 518 q 151 361 154 438 q 139 220 147 285 q 116 104 131 156 q 81 21 101 53 l 322 21 z "},"е":{"ha":522,"x_min":44,"x_max":490,"o":"m 44 486 q 62 569 44 531 q 110 638 79 608 q 180 683 140 667 q 265 700 219 700 q 351 683 311 700 q 423 636 392 665 q 472 569 454 607 q 490 488 490 531 l 490 333 l 201 333 l 201 117 q 230 49 201 76 q 303 22 258 22 q 396 54 353 22 q 458 139 439 86 l 490 126 q 407 24 463 60 q 278 -12 351 -12 q 187 4 229 -12 q 113 49 144 21 q 63 117 81 78 q 44 199 44 156 l 44 486 m 333 367 l 333 582 q 315 642 333 618 q 268 667 296 667 q 221 642 240 667 q 201 582 201 618 l 201 367 l 333 367 z "},"ж":{"ha":756,"x_min":-7,"x_max":763,"o":"m 504 303 q 485 335 497 326 q 458 344 474 343 l 453 344 l 453 0 l 301 0 l 301 344 l 297 344 q 272 335 285 343 q 251 303 258 328 l 151 0 l -7 0 l 90 272 q 117 322 100 301 q 155 354 135 342 q 197 373 175 367 q 235 379 218 379 l 72 688 l 113 688 l 274 379 l 301 379 l 301 688 l 453 688 l 453 379 l 482 379 l 643 688 l 683 688 l 522 379 q 560 372 539 378 q 602 353 582 365 q 639 320 622 340 q 665 272 656 300 l 763 0 l 606 0 l 504 303 z "},"з":{"ha":481,"x_min":1,"x_max":440,"o":"m 186 -14 q 1 31 71 -14 l 19 60 q 80 34 47 43 q 144 25 113 25 q 247 62 208 25 q 285 164 285 99 l 285 203 q 253 305 285 268 q 167 342 221 342 l 146 342 l 146 376 l 167 376 q 274 515 274 376 l 274 538 q 244 630 274 597 q 163 663 214 663 q 40 615 94 663 l 18 640 q 201 701 79 701 q 368 654 307 701 q 429 524 429 607 l 429 510 q 376 412 429 450 q 242 367 324 374 l 219 364 l 219 354 l 242 353 q 385 303 329 346 q 440 193 440 260 l 440 168 q 372 34 440 82 q 186 -14 304 -14 z "},"и":{"ha":493,"x_min":51,"x_max":447,"o":"m 447 688 l 447 1 l 414 1 l 414 557 l 418 597 l 410 599 l 393 558 l 115 1 l 51 1 l 51 688 l 86 688 l 86 297 l 82 257 l 92 256 l 107 296 l 299 688 l 447 688 z "},"й":{"ha":493,"x_min":51,"x_max":447,"o":"m 447 688 l 447 1 l 414 1 l 414 557 l 418 597 l 410 599 l 393 558 l 115 1 l 51 1 l 51 688 l 86 688 l 86 297 l 82 257 l 92 256 l 107 296 l 299 688 l 447 688 m 346 926 l 367 926 q 333 830 367 868 q 246 792 299 792 q 159 830 193 792 q 125 926 125 868 l 146 926 q 174 876 146 894 q 247 857 203 857 q 318 876 290 857 q 346 926 346 894 z "},"к":{"ha":506,"x_min":51,"x_max":511,"o":"m 254 303 q 234 335 246 326 q 207 344 222 344 l 203 344 l 203 0 l 51 0 l 51 689 l 203 689 l 203 379 l 231 379 l 392 689 l 433 689 l 271 379 q 309 373 288 379 q 351 353 331 367 q 388 320 371 340 q 415 272 406 300 l 511 0 l 354 0 l 254 303 z "},"л":{"ha":607,"x_min":1,"x_max":563,"o":"m 14 40 q 63 28 42 28 q 105 56 93 28 q 119 147 117 85 l 149 688 l 563 688 l 563 0 l 411 0 l 411 654 l 300 654 l 274 189 q 253 104 271 142 q 208 40 235 67 q 148 0 181 14 q 83 -14 115 -14 q 1 10 40 -14 l 14 40 z "},"м":{"ha":594,"x_min":50,"x_max":550,"o":"m 550 0 l 397 0 l 397 533 l 400 575 l 390 575 l 388 533 l 282 0 l 218 0 l 96 533 l 90 575 l 81 575 l 85 533 l 85 0 l 50 0 l 50 686 l 217 686 l 293 344 l 299 304 l 308 304 l 313 344 l 382 686 l 550 686 l 550 0 z "},"н":{"ha":550,"x_min":51,"x_max":506,"o":"m 204 689 l 204 363 l 353 363 l 353 689 l 506 689 l 506 0 l 353 0 l 353 328 l 204 328 l 204 0 l 51 0 l 51 689 l 204 689 z "},"о":{"ha":535,"x_min":44,"x_max":490,"o":"m 264 701 q 351 684 310 701 q 423 638 392 667 q 472 569 454 608 q 490 489 490 531 l 490 199 q 473 117 490 156 q 426 49 456 78 q 356 3 396 19 q 271 -14 317 -14 q 184 3 225 -14 q 112 50 143 21 q 63 117 81 79 q 44 199 44 156 l 44 489 q 62 571 44 532 q 109 639 79 610 q 179 685 139 668 q 264 701 219 701 m 268 667 q 221 642 240 667 q 201 582 201 618 l 201 104 q 220 44 201 68 q 269 21 239 21 q 315 44 297 21 q 333 104 333 68 l 333 582 q 315 643 333 619 q 268 667 296 667 z "},"п":{"ha":535,"x_min":51,"x_max":490,"o":"m 490 688 l 490 0 l 339 0 l 339 653 l 203 653 l 203 0 l 51 0 l 51 688 l 490 688 z "},"р":{"ha":535,"x_min":56,"x_max":490,"o":"m 203 613 l 211 610 q 255 679 229 658 q 318 700 281 700 q 384 685 353 700 q 439 642 415 669 q 476 581 463 615 q 490 506 490 546 l 490 194 q 476 115 490 153 q 436 48 461 76 q 378 3 411 19 q 308 -14 346 -14 q 211 64 238 -14 l 203 61 l 208 21 l 208 -233 l 56 -233 l 56 688 l 208 688 l 208 653 l 203 613 m 208 142 q 215 99 208 119 q 231 61 221 78 q 256 35 242 44 q 283 25 269 25 q 319 46 306 25 q 333 99 333 67 l 333 574 q 319 627 333 606 q 282 649 304 649 q 255 639 268 649 q 231 613 242 629 q 215 577 221 597 q 208 536 208 557 l 208 142 z "},"с":{"ha":458,"x_min":44,"x_max":475,"o":"m 44 476 q 61 566 44 525 q 107 637 78 607 q 176 683 136 667 q 264 700 217 700 q 363 681 315 700 q 442 629 410 663 l 417 606 q 357 647 393 631 q 289 664 321 664 q 224 639 247 664 q 201 569 201 614 l 201 129 q 228 53 201 81 q 300 25 256 25 q 385 51 344 25 q 446 117 426 76 l 475 103 q 397 17 450 49 q 274 -14 343 -14 q 181 3 224 -14 q 109 49 139 19 q 62 121 79 79 q 44 211 44 163 l 44 476 z "},"т":{"ha":468,"x_min":18,"x_max":450,"o":"m 450 654 l 311 654 l 311 0 l 158 0 l 158 654 l 18 654 l 18 688 l 450 688 l 450 654 z "},"у":{"ha":464,"x_min":18,"x_max":447,"o":"m 178 688 l 288 310 l 294 269 l 304 269 l 311 310 l 411 688 l 447 688 l 228 -144 q 114 -243 201 -243 q 71 -237 92 -243 l 79 -204 q 151 -199 124 -214 q 193 -136 179 -185 l 225 -17 l 18 688 l 178 688 z "},"ф":{"ha":586,"x_min":44,"x_max":542,"o":"m 310 971 l 310 700 q 402 679 360 697 q 476 633 444 661 q 524 568 507 606 q 542 489 542 531 l 542 199 q 524 117 542 154 q 476 51 507 79 q 402 6 444 22 q 310 -12 360 -11 l 310 -233 l 275 -233 l 275 -12 q 184 9 226 -8 q 110 55 142 26 q 62 120 79 83 q 44 199 44 157 l 44 489 q 62 571 44 533 q 110 636 79 608 q 183 681 142 664 q 275 700 225 699 l 275 971 l 310 971 m 310 21 q 385 104 385 26 l 385 582 q 310 667 385 661 l 310 21 m 275 665 q 201 582 201 657 l 201 104 q 275 22 201 31 l 275 665 z "},"х":{"ha":517,"x_min":17,"x_max":499,"o":"m 179 688 l 269 492 l 283 454 l 293 454 l 307 492 l 394 688 l 433 688 l 308 410 l 499 0 l 340 0 l 214 271 l 200 308 l 190 308 l 178 271 l 57 0 l 17 0 l 176 353 l 21 688 l 179 688 z "},"ц":{"ha":574,"x_min":51,"x_max":599,"o":"m 51 688 l 203 688 l 203 33 l 339 33 l 339 688 l 490 688 l 490 35 l 599 35 l 599 -151 l 504 -151 l 504 0 l 51 0 l 51 688 z "},"ч":{"ha":518,"x_min":43,"x_max":474,"o":"m 321 271 q 270 210 297 228 q 201 192 243 192 q 87 235 131 192 q 43 351 43 279 l 43 688 l 194 688 l 194 288 q 203 242 194 256 q 229 229 211 229 q 262 239 246 229 q 291 263 278 249 q 313 296 304 278 q 321 332 321 314 l 321 688 l 474 688 l 474 0 l 321 0 l 321 226 l 329 267 l 321 271 z "},"ш":{"ha":747,"x_min":51,"x_max":703,"o":"m 51 688 l 204 688 l 204 35 l 300 35 l 300 688 l 453 688 l 453 35 l 550 35 l 550 688 l 703 688 l 703 0 l 51 0 l 51 688 z "},"щ":{"ha":785,"x_min":51,"x_max":811,"o":"m 51 688 l 204 688 l 204 35 l 300 35 l 300 688 l 453 688 l 453 35 l 550 35 l 550 688 l 703 688 l 703 0 l 51 0 l 51 688 m 683 35 l 811 35 l 811 -151 l 717 -151 l 717 0 l 683 0 l 683 35 z "},"ъ":{"ha":571,"x_min":0,"x_max":526,"o":"m 340 388 q 411 375 378 388 q 470 340 444 363 q 511 286 496 317 q 526 219 526 256 l 526 164 q 511 101 526 131 q 470 49 496 71 q 411 13 444 26 q 342 0 378 0 l 92 0 l 92 654 l 0 654 l 0 689 l 244 689 l 244 388 l 340 388 m 374 229 q 307 353 374 353 l 244 353 l 244 35 l 315 35 q 360 60 347 35 q 374 154 374 86 l 374 229 z "},"ы":{"ha":753,"x_min":53,"x_max":707,"o":"m 300 388 q 371 375 338 388 q 430 340 404 363 q 471 286 456 317 q 486 219 486 256 l 486 164 q 471 101 486 131 q 430 49 456 71 q 371 13 404 26 q 301 0 338 0 l 53 0 l 53 688 l 206 689 l 206 388 l 300 388 m 707 689 l 707 0 l 554 0 l 554 689 l 707 689 m 333 229 q 268 353 333 353 l 206 353 l 206 35 l 276 35 q 321 60 308 35 q 333 154 333 86 l 333 229 z "},"ь":{"ha":531,"x_min":53,"x_max":486,"o":"m 300 388 q 371 375 338 388 q 430 340 404 363 q 471 286 456 317 q 486 219 486 256 l 486 164 q 471 101 486 131 q 430 49 456 71 q 371 13 404 26 q 301 0 338 0 l 53 0 l 53 688 l 206 689 l 206 388 l 300 388 m 333 229 q 268 353 333 353 l 206 353 l 206 35 l 276 35 q 321 60 308 35 q 333 154 333 86 l 333 229 z "},"э":{"ha":478,"x_min":0,"x_max":432,"o":"m 432 211 q 415 122 432 163 q 367 51 397 81 q 295 4 338 21 q 203 -12 253 -12 q 80 18 133 -12 q 0 103 26 49 l 31 118 q 90 51 50 78 q 175 25 131 25 q 248 53 221 25 q 275 129 275 82 l 275 326 l 97 326 l 97 360 l 275 360 l 275 568 q 251 638 275 613 q 188 663 228 663 q 118 647 154 663 q 58 606 82 631 l 35 628 q 114 681 67 663 q 211 700 161 700 q 299 683 258 700 q 369 636 339 667 q 415 565 399 606 q 432 476 432 525 l 432 211 z "},"ю":{"ha":788,"x_min":51,"x_max":743,"o":"m 517 701 q 603 684 563 701 q 676 638 644 667 q 725 570 707 608 q 743 489 743 532 l 743 199 q 726 117 743 156 q 678 50 708 79 q 609 4 649 21 q 524 -12 569 -12 q 437 4 478 -12 q 365 50 396 21 q 315 117 333 79 q 297 199 297 156 l 297 328 l 204 328 l 204 0 l 51 0 l 51 689 l 204 689 l 204 363 l 297 363 l 297 489 q 315 571 297 532 q 362 639 332 610 q 432 685 392 668 q 517 701 472 701 m 521 668 q 474 644 493 668 q 454 583 454 619 l 454 106 q 474 45 454 69 q 522 21 493 21 q 568 44 550 21 q 586 106 586 68 l 586 583 q 567 644 586 619 q 521 668 549 668 z "},"я":{"ha":525,"x_min":44,"x_max":481,"o":"m 481 0 l 328 0 l 328 326 l 307 326 q 275 312 285 326 q 254 244 265 297 l 200 0 l 44 0 l 99 240 q 144 306 107 278 q 232 335 181 335 l 232 344 q 109 399 153 351 q 65 508 65 446 l 65 524 q 78 587 65 557 q 113 640 90 617 q 165 676 135 663 q 231 689 196 689 l 481 689 l 481 0 m 218 482 q 275 361 218 361 l 328 361 l 328 654 l 281 654 q 233 624 249 654 q 218 528 218 594 l 218 482 z "},"ё":{"ha":522,"x_min":44,"x_max":490,"o":"m 44 486 q 62 569 44 531 q 110 638 79 608 q 180 683 140 667 q 265 700 219 700 q 351 683 311 700 q 423 636 392 665 q 472 569 454 607 q 490 488 490 531 l 490 333 l 201 333 l 201 117 q 230 49 201 76 q 303 22 258 22 q 396 54 353 22 q 458 139 439 86 l 490 126 q 407 24 463 60 q 278 -12 351 -12 q 187 4 229 -12 q 113 49 144 21 q 63 117 81 78 q 44 199 44 156 l 44 486 m 333 367 l 333 582 q 315 642 333 618 q 268 667 296 667 q 221 642 240 667 q 201 582 201 618 l 201 367 l 333 367 m 114 863 q 131 906 114 889 q 176 924 149 924 q 223 906 204 924 q 242 863 242 889 q 223 817 242 835 q 176 800 204 800 q 131 817 149 800 q 114 863 114 835 m 304 863 q 322 906 304 889 q 368 924 340 924 q 414 907 396 924 q 432 863 432 890 q 414 817 432 835 q 368 800 396 800 q 322 817 340 800 q 304 863 304 835 z "},"ђ":{"ha":549,"x_min":13,"x_max":499,"o":"m 210 592 q 263 676 233 651 q 340 701 293 701 q 454 660 410 701 q 499 556 499 618 l 499 50 q 488 -34 499 4 q 451 -107 476 -72 q 386 -175 426 -142 q 289 -242 346 -208 l 271 -219 q 319 -159 303 -192 q 336 -64 336 -126 l 336 590 q 301 658 336 658 q 269 644 286 658 q 239 610 253 631 q 216 563 225 589 q 207 514 207 538 l 207 0 l 54 0 l 54 790 l 13 790 l 13 824 l 54 824 l 54 972 l 207 972 l 207 824 l 313 824 l 313 790 l 207 790 l 207 635 l 201 594 l 210 592 z "},"ѓ":{"ha":383,"x_min":51,"x_max":374,"o":"m 51 688 l 374 688 l 374 654 l 204 654 l 204 0 l 51 0 l 51 688 m 168 744 l 210 903 l 324 903 l 194 744 l 168 744 z "},"ґ":{"ha":383,"x_min":51,"x_max":374,"o":"m 51 688 l 272 688 l 271 822 l 374 822 l 374 654 l 204 654 l 204 0 l 51 0 l 51 688 z "},"є":{"ha":458,"x_min":44,"x_max":476,"o":"m 44 476 q 61 565 44 525 q 108 636 78 606 q 178 683 138 667 q 265 700 218 700 q 363 681 317 700 q 442 628 410 663 l 418 606 q 358 647 394 631 q 289 663 322 663 q 225 638 249 663 q 201 568 201 613 l 201 360 l 379 360 l 379 326 l 201 326 l 201 129 q 228 53 201 82 q 301 25 256 25 q 387 51 346 25 q 446 118 428 78 l 476 103 q 397 18 450 49 q 274 -12 343 -12 q 181 4 224 -12 q 109 51 139 21 q 62 122 79 81 q 44 211 44 163 l 44 476 z "},"ѕ":{"ha":411,"x_min":28,"x_max":397,"o":"m 351 619 q 256 661 303 661 q 203 642 224 661 q 183 590 183 622 q 208 510 183 554 l 369 232 q 397 146 397 188 q 381 84 397 113 q 338 33 365 56 q 275 -1 311 11 q 197 -14 239 -14 q 106 5 149 -14 q 28 58 63 24 l 50 83 q 115 40 82 56 q 175 25 147 25 q 222 42 204 25 q 239 90 239 60 q 194 214 239 138 l 64 435 q 29 542 29 493 q 44 604 29 575 q 85 655 58 633 q 146 689 111 676 q 219 701 181 701 q 375 643 308 701 l 351 619 z "},"і":{"ha":281,"x_min":54,"x_max":231,"o":"m 54 860 q 79 922 54 897 q 142 946 104 946 q 206 922 181 946 q 231 860 231 897 q 206 798 231 824 q 142 772 181 772 q 79 798 104 772 q 54 860 54 824 m 217 688 l 217 0 l 64 0 l 64 688 l 217 688 z "},"ї":{"ha":281,"x_min":-11,"x_max":307,"o":"m 217 688 l 217 0 l 64 0 l 64 688 l 217 688 m -11 863 q 6 906 -11 889 q 51 924 24 924 q 98 906 79 924 q 117 863 117 889 q 98 817 117 835 q 51 800 79 800 q 6 817 24 800 q -11 863 -11 835 m 179 863 q 197 906 179 889 q 243 924 215 924 q 289 907 271 924 q 307 863 307 890 q 289 817 307 835 q 243 800 271 800 q 197 817 215 800 q 179 863 179 835 z "},"ј":{"ha":325,"x_min":38,"x_max":275,"o":"m 101 860 q 126 922 101 897 q 188 946 150 946 q 250 922 225 946 q 275 860 275 897 q 250 798 275 824 q 188 772 225 772 q 126 797 150 772 q 101 860 101 822 m 264 51 q 253 -33 264 6 q 217 -108 242 -72 q 152 -176 192 -143 q 56 -243 113 -208 l 38 -221 q 67 -194 53 -207 q 90 -162 81 -181 q 106 -121 100 -144 q 111 -64 111 -97 l 111 688 l 264 688 l 264 51 z "},"љ":{"ha":951,"x_min":1,"x_max":907,"o":"m 721 388 q 792 375 758 388 q 851 340 825 363 q 892 286 876 317 q 907 219 907 256 l 907 164 q 892 101 907 131 q 851 49 876 71 q 792 13 825 26 q 722 0 758 0 l 474 0 l 474 654 l 335 654 l 321 304 q 261 66 314 144 q 117 -12 208 -12 q 1 19 57 -12 l 15 53 q 89 31 54 31 q 144 63 125 31 q 167 179 164 96 l 183 689 l 626 689 l 626 388 l 721 388 m 754 229 q 689 353 754 353 l 626 353 l 626 35 l 697 35 q 742 60 729 35 q 754 154 754 86 l 754 229 z "},"њ":{"ha":831,"x_min":51,"x_max":786,"o":"m 204 689 l 204 388 l 353 388 l 353 689 l 506 689 l 506 388 l 600 388 q 671 375 638 388 q 730 340 704 363 q 771 286 756 317 q 786 219 786 256 l 786 164 q 771 101 786 131 q 730 49 756 71 q 671 13 704 26 q 601 0 638 0 l 353 0 l 353 353 l 204 353 l 204 0 l 51 0 l 51 689 l 204 689 m 633 229 q 568 353 633 353 l 506 353 l 506 35 l 576 35 q 621 60 608 35 q 633 154 633 86 l 633 229 z "},"ћ":{"ha":543,"x_min":56,"x_max":499,"o":"m 211 592 q 265 675 235 650 q 340 700 294 700 q 403 689 374 700 q 453 658 432 678 q 487 613 475 639 q 499 556 499 586 l 499 0 l 336 0 l 336 590 q 301 657 336 657 q 269 644 286 657 q 240 610 253 631 q 217 563 226 589 q 208 514 208 538 l 208 0 l 56 0 l 56 971 l 208 971 l 208 635 l 203 594 l 211 592 z "},"ќ":{"ha":506,"x_min":51,"x_max":511,"o":"m 254 303 q 234 335 246 326 q 207 344 222 344 l 203 344 l 203 0 l 51 0 l 51 689 l 203 689 l 203 379 l 231 379 l 392 689 l 433 689 l 271 379 q 309 373 288 379 q 351 353 331 367 q 388 320 371 340 q 415 272 406 300 l 511 0 l 354 0 l 254 303 m 246 744 l 288 903 l 401 903 l 272 744 l 246 744 z "},"ў":{"ha":464,"x_min":18,"x_max":447,"o":"m 178 688 l 288 310 l 294 269 l 304 269 l 311 310 l 411 688 l 447 688 l 228 -144 q 114 -243 201 -243 q 71 -237 92 -243 l 79 -204 q 151 -199 124 -214 q 193 -136 179 -185 l 225 -17 l 18 688 l 178 688 m 368 926 l 389 926 q 355 830 389 868 q 268 792 321 792 q 181 830 215 792 q 147 926 147 868 l 168 926 q 197 876 168 894 q 269 857 225 857 q 340 876 313 857 q 368 926 368 894 z "},"џ":{"ha":535,"x_min":51,"x_max":490,"o":"m 51 688 l 203 688 l 203 33 l 339 33 l 339 688 l 490 688 l 490 0 l 318 0 l 318 -151 l 224 -151 l 224 0 l 51 0 l 51 688 z "},"Ѐ":{"ha":465,"x_min":67,"x_max":435,"o":"m 435 971 l 435 935 l 228 935 l 228 514 l 406 514 l 406 478 l 228 478 l 228 36 l 435 36 l 435 0 l 67 0 l 67 971 l 435 971 m 250 1028 l 121 1186 l 235 1186 l 276 1028 l 250 1028 z "},"Ѝ":{"ha":557,"x_min":58,"x_max":500,"o":"m 500 971 l 500 0 l 464 0 l 464 792 l 467 847 l 457 847 l 439 792 l 129 0 l 58 0 l 58 971 l 96 971 l 96 411 l 92 356 l 103 356 l 119 411 l 335 971 l 500 971 m 257 1028 l 128 1186 l 242 1186 l 283 1028 l 257 1028 z "},"ѐ":{"ha":522,"x_min":44,"x_max":490,"o":"m 44 486 q 62 569 44 531 q 110 638 79 608 q 180 683 140 667 q 265 700 219 700 q 351 683 311 700 q 423 636 392 665 q 472 569 454 607 q 490 488 490 531 l 490 333 l 201 333 l 201 117 q 230 49 201 76 q 303 22 258 22 q 396 54 353 22 q 458 139 439 86 l 490 126 q 407 24 463 60 q 278 -12 351 -12 q 187 4 229 -12 q 113 49 144 21 q 63 117 81 78 q 44 199 44 156 l 44 486 m 333 367 l 333 582 q 315 642 333 618 q 268 667 296 667 q 221 642 240 667 q 201 582 201 618 l 201 367 l 333 367 m 261 788 l 132 946 l 246 946 l 288 788 l 261 788 z "},"ѝ":{"ha":493,"x_min":51,"x_max":447,"o":"m 447 688 l 447 1 l 414 1 l 414 557 l 418 597 l 410 599 l 393 558 l 115 1 l 51 1 l 51 688 l 86 688 l 86 297 l 82 257 l 92 256 l 107 296 l 299 688 l 447 688 m 240 788 l 111 946 l 225 946 l 267 788 l 240 788 z "},"Ҋ":{"ha":583,"x_min":58,"x_max":615,"o":"m 500 971 l 500 0 l 464 0 l 464 792 l 467 847 l 457 847 l 439 792 l 129 0 l 58 0 l 58 971 l 96 971 l 96 411 l 92 356 l 103 356 l 119 411 l 335 971 l 500 971 m 361 1167 l 382 1167 q 348 1070 382 1108 q 261 1032 314 1032 q 174 1070 208 1032 q 140 1167 140 1108 l 161 1167 q 190 1116 161 1135 q 263 1097 218 1097 q 333 1116 306 1097 q 361 1167 361 1135 m 467 -151 l 511 0 l 492 0 l 492 36 l 615 36 l 560 -151 l 467 -151 z "},"ҋ":{"ha":543,"x_min":51,"x_max":565,"o":"m 447 688 l 447 1 l 414 1 l 414 557 l 418 597 l 410 599 l 393 558 l 115 1 l 51 1 l 51 688 l 86 688 l 86 297 l 82 257 l 92 256 l 107 296 l 299 688 l 447 688 m 417 -151 l 461 0 l 442 0 l 442 33 l 565 33 l 510 -151 l 417 -151 m 346 926 l 367 926 q 333 830 367 868 q 246 792 299 792 q 159 830 193 792 q 125 926 125 868 l 146 926 q 174 876 146 894 q 247 857 203 857 q 318 876 290 857 q 346 926 346 894 z "},"Ҍ":{"ha":583,"x_min":3,"x_max":551,"o":"m 308 546 q 406 528 361 546 q 482 478 450 510 q 533 403 514 447 q 551 310 551 360 l 551 231 q 535 141 551 183 q 489 67 518 99 q 421 18 460 36 q 338 0 382 0 l 65 0 l 65 971 l 228 971 l 228 546 l 308 546 m 389 336 q 296 510 389 510 l 228 510 l 228 36 l 307 36 q 370 73 351 36 q 389 204 389 110 l 389 336 m 3 824 l 313 824 l 313 788 l 3 788 l 3 824 z "},"ҍ":{"ha":531,"x_min":-10,"x_max":486,"o":"m 300 388 q 371 375 338 388 q 430 340 404 363 q 471 286 456 317 q 486 219 486 256 l 486 164 q 471 101 486 131 q 430 49 456 71 q 371 13 404 26 q 301 0 338 0 l 53 0 l 53 688 l 206 689 l 206 388 l 300 388 m 333 229 q 268 353 333 353 l 206 353 l 206 35 l 276 35 q 321 60 308 35 q 333 154 333 86 l 333 229 m -10 603 l 300 603 l 300 569 l -10 569 l -10 603 z "},"Ҏ":{"ha":578,"x_min":65,"x_max":546,"o":"m 313 971 q 406 952 363 971 q 480 901 449 933 q 528 827 511 869 q 546 738 546 785 l 546 686 q 528 597 546 639 q 481 522 511 554 q 408 472 450 490 q 315 453 365 453 l 228 453 l 228 0 l 65 0 l 65 971 l 313 971 m 383 756 q 363 892 383 850 q 296 935 342 935 l 228 935 l 228 489 l 303 489 q 365 532 347 489 q 383 668 383 575 l 383 756 m 300 590 l 411 397 l 389 385 l 278 578 l 300 590 z "},"ҏ":{"ha":535,"x_min":56,"x_max":490,"o":"m 203 613 l 211 610 q 255 679 229 658 q 318 700 281 700 q 384 685 353 700 q 439 642 415 669 q 476 581 463 615 q 490 506 490 546 l 490 194 q 476 115 490 153 q 436 48 461 76 q 378 3 411 19 q 308 -14 346 -14 q 211 64 238 -14 l 203 61 l 208 21 l 208 -233 l 56 -233 l 56 688 l 208 688 l 208 653 l 203 613 m 208 142 q 215 99 208 119 q 231 61 221 78 q 256 35 242 44 q 283 25 269 25 q 319 46 306 25 q 333 99 333 67 l 333 574 q 319 627 333 606 q 282 649 304 649 q 255 639 268 649 q 231 613 242 629 q 215 577 221 597 q 208 536 208 557 l 208 142 m 272 129 l 383 -64 l 361 -76 l 250 117 l 272 129 z "},"Ғ":{"ha":414,"x_min":3,"x_max":425,"o":"m 65 971 l 425 971 l 425 935 l 228 935 l 228 0 l 65 0 l 65 971 m 3 535 l 313 535 l 313 499 l 3 499 l 3 535 z "},"ғ":{"ha":383,"x_min":-11,"x_max":374,"o":"m 51 688 l 374 688 l 374 654 l 204 654 l 204 0 l 51 0 l 51 688 m -11 394 l 299 394 l 299 361 l -11 361 l -11 394 z "},"Ҕ":{"ha":611,"x_min":65,"x_max":553,"o":"m 228 935 l 228 553 l 213 518 l 219 511 q 276 533 247 526 q 331 539 306 539 q 419 522 378 539 q 490 476 460 506 q 536 405 519 446 q 553 317 553 364 l 553 60 q 535 -30 553 11 q 487 -101 518 -71 q 413 -147 456 -131 q 317 -164 369 -164 l 317 -131 q 372 -101 353 -131 q 390 -33 390 -72 l 390 408 q 367 478 390 453 q 301 503 343 503 q 228 483 264 503 l 228 0 l 65 0 l 65 971 l 435 971 l 435 935 l 228 935 z "},"ҕ":{"ha":529,"x_min":51,"x_max":485,"o":"m 204 654 l 204 385 l 189 350 l 196 342 q 240 358 218 353 q 289 364 261 364 q 435 316 385 364 q 485 196 485 268 l 485 3 q 432 -117 485 -71 q 272 -164 379 -164 l 272 -137 q 313 -115 300 -137 q 326 -64 326 -93 l 326 264 q 310 316 326 297 q 261 335 294 335 q 233 331 246 335 q 204 321 219 328 l 204 -1 l 51 -1 l 51 688 l 397 688 l 397 654 l 204 654 z "},"Җ":{"ha":1018,"x_min":-10,"x_max":1026,"o":"m 763 0 l 618 414 q 583 477 601 463 q 543 492 565 492 l 542 492 l 542 0 l 379 0 l 379 492 l 378 492 q 338 478 356 492 q 304 415 319 464 l 158 0 l -10 0 l 133 381 q 201 493 163 460 q 296 529 239 526 l 58 971 l 103 971 l 339 529 l 379 529 l 379 971 l 542 971 l 542 529 l 582 529 l 819 971 l 864 971 l 625 529 q 721 493 682 526 q 789 381 760 460 l 932 0 l 763 0 m 899 36 l 1026 36 l 1026 -151 l 932 -151 l 932 0 l 899 0 l 899 36 z "},"җ":{"ha":875,"x_min":-7,"x_max":857,"o":"m 504 303 q 485 335 497 326 q 458 344 474 343 l 453 344 l 453 0 l 301 0 l 301 344 l 297 344 q 272 335 285 343 q 251 303 258 328 l 151 0 l -7 0 l 90 272 q 117 322 100 301 q 155 354 135 342 q 197 373 175 367 q 235 379 218 379 l 72 688 l 113 688 l 274 379 l 301 379 l 301 688 l 453 688 l 453 379 l 482 379 l 643 688 l 683 688 l 522 379 q 560 372 539 378 q 602 353 582 365 q 639 320 622 340 q 665 272 656 300 l 763 0 l 606 0 l 504 303 m 729 35 l 857 35 l 857 -151 l 763 -151 l 763 0 l 729 0 l 729 35 z "},"Ҙ":{"ha":649,"x_min":57,"x_max":624,"o":"m 301 -14 q 169 2 232 -14 q 57 49 106 18 l 78 81 q 170 42 124 54 q 258 29 217 29 q 404 85 350 29 q 458 236 458 140 l 458 300 q 412 435 458 385 q 290 485 365 485 l 261 485 l 260 521 l 290 521 q 401 570 360 521 q 442 707 442 619 l 442 750 q 395 885 442 835 q 275 936 349 936 q 107 869 189 936 l 81 897 q 185 960 122 938 q 321 983 247 983 q 436 967 383 983 q 526 919 489 950 q 585 847 564 889 q 607 751 607 804 l 607 714 q 553 570 607 621 q 400 511 500 519 l 372 508 l 372 497 l 400 494 q 565 432 506 485 q 624 288 624 379 l 624 242 q 601 136 624 183 q 535 56 578 89 q 433 4 493 22 q 301 -14 374 -14 m 219 -104 q 276 -154 243 -154 q 310 -137 296 -154 q 325 -93 325 -119 q 309 -43 325 -68 q 264 0 293 -18 l 286 0 q 361 -59 335 -28 q 388 -122 388 -90 q 364 -176 388 -154 q 306 -199 340 -199 q 244 -176 272 -199 q 200 -114 217 -154 l 219 -104 z "},"Қ":{"ha":704,"x_min":65,"x_max":713,"o":"m 450 0 l 304 414 q 270 477 288 463 q 229 492 253 492 l 228 492 l 228 0 l 65 0 l 65 971 l 228 971 l 228 529 l 269 529 l 506 971 l 550 971 l 313 529 q 408 493 369 526 q 475 381 446 460 l 618 0 l 450 0 m 585 36 l 713 36 l 713 -151 l 618 -151 l 618 0 l 585 0 l 585 36 z "},"қ":{"ha":601,"x_min":51,"x_max":607,"o":"m 254 303 q 234 335 246 326 q 207 344 222 344 l 203 344 l 203 0 l 51 0 l 51 689 l 203 689 l 203 379 l 231 379 l 392 689 l 433 689 l 271 379 q 309 373 288 379 q 351 353 331 367 q 388 320 371 340 q 415 272 406 300 l 511 0 l 354 0 l 254 303 m 479 35 l 607 35 l 607 -151 l 513 -151 l 513 0 l 479 0 l 479 35 z "},"Ҝ":{"ha":664,"x_min":67,"x_max":674,"o":"m 506 0 l 361 414 q 331 472 346 454 q 297 492 315 489 l 297 403 l 267 403 l 267 493 l 229 493 l 229 0 l 67 0 l 67 971 l 229 971 l 229 529 l 267 529 l 267 638 l 297 638 l 297 529 l 325 529 l 563 971 l 606 971 l 368 529 q 463 493 425 526 q 532 381 501 460 l 674 0 l 506 0 z "},"ҝ":{"ha":554,"x_min":51,"x_max":561,"o":"m 311 303 q 292 335 304 326 q 265 344 281 343 l 265 254 l 238 254 l 238 344 l 204 344 l 204 0 l 51 0 l 51 688 l 204 688 l 204 379 l 238 379 l 238 489 l 265 489 l 265 379 l 288 379 l 442 688 l 483 688 l 328 379 q 366 373 344 379 q 408 354 388 367 q 445 322 428 342 q 472 272 463 301 l 561 0 l 404 0 l 311 303 z "},"Ҟ":{"ha":608,"x_min":4,"x_max":618,"o":"m 450 0 l 304 414 q 270 477 288 463 q 229 492 253 492 l 228 492 l 228 0 l 65 0 l 65 971 l 228 971 l 228 529 l 269 529 l 506 971 l 550 971 l 313 529 q 408 493 369 526 q 475 381 446 460 l 618 0 l 450 0 m 4 856 l 314 856 l 314 819 l 4 819 l 4 856 z "},"ҟ":{"ha":506,"x_min":-11,"x_max":511,"o":"m 254 303 q 234 335 246 326 q 207 344 222 343 l 203 344 l 203 0 l 51 0 l 51 789 l -11 789 l -11 824 l 51 824 l 51 971 l 203 971 l 203 824 l 299 824 l 299 789 l 203 789 l 203 379 l 231 379 l 392 688 l 433 688 l 271 379 q 309 372 288 378 q 351 353 331 365 q 388 320 371 340 q 415 272 406 300 l 511 0 l 354 0 l 254 303 z "},"Ҡ":{"ha":717,"x_min":-11,"x_max":728,"o":"m 560 0 l 414 414 q 380 477 397 463 q 339 492 363 492 l 338 492 l 338 0 l 175 0 l 175 971 l 338 971 l 338 529 l 379 529 l 615 971 l 660 971 l 422 529 q 517 493 479 526 q 585 381 556 460 l 728 0 l 560 0 m -11 971 l 176 971 l 176 935 l -11 935 l -11 971 z "},"ҡ":{"ha":613,"x_min":0,"x_max":618,"o":"m 361 303 q 341 335 353 326 q 314 344 329 344 l 310 344 l 310 0 l 158 0 l 158 689 l 310 689 l 310 379 l 338 379 l 499 689 l 540 689 l 378 379 q 416 373 394 379 q 458 353 438 367 q 495 320 478 340 q 522 272 513 300 l 618 0 l 461 0 l 361 303 m 0 688 l 160 688 l 160 654 l 0 654 l 0 688 z "},"Ң":{"ha":669,"x_min":65,"x_max":688,"o":"m 228 971 l 228 503 l 418 503 l 418 971 l 581 971 l 581 0 l 418 0 l 418 467 l 228 467 l 228 0 l 65 0 l 65 971 l 228 971 m 560 36 l 688 36 l 688 -151 l 593 -151 l 593 0 l 560 0 l 560 36 z "},"ң":{"ha":588,"x_min":51,"x_max":613,"o":"m 204 689 l 204 363 l 353 363 l 353 689 l 506 689 l 506 0 l 353 0 l 353 328 l 204 328 l 204 0 l 51 0 l 51 689 l 204 689 m 485 35 l 613 35 l 613 -151 l 518 -151 l 518 0 l 485 0 l 485 35 z "},"Ҥ":{"ha":754,"x_min":65,"x_max":764,"o":"m 228 971 l 228 503 l 418 503 l 418 971 l 581 971 l 581 0 l 418 0 l 418 467 l 228 467 l 228 0 l 65 0 l 65 971 l 228 971 m 576 971 l 764 971 l 764 935 l 576 935 l 576 971 z "},"ҥ":{"ha":671,"x_min":51,"x_max":661,"o":"m 204 689 l 204 363 l 353 363 l 353 689 l 506 689 l 506 0 l 353 0 l 353 328 l 204 328 l 204 0 l 51 0 l 51 689 l 204 689 m 501 688 l 661 688 l 661 654 l 501 654 l 501 688 z "},"Ҧ":{"ha":964,"x_min":65,"x_max":907,"o":"m 581 971 l 581 553 l 567 518 l 574 511 q 630 533 601 526 q 685 539 658 539 q 773 522 732 539 q 844 476 814 506 q 890 405 874 446 q 907 317 907 364 l 907 60 q 890 -30 907 11 q 841 -101 872 -71 q 767 -147 810 -131 q 671 -164 724 -164 l 671 -131 q 725 -101 706 -131 q 744 -35 744 -72 l 744 410 q 721 478 744 454 q 656 503 697 503 q 581 483 617 503 l 581 0 l 418 0 l 418 935 l 228 935 l 228 0 l 65 0 l 65 971 l 581 971 z "},"ҧ":{"ha":817,"x_min":53,"x_max":772,"o":"m 492 686 l 492 383 l 478 349 l 483 342 q 527 358 506 353 q 576 363 549 363 q 722 315 672 363 q 772 196 772 268 l 772 4 q 719 -117 772 -71 q 560 -164 667 -164 l 560 -137 q 601 -115 588 -137 q 614 -65 614 -93 l 614 265 q 598 316 614 297 q 547 335 582 335 q 492 321 524 335 l 492 0 l 339 0 l 339 653 l 204 653 l 204 0 l 53 0 l 53 686 l 492 686 z "},"Ҩ":{"ha":740,"x_min":67,"x_max":717,"o":"m 236 185 q 280 65 236 107 q 406 24 324 24 q 460 29 438 24 q 362 117 397 65 q 326 231 326 168 l 326 583 q 378 758 326 694 q 521 821 431 821 q 665 756 613 821 q 717 576 717 690 l 717 232 q 683 106 717 158 q 586 24 650 54 q 717 6 636 6 l 717 -31 q 521 1 608 -31 q 392 -12 467 -12 q 260 8 319 -12 q 157 67 200 29 q 90 159 114 106 q 67 278 67 213 l 67 704 q 86 818 67 767 q 142 906 106 869 q 228 963 178 943 q 339 983 278 983 q 479 950 419 983 l 460 918 q 353 947 406 947 q 263 910 290 947 q 236 786 236 872 l 236 185 m 522 61 q 561 163 561 97 l 561 669 q 552 758 561 732 q 522 785 543 785 q 492 758 501 785 q 483 668 483 731 l 483 163 q 522 61 483 99 z "},"ҩ":{"ha":665,"x_min":44,"x_max":619,"o":"m 201 138 q 238 52 201 83 q 340 21 275 21 q 360 22 351 21 q 379 24 369 22 q 299 92 328 51 q 271 182 271 132 l 271 389 q 444 585 271 585 q 619 385 619 585 l 619 182 q 588 90 619 132 q 503 22 556 49 q 619 7 553 7 l 619 -25 q 439 0 517 -25 q 339 -12 393 -12 q 218 3 272 -12 q 126 46 164 18 q 66 112 88 74 q 44 197 44 150 l 44 489 q 63 571 44 532 q 114 639 82 610 q 189 685 146 668 q 279 701 232 701 q 381 676 335 701 l 367 647 q 290 668 329 668 q 201 550 201 668 l 201 138 m 444 51 q 475 107 475 75 l 475 469 q 468 532 475 514 q 446 550 461 550 q 422 531 429 550 q 415 468 415 513 l 415 107 q 444 51 415 76 z "},"Ҫ":{"ha":554,"x_min":58,"x_max":553,"o":"m 58 701 q 76 819 58 767 q 128 908 94 871 q 210 965 163 944 q 317 985 258 985 q 521 899 443 985 l 494 874 q 343 942 426 942 q 253 906 283 942 q 222 800 222 869 l 222 178 q 342 29 222 29 q 448 60 400 29 q 519 144 496 92 l 553 129 q 465 24 525 61 q 321 -14 404 -14 q 128 65 199 -14 q 58 281 58 144 l 58 701 m 265 -104 q 322 -154 289 -154 q 356 -137 342 -154 q 371 -93 371 -119 q 355 -43 371 -68 q 310 0 339 -18 l 332 0 q 407 -59 381 -28 q 433 -122 433 -90 q 410 -176 433 -154 q 351 -199 386 -199 q 290 -176 318 -199 q 246 -114 263 -154 l 265 -104 z "}}}
